<svg width="220" height="219" viewBox="0 0 220 219" fill="none" xmlns="http://www.w3.org/2000/svg">
<g filter="url(#filter0_f_189_3637)">
<circle cx="109.647" cy="109.435" r="47.3846" transform="rotate(44.1301 109.647 109.435)" fill="url(#paint0_radial_189_3637)"/>
</g>
<path fill-rule="evenodd" clip-rule="evenodd" d="M133.718 58.0798L131.097 58.7631L128.431 59.8025L75.7154 84.9676L73.4187 86.1752L71.2432 87.6365L69.2038 89.3225L67.3154 91.2052L65.5937 93.2572L64.0546 95.4518L62.7148 97.7627L61.5915 100.164L60.7028 102.63L60.0675 105.134L59.7054 107.651L59.6373 110.155L63.8975 164.204L63.8976 164.205L64.4796 166.794L65.3603 169.156L66.5209 171.271L67.9424 173.118L69.6054 174.676L71.4895 175.922L73.5741 176.832L75.8364 177.383L78.2543 177.551L80.8025 177.313L83.4562 176.644L142.581 157.914L145.464 156.946L148.438 155.315L151.218 153.101L153.679 150.841L155.882 148.319L157.799 145.577L159.403 142.659L160.669 139.607L161.572 136.464L162.09 133.276L162.202 130.083L161.888 126.931L151.458 69.3002L150.828 66.8085L149.858 64.5993L148.582 62.6822L147.032 61.0656L145.24 59.7574L143.238 58.7647L141.056 58.0941L138.724 57.7521L136.269 57.7451L133.718 58.0798ZM63.8975 164.204L59.6373 110.155L63.6326 161.407L63.8975 164.204Z" fill="url(#paint1_linear_189_3637)" fill-opacity="0.5"/>
<path fill-rule="evenodd" clip-rule="evenodd" d="M137.694 52.6737L138.324 55.1653L148.952 117.389L149.266 120.542L149.154 123.734L148.636 126.923L147.733 130.066L146.467 133.118L144.863 136.036L142.946 138.778L140.743 141.3L138.282 143.56L135.592 145.518L132.704 147.135L129.646 148.372L66.4983 169.259L63.8448 169.928L61.2964 170.167L58.8788 169.999L56.6164 169.448L58.9206 170.528L60.9971 171.435L63.1985 172.468L60.9981 171.435L60.9971 171.435L58.9206 170.528L56.6164 169.448L54.5317 168.537L58.9185 170.527L58.9196 170.527L58.9206 170.528L60.9971 171.435L63.1985 172.468L67.3727 174.361L71.4458 176.208L73.5008 177.107L75.7224 177.662L78.0874 177.852L80.5718 177.654L83.1501 177.043L144.175 157.834L147.115 156.691L149.885 155.184L152.457 153.348L154.803 151.22L156.897 148.839L158.711 146.244L160.221 143.474L161.402 140.572L162.231 137.578L162.689 134.532L162.753 131.476L162.407 128.45L151.249 68.3931L150.601 65.9732L149.627 63.8182L145.249 58.7128L143.713 57.1114L140.522 53.8011L137.251 50.409L133.901 46.9341L135.447 48.5473L136.724 50.4645L137.694 52.6737Z" fill="url(#paint2_linear_189_3637)"/>
<g filter="url(#filter1_b_189_3637)">
<path fill-rule="evenodd" clip-rule="evenodd" d="M120.583 43.945L117.962 44.6283L115.296 45.6677L60.7332 70.504L58.4365 71.7116L56.2611 73.1729L54.2216 74.8589L52.3333 76.7416L50.6115 78.7936L49.0725 80.9882L47.7326 83.2991L46.6093 85.7004L45.7206 88.1661L45.0853 90.6704L44.7232 93.1875L44.6551 95.6912L46.9389 156.819L46.939 156.821L47.521 159.41L48.4017 161.772L49.5622 163.887L50.9838 165.734L52.6468 167.292L54.5308 168.537L56.6155 169.448L58.8778 169.999L61.2957 170.167L63.8439 169.928L66.4975 169.259L129.644 148.373L132.528 147.405L135.502 145.774L138.281 143.56L140.742 141.3L142.945 138.778L144.862 136.036L146.467 133.118L147.732 130.066L148.636 126.923L149.153 123.735L149.265 120.542L148.951 117.389L138.323 55.1654L137.693 52.6737L136.723 50.4645L135.447 48.5474L133.897 46.9308L132.105 45.6226L130.103 44.6299L127.921 43.9593L125.589 43.6173L123.134 43.6103L120.583 43.945ZM46.9389 156.819L44.6551 95.6912L46.674 154.023L46.9389 156.819Z" fill="url(#paint3_linear_189_3637)" fill-opacity="0.3"/>
<path d="M47.2479 156.781L47.819 159.321L48.6844 161.643L49.8227 163.717L51.2142 165.525L52.8397 167.047L54.6795 168.264L56.715 169.153L58.9257 169.691L61.292 169.856L63.7912 169.622L66.4108 168.961L129.545 148.079L129.547 148.078L132.403 147.12L135.329 145.515L138.079 143.324L140.52 141.083L142.701 138.586L144.598 135.872L146.187 132.983L147.439 129.963L148.332 126.855L148.844 123.704L148.954 120.552L148.644 117.431L138.019 55.2296L137.399 52.7748L136.45 50.6139L135.204 48.7422L133.692 47.1652L131.944 45.8887L129.988 44.919L127.853 44.2627L125.566 43.9274L123.153 43.9206L120.642 44.25L118.058 44.9239L115.417 45.9536L60.8697 70.7827L58.5956 71.9784L56.4468 73.4218L54.4304 75.0888L52.562 76.9515L50.8578 78.9827L49.3341 81.1554L48.0078 83.4429L46.8963 85.8189L46.0176 88.257L45.39 90.7308L45.0328 93.2139L44.9654 95.6896L47.2479 156.781Z" stroke="url(#paint4_linear_189_3637)" stroke-width="0.62037"/>
</g>
<path d="M131.624 74.7125C131.415 74.4651 131.025 74.1742 130.742 74.0722C130.239 73.895 130.187 73.9049 122.172 75.4499L122.164 75.4514C114.959 76.8389 114.027 77.0463 113.672 77.2985C113.444 77.4606 113.091 77.7781 112.903 78.0112C112.701 78.2336 112.452 78.6226 112.353 78.8513C112.242 79.0955 112.174 79.5933 112.194 79.9954C112.203 80.5043 112.311 80.8499 112.522 81.1756C112.693 81.4304 113.07 81.7369 113.846 82.0969L121.959 80.5591C128.845 79.2468 130.148 78.9674 130.579 78.7263C130.859 78.5673 131.275 78.1852 131.5 77.8925C131.713 77.5893 131.961 77.1089 132.033 76.833C132.105 76.544 132.135 76.0537 132.078 75.7374C132.034 75.4055 131.834 74.9729 131.624 74.7125Z" fill="url(#paint5_linear_189_3637)"/>
<path d="M107.688 78.9069C107.442 78.7713 107.132 78.6221 106.99 78.5581C106.796 78.4779 104.841 78.8187 99.4882 79.8592C94.7739 80.7624 92.2067 81.3007 92.17 81.3995C92.1328 81.4722 91.8047 81.7717 91.4505 82.037C91.0836 82.3178 86.6581 85.8102 81.6131 89.8027C76.5682 93.7952 72.2945 97.1795 71.7381 97.615L79.1983 100.539C83.3028 102.15 88.0526 104.016 89.7563 104.68C91.4599 105.344 92.8668 105.896 92.8921 105.878C92.9049 105.875 97.5072 102.231 103.134 97.7848C108.748 93.3412 113.375 89.6525 113.438 89.601C113.488 89.5388 111.28 88.6062 108.531 87.5299C105.769 86.456 103.368 85.4954 103.174 85.3891C102.954 85.3008 102.81 85.1062 102.807 84.9366C102.804 84.7669 102.864 84.5457 102.952 84.437C103.065 84.2971 103.627 84.1487 104.879 83.9054C106.182 83.6521 106.756 83.4881 107.111 83.262C107.364 83.1079 107.718 82.8165 107.881 82.6276C108.045 82.4387 108.281 82.0261 108.404 81.7142C108.527 81.4022 108.633 80.91 108.628 80.6229C108.623 80.3358 108.513 79.8858 108.38 79.6236C108.247 79.3613 107.934 79.0424 107.688 78.9069Z" fill="url(#paint6_linear_189_3637)"/>
<path d="M90.7492 110.158L80.2298 106.021L69.7232 101.883L69.896 113.988C70.0673 125.269 70.0949 126.115 70.3054 126.428C70.4765 126.683 72.9686 127.717 80.7901 130.78C86.4303 132.984 91.0892 134.776 91.153 134.763C91.2041 134.753 91.1331 129.215 90.7492 110.158Z" fill="url(#paint7_linear_189_3637)"/>
<path d="M134.213 90.0937C134.083 90.001 133.773 89.8779 133.516 89.8101C133.13 89.715 131.877 89.9322 115.627 93.0779L112.314 95.6992C110.493 97.14 107.661 99.3798 106.017 100.681C104.386 101.981 101.833 104.009 100.328 105.192C98.8358 106.373 97.0657 107.777 95.1439 109.303L95.3587 121.61C95.4767 128.371 95.6116 133.897 95.6372 133.892C95.6755 133.884 100.291 130.25 116.057 117.744L124.846 116.009C133.341 114.319 133.648 114.246 134.129 113.904C134.407 113.706 134.81 113.248 135.034 112.877C135.383 112.311 135.443 112.103 135.432 111.464C135.422 110.889 135.353 110.602 135.117 110.281C134.946 110.039 134.698 109.773 134.555 109.67C134.425 109.577 134.102 109.444 133.832 109.391C133.407 109.291 132.232 109.493 124.528 110.99C117.489 112.359 115.636 112.68 115.301 112.614C115.07 112.554 114.72 112.36 114.525 112.175C114.329 111.978 114.091 111.592 114.009 111.306C113.9 110.909 113.894 110.595 114.001 110.09C114.084 109.72 114.243 109.244 114.367 109.037C114.479 108.832 114.794 108.522 115.047 108.355C115.465 108.064 116.027 107.929 120.907 106.98C124.076 106.364 126.502 105.84 126.782 105.707C127.049 105.59 127.466 105.26 127.717 104.975C127.969 104.691 128.256 104.268 128.355 104.026C128.466 103.795 128.534 103.31 128.528 102.945C128.521 102.54 128.411 102.104 128.239 101.797C128.067 101.503 127.728 101.189 126.875 100.778L122.134 101.634C118.889 102.226 117.316 102.466 117.135 102.396C116.993 102.332 116.734 102.16 116.552 101.999C116.382 101.836 116.158 101.447 116.075 101.123C115.992 100.798 115.958 100.321 116.004 100.01C116.038 99.7158 116.171 99.284 116.295 99.0373C116.406 98.8061 116.695 98.4488 116.91 98.263C117.301 97.9381 117.595 97.8679 125.297 96.3053C132.961 94.75 133.306 94.6699 133.787 94.3276C134.066 94.1294 134.468 93.6715 134.692 93.3005C135.041 92.7351 135.102 92.5269 135.09 91.8874C135.08 91.3132 135.011 91.0254 134.775 90.7047C134.604 90.4629 134.356 90.1969 134.213 90.0937Z" fill="url(#paint8_linear_189_3637)"/>
<path d="M129.181 76.5443C128.972 76.2969 128.582 76.006 128.298 75.904C127.795 75.7268 127.744 75.7367 119.728 77.2817L119.721 77.2831C112.515 78.6707 111.583 78.878 111.229 79.1303C111.001 79.2924 110.648 79.6099 110.459 79.8429C110.258 80.0654 110.009 80.4544 109.91 80.6831C109.799 80.9273 109.731 81.425 109.75 81.8271C109.759 82.3361 109.868 82.6817 110.079 83.0074C110.25 83.2622 110.627 83.5687 111.402 83.9286L119.515 82.3909C126.402 81.0785 127.704 80.7992 128.136 80.5581C128.415 80.3991 128.831 80.017 129.057 79.7243C129.27 79.4211 129.518 78.9407 129.59 78.6648C129.662 78.3758 129.692 77.8855 129.635 77.5692C129.591 77.2373 129.391 76.8047 129.181 76.5443Z" fill="white"/>
<path d="M105.245 80.7387C104.999 80.6031 104.689 80.4539 104.547 80.3899C104.353 80.3097 102.398 80.6505 97.0448 81.6909C92.3305 82.5942 89.7634 83.1325 89.7266 83.2313C89.6894 83.304 89.3614 83.6035 89.0071 83.8688C88.6403 84.1496 84.2147 87.642 79.1697 91.6345C74.1248 95.627 69.8512 99.0113 69.2947 99.4468L76.755 102.37C80.8594 103.982 85.6092 105.848 87.3129 106.512C89.0166 107.176 90.4234 107.728 90.4487 107.71C90.4615 107.707 95.0639 104.063 100.691 99.6166C106.304 95.173 110.932 91.4843 110.995 91.4328C111.045 91.3706 108.837 90.438 106.088 89.3617C103.326 88.2878 100.925 87.3272 100.731 87.2209C100.511 87.1326 100.367 86.938 100.364 86.7684C100.361 86.5987 100.421 86.3775 100.509 86.2687C100.622 86.1289 101.183 85.9805 102.435 85.7372C103.738 85.4839 104.312 85.3199 104.667 85.0938C104.921 84.9397 105.275 84.6483 105.438 84.4594C105.601 84.2705 105.838 83.8579 105.961 83.546C106.083 83.234 106.19 82.7418 106.185 82.4547C106.18 82.1676 106.07 81.7176 105.937 81.4553C105.804 81.1931 105.491 80.8742 105.245 80.7387Z" fill="white"/>
<path d="M88.3058 111.989L77.7864 107.853L67.2798 103.715L67.4526 115.82C67.6239 127.101 67.6515 127.947 67.8621 128.259C68.0331 128.514 70.5252 129.549 78.3468 132.612C83.987 134.815 88.6458 136.607 88.7097 136.595C88.7608 136.585 88.6897 131.047 88.3058 111.989Z" fill="white"/>
<path d="M131.77 91.9254C131.64 91.8328 131.33 91.7097 131.073 91.6419C130.686 91.5468 129.434 91.764 113.184 94.9097L109.871 97.531C108.05 98.9718 105.218 101.212 103.574 102.513C101.943 103.812 99.3892 105.841 97.8844 107.024C96.3924 108.204 94.6223 109.609 92.7005 111.135L92.9153 123.442C93.0333 130.202 93.1682 135.728 93.1938 135.723C93.2321 135.716 97.8475 132.082 113.614 119.576L122.403 117.841C130.898 116.151 131.204 116.078 131.685 115.736C131.964 115.537 132.366 115.08 132.59 114.709C132.939 114.143 133 113.935 132.989 113.295C132.979 112.721 132.91 112.433 132.673 112.113C132.502 111.871 132.254 111.605 132.111 111.502C131.982 111.409 131.659 111.275 131.389 111.223C130.964 111.122 129.788 111.325 122.085 112.822C115.045 114.19 113.192 114.511 112.858 114.445C112.626 114.386 112.277 114.192 112.081 114.007C111.885 113.809 111.648 113.423 111.566 113.138C111.457 112.74 111.451 112.427 111.558 111.922C111.641 111.552 111.799 111.076 111.924 110.869C112.036 110.664 112.351 110.354 112.604 110.186C113.022 109.896 113.584 109.76 118.464 108.812C121.632 108.196 124.059 107.672 124.338 107.539C124.605 107.421 125.023 107.092 125.274 106.807C125.525 106.522 125.813 106.1 125.911 105.858C126.023 105.627 126.091 105.142 126.085 104.777C126.078 104.372 125.967 103.935 125.795 103.628C125.624 103.334 125.285 103.02 124.432 102.61L119.691 103.466C116.445 104.058 114.873 104.298 114.692 104.228C114.55 104.164 114.291 103.992 114.108 103.831C113.939 103.668 113.714 103.279 113.632 102.955C113.549 102.63 113.515 102.152 113.561 101.842C113.594 101.548 113.728 101.116 113.852 100.869C113.963 100.638 114.251 100.281 114.466 100.095C114.858 99.7699 115.151 99.6997 122.854 98.137C130.518 96.5818 130.863 96.5017 131.344 96.1594C131.622 95.9612 132.024 95.5033 132.249 95.1323C132.598 94.5668 132.658 94.3587 132.647 93.7192C132.637 93.1449 132.568 92.8572 132.332 92.5365C132.161 92.2947 131.913 92.0286 131.77 91.9254Z" fill="white"/>
<defs>
<filter id="filter0_f_189_3637" x="0.225655" y="0.0132523" width="218.844" height="218.843" filterUnits="userSpaceOnUse" color-interpolation-filters="sRGB">
<feFlood flood-opacity="0" result="BackgroundImageFix"/>
<feBlend mode="normal" in="SourceGraphic" in2="BackgroundImageFix" result="shape"/>
<feGaussianBlur stdDeviation="31.0185" result="effect1_foregroundBlur_189_3637"/>
</filter>
<filter id="filter1_b_189_3637" x="36.5905" y="35.5455" width="120.739" height="142.686" filterUnits="userSpaceOnUse" color-interpolation-filters="sRGB">
<feFlood flood-opacity="0" result="BackgroundImageFix"/>
<feGaussianBlur in="BackgroundImageFix" stdDeviation="4.03241"/>
<feComposite in2="SourceAlpha" operator="in" result="effect1_backgroundBlur_189_3637"/>
<feBlend mode="normal" in="SourceGraphic" in2="effect1_backgroundBlur_189_3637" result="shape"/>
</filter>
<radialGradient id="paint0_radial_189_3637" cx="0" cy="0" r="1" gradientUnits="userSpaceOnUse" gradientTransform="translate(66.9242 93.3989) rotate(33.9088) scale(118.991 122.865)">
<stop stop-color="#FFEAB3"/>
<stop offset="0.43836" stop-color="#FFB224"/>
<stop offset="1" stop-color="#2A1950" stop-opacity="0"/>
</radialGradient>
<linearGradient id="paint1_linear_189_3637" x1="163.751" y1="176.436" x2="60.8496" y2="73.4985" gradientUnits="userSpaceOnUse">
<stop offset="0.320833" stop-color="#FFDC9A"/>
<stop offset="0.58125" stop-color="#FFEAC5"/>
<stop offset="0.89375" stop-color="#FFA90C"/>
</linearGradient>
<linearGradient id="paint2_linear_189_3637" x1="183.2" y1="59.1667" x2="66.9392" y2="200.214" gradientUnits="userSpaceOnUse">
<stop stop-color="#FFEBC6"/>
<stop offset="0.35896" stop-color="#FFC559"/>
<stop offset="0.683604" stop-color="#FFB224"/>
<stop offset="1" stop-color="#FFB937"/>
</linearGradient>
<linearGradient id="paint3_linear_189_3637" x1="150.318" y1="166.078" x2="47.4173" y2="63.1407" gradientUnits="userSpaceOnUse">
<stop offset="0.320833" stop-color="#FFECCA"/>
<stop offset="0.685417" stop-color="#FFCD70"/>
<stop offset="0.89375" stop-color="#FFA500"/>
</linearGradient>
<linearGradient id="paint4_linear_189_3637" x1="152.287" y1="149.732" x2="42.1353" y2="74.1566" gradientUnits="userSpaceOnUse">
<stop offset="0.180663" stop-color="white" stop-opacity="0.35"/>
<stop offset="0.533255" stop-color="white" stop-opacity="0"/>
</linearGradient>
<linearGradient id="paint5_linear_189_3637" x1="165.513" y1="82.1071" x2="52.2115" y2="121.068" gradientUnits="userSpaceOnUse">
<stop offset="0.334199" stop-color="#FFB224"/>
<stop offset="0.590808" stop-color="#CDA55A"/>
</linearGradient>
<linearGradient id="paint6_linear_189_3637" x1="165.513" y1="82.1071" x2="52.2115" y2="121.068" gradientUnits="userSpaceOnUse">
<stop offset="0.334199" stop-color="#FFB224"/>
<stop offset="0.590808" stop-color="#CDA55A"/>
</linearGradient>
<linearGradient id="paint7_linear_189_3637" x1="165.513" y1="82.1071" x2="52.2115" y2="121.068" gradientUnits="userSpaceOnUse">
<stop offset="0.334199" stop-color="#FFB224"/>
<stop offset="0.590808" stop-color="#CDA55A"/>
</linearGradient>
<linearGradient id="paint8_linear_189_3637" x1="165.513" y1="82.1071" x2="52.2115" y2="121.068" gradientUnits="userSpaceOnUse">
<stop offset="0.334199" stop-color="#FFB224"/>
<stop offset="0.590808" stop-color="#CDA55A"/>
</linearGradient>
</defs>
</svg>
