<svg width="200" height="199" viewBox="0 0 200 199" fill="none" xmlns="http://www.w3.org/2000/svg">
<path d="M43.3144 29.8889H189.5L169.611 99.5H54.0239M179.556 139.278H60.2222L40.3333 10H10.5M70.1667 179.056C70.1667 184.548 65.7143 189 60.2222 189C54.7301 189 50.2778 184.548 50.2778 179.056C50.2778 173.563 54.7301 169.111 60.2222 169.111C65.7143 169.111 70.1667 173.563 70.1667 179.056ZM179.556 179.056C179.556 184.548 175.103 189 169.611 189C164.119 189 159.667 184.548 159.667 179.056C159.667 173.563 164.119 169.111 169.611 169.111C175.103 169.111 179.556 173.563 179.556 179.056Z" stroke="#D0D0D0" stroke-width="19.8889" stroke-linecap="round" stroke-linejoin="round"/>
</svg>
