<svg width="354" height="353" viewBox="0 0 354 353" fill="none" xmlns="http://www.w3.org/2000/svg">
<g filter="url(#filter0_f_4_1977)">
<circle cx="177.237" cy="176.552" r="76.3811" transform="rotate(44.1301 177.237 176.552)" fill="url(#paint0_radial_4_1977)"/>
</g>
<path fill-rule="evenodd" clip-rule="evenodd" d="M216.035 93.7704L211.811 94.8718L207.513 96.5472L122.539 137.112L118.837 139.059L115.33 141.414L112.043 144.132L108.999 147.167L106.224 150.474L103.743 154.012L101.583 157.737L99.7724 161.607L98.3399 165.582L97.3158 169.619L96.7321 173.676L96.6223 177.712L103.49 264.836L103.49 264.838L104.428 269.012L105.847 272.819L107.718 276.228L110.01 279.206L112.69 281.717L115.727 283.724L119.088 285.192L122.734 286.08L126.632 286.351L130.739 285.967L135.017 284.888L230.322 254.697L234.971 253.137L239.765 250.508L244.245 246.939L248.211 243.296L251.763 239.231L254.853 234.811L257.439 230.107L259.48 225.187L260.935 220.122L261.77 214.982L261.95 209.836L261.444 204.754L244.632 111.857L243.616 107.841L242.053 104.279L239.995 101.189L237.497 98.5833L234.609 96.4746L231.382 94.8743L227.865 93.7934L224.105 93.2421L220.147 93.2309L216.035 93.7704ZM103.49 264.836L96.6223 177.712L103.062 260.328L103.49 264.836Z" fill="url(#paint1_linear_4_1977)" fill-opacity="0.5"/>
<path fill-rule="evenodd" clip-rule="evenodd" d="M222.444 85.056L223.46 89.0723L240.592 189.374L241.098 194.456L240.918 199.602L240.083 204.742L238.627 209.807L236.587 214.727L234.001 219.432L230.911 223.851L227.359 227.916L223.393 231.559L219.057 234.716L214.401 237.322L209.472 239.316L107.682 272.985L103.404 274.063L99.2966 274.448L95.3995 274.177L91.7527 273.289L95.4668 275.029L98.814 276.492L102.363 278.157L98.8157 276.492L98.814 276.492L95.4668 275.029L91.7527 273.289L88.3923 271.821L95.4634 275.028L95.4652 275.029L95.4668 275.029L98.814 276.492L102.363 278.157L109.091 281.208L115.657 284.186L118.969 285.634L122.55 286.53L126.363 286.837L130.367 286.516L134.523 285.532L232.892 254.568L237.631 252.726L242.096 250.297L246.242 247.337L250.024 243.907L253.399 240.069L256.323 235.885L258.756 231.421L260.66 226.743L261.998 221.916L262.735 217.007L262.839 212.081L262.281 207.204L244.294 110.395L243.25 106.494L241.681 103.02L234.623 94.7906L232.148 92.2094L227.003 86.8734L221.731 81.4055L216.33 75.8041L218.824 78.4045L220.881 81.4948L222.444 85.056Z" fill="url(#paint2_linear_4_1977)"/>
<g filter="url(#filter1_b_4_1977)">
<path fill-rule="evenodd" clip-rule="evenodd" d="M194.864 70.986L190.639 72.0874L186.342 73.7628L98.39 113.798L94.6879 115.744L91.1812 118.1L87.8937 120.817L84.8498 123.852L82.0745 127.16L79.5936 130.697L77.4339 134.422L75.6232 138.293L74.1906 142.268L73.1665 146.305L72.5829 150.362L72.4731 154.398L76.1544 252.933L76.1545 252.935L77.0928 257.109L78.5123 260.916L80.3831 264.325L82.6745 267.303L85.3552 269.814L88.3922 271.821L91.7525 273.289L95.3992 274.177L99.2968 274.448L103.404 274.064L107.682 272.985L209.47 239.317L214.119 237.757L218.913 235.128L223.393 231.56L227.36 227.916L230.911 223.851L234.001 219.432L236.587 214.727L238.628 209.807L240.084 204.742L240.918 199.602L241.098 194.456L240.592 189.374L223.46 89.0725L222.444 85.0562L220.881 81.495L218.824 78.4047L216.325 75.7989L213.437 73.6902L210.211 72.0899L206.694 71.009L202.934 70.4577L198.976 70.4465L194.864 70.986ZM76.1544 252.933L72.4731 154.398L75.7274 248.425L76.1544 252.933Z" fill="url(#paint3_linear_4_1977)" fill-opacity="0.3"/>
<path d="M76.6525 252.87L77.5731 256.966L78.9681 260.707L80.8029 264.051L83.046 266.965L85.6662 269.42L88.6318 271.38L91.9129 272.813L95.4763 273.681L99.2907 273.947L103.319 273.569L107.542 272.505L209.311 238.843L209.313 238.843L213.917 237.297L218.635 234.71L223.068 231.179L227.001 227.566L230.516 223.542L233.576 219.167L236.136 214.51L238.155 209.642L239.595 204.633L240.42 199.553L240.597 194.472L240.096 189.441L222.971 89.1761L221.97 85.2191L220.441 81.7359L218.432 78.7187L215.995 76.1768L213.177 74.1192L210.025 72.5559L206.583 71.4981L202.896 70.9576L199.008 70.9466L194.96 71.4777L190.794 72.5638L186.536 74.2236L98.61 114.247L94.9444 116.174L91.4806 118.501L88.2302 121.188L85.2186 124.19L82.4714 127.465L80.0154 130.967L77.8774 134.654L76.0858 138.484L74.6693 142.414L73.6577 146.402L73.0819 150.404L72.9733 154.395L76.6525 252.87Z" stroke="url(#paint4_linear_4_1977)"/>
</g>
<path d="M210.92 120.805C210.577 120.399 209.939 119.923 209.474 119.756C208.651 119.466 208.567 119.482 195.439 122.012L195.427 122.015C183.626 124.287 182.099 124.627 181.519 125.04C181.146 125.305 180.567 125.825 180.259 126.207C179.929 126.571 179.52 127.208 179.359 127.583C179.177 127.983 179.065 128.798 179.098 129.457C179.112 130.29 179.29 130.856 179.635 131.39C179.915 131.807 180.533 132.309 181.803 132.898L195.09 130.38C206.368 128.231 208.502 127.773 209.208 127.378C209.666 127.118 210.348 126.492 210.717 126.013C211.065 125.516 211.472 124.729 211.59 124.278C211.707 123.804 211.756 123.001 211.663 122.483C211.591 121.94 211.263 121.231 210.92 120.805Z" fill="url(#paint5_linear_4_1977)"/>
<path d="M171.719 127.674C171.316 127.452 170.808 127.208 170.575 127.103C170.258 126.971 167.056 127.53 158.289 129.234C150.568 130.713 146.364 131.595 146.304 131.756C146.243 131.875 145.705 132.366 145.125 132.8C144.524 133.26 137.276 138.98 129.014 145.519C120.752 152.057 113.753 157.6 112.841 158.313L125.059 163.101C131.781 165.741 139.56 168.797 142.35 169.885C145.141 170.972 147.445 171.875 147.486 171.846C147.507 171.842 155.045 165.873 164.26 158.591C173.454 151.314 181.032 145.273 181.136 145.188C181.218 145.086 177.601 143.559 173.099 141.796C168.576 140.038 164.643 138.464 164.325 138.29C163.966 138.146 163.729 137.827 163.725 137.549C163.72 137.271 163.818 136.909 163.962 136.731C164.147 136.502 165.067 136.259 167.117 135.86C169.251 135.445 170.191 135.177 170.773 134.807C171.188 134.554 171.768 134.077 172.035 133.768C172.303 133.458 172.69 132.783 172.891 132.272C173.092 131.761 173.267 130.955 173.258 130.484C173.25 130.014 173.069 129.277 172.852 128.848C172.634 128.418 172.122 127.896 171.719 127.674Z" fill="url(#paint6_linear_4_1977)"/>
<path d="M143.977 178.855L126.748 172.081L109.541 165.303L109.824 185.129C110.105 203.604 110.15 204.989 110.495 205.501C110.775 205.919 114.856 207.613 127.666 212.629C136.903 216.238 144.533 219.173 144.638 219.153C144.722 219.137 144.605 210.066 143.977 178.855Z" fill="url(#paint7_linear_4_1977)"/>
<path d="M215.16 145.995C214.947 145.843 214.44 145.642 214.018 145.531C213.385 145.375 211.334 145.731 184.72 150.883L179.295 155.176C176.313 157.535 171.674 161.204 168.982 163.335C166.311 165.463 162.128 168.785 159.664 170.723C157.22 172.656 154.321 174.957 151.174 177.456L151.526 197.611C151.719 208.683 151.94 217.734 151.982 217.725C152.045 217.713 159.604 211.762 185.425 191.279L199.819 188.439C213.732 185.67 214.234 185.551 215.022 184.99C215.478 184.666 216.137 183.916 216.504 183.308C217.075 182.382 217.174 182.041 217.156 180.994C217.14 180.053 217.027 179.582 216.64 179.057C216.36 178.661 215.953 178.225 215.719 178.056C215.507 177.904 214.978 177.686 214.536 177.6C213.84 177.435 211.914 177.766 199.298 180.219C187.77 182.46 184.735 182.985 184.187 182.877C183.807 182.779 183.235 182.462 182.915 182.159C182.594 181.836 182.205 181.204 182.071 180.736C181.892 180.085 181.883 179.572 182.057 178.744C182.194 178.139 182.453 177.359 182.657 177.019C182.84 176.684 183.356 176.176 183.771 175.902C184.456 175.426 185.376 175.204 193.368 173.651C198.557 172.642 202.531 171.784 202.989 171.566C203.426 171.374 204.11 170.833 204.521 170.367C204.933 169.901 205.404 169.209 205.565 168.813C205.747 168.435 205.859 167.641 205.849 167.043C205.837 166.38 205.657 165.664 205.375 165.162C205.094 164.68 204.539 164.166 203.142 163.494L195.378 164.896C190.062 165.865 187.487 166.258 187.191 166.144C186.958 166.039 186.533 165.757 186.235 165.494C185.957 165.226 185.589 164.59 185.454 164.058C185.319 163.527 185.263 162.744 185.338 162.236C185.393 161.754 185.611 161.047 185.814 160.643C185.997 160.264 186.469 159.679 186.821 159.375C187.462 158.842 187.943 158.727 200.558 156.168C213.109 153.621 213.674 153.49 214.462 152.929C214.918 152.605 215.577 151.855 215.944 151.247C216.516 150.321 216.615 149.98 216.597 148.933C216.58 147.992 216.467 147.521 216.08 146.996C215.8 146.6 215.394 146.164 215.16 145.995Z" fill="url(#paint8_linear_4_1977)"/>
<path d="M206.92 123.805C206.577 123.399 205.939 122.923 205.474 122.756C204.651 122.466 204.567 122.482 191.439 125.012L191.427 125.015C179.626 127.287 178.099 127.627 177.519 128.04C177.146 128.305 176.567 128.825 176.259 129.207C175.929 129.571 175.52 130.208 175.359 130.583C175.177 130.983 175.065 131.798 175.098 132.457C175.112 133.29 175.29 133.856 175.635 134.39C175.915 134.807 176.533 135.309 177.803 135.898L191.09 133.38C202.368 131.231 204.502 130.773 205.208 130.378C205.666 130.118 206.348 129.492 206.717 129.013C207.065 128.516 207.472 127.729 207.59 127.278C207.707 126.804 207.756 126.001 207.663 125.483C207.591 124.94 207.263 124.231 206.92 123.805Z" fill="white"/>
<path d="M167.719 130.674C167.316 130.452 166.808 130.208 166.575 130.103C166.258 129.971 163.056 130.53 154.289 132.234C146.568 133.713 142.364 134.595 142.304 134.756C142.243 134.875 141.705 135.366 141.125 135.8C140.524 136.26 133.276 141.98 125.014 148.519C116.752 155.057 109.753 160.6 108.841 161.313L121.059 166.101C127.781 168.741 135.56 171.797 138.35 172.885C141.141 173.972 143.445 174.875 143.486 174.846C143.507 174.842 151.045 168.873 160.26 161.591C169.454 154.314 177.032 148.273 177.136 148.188C177.218 148.086 173.601 146.559 169.099 144.796C164.576 143.038 160.643 141.464 160.325 141.29C159.966 141.146 159.729 140.827 159.725 140.549C159.72 140.271 159.818 139.909 159.962 139.731C160.147 139.502 161.067 139.259 163.117 138.86C165.251 138.445 166.191 138.177 166.773 137.807C167.188 137.554 167.768 137.077 168.035 136.768C168.303 136.458 168.69 135.783 168.891 135.272C169.092 134.761 169.267 133.955 169.258 133.484C169.25 133.014 169.069 132.277 168.852 131.848C168.634 131.418 168.122 130.896 167.719 130.674Z" fill="white"/>
<path d="M139.977 181.855L122.748 175.081L105.541 168.303L105.824 188.129C106.105 206.604 106.15 207.989 106.495 208.501C106.775 208.919 110.856 210.613 123.666 215.629C132.903 219.238 140.533 222.173 140.638 222.153C140.722 222.137 140.605 213.066 139.977 181.855Z" fill="white"/>
<path d="M211.16 148.995C210.947 148.843 210.44 148.642 210.018 148.531C209.385 148.375 207.334 148.731 180.72 153.883L175.295 158.176C172.313 160.535 167.674 164.204 164.982 166.335C162.311 168.463 158.128 171.785 155.664 173.723C153.22 175.656 150.321 177.957 147.174 180.456L147.526 200.611C147.719 211.683 147.94 220.734 147.982 220.725C148.045 220.713 155.604 214.762 181.425 194.279L195.819 191.439C209.732 188.67 210.234 188.551 211.022 187.99C211.478 187.666 212.137 186.916 212.504 186.308C213.075 185.382 213.174 185.041 213.156 183.994C213.14 183.053 213.027 182.582 212.64 182.057C212.36 181.661 211.953 181.225 211.719 181.056C211.507 180.904 210.978 180.686 210.536 180.6C209.84 180.435 207.914 180.766 195.298 183.219C183.77 185.46 180.735 185.985 180.187 185.877C179.807 185.779 179.235 185.462 178.915 185.159C178.594 184.836 178.205 184.204 178.071 183.736C177.892 183.085 177.883 182.572 178.057 181.744C178.194 181.139 178.453 180.359 178.657 180.019C178.84 179.684 179.356 179.176 179.771 178.902C180.456 178.426 181.376 178.204 189.368 176.651C194.557 175.642 198.531 174.784 198.989 174.566C199.426 174.374 200.11 173.833 200.521 173.367C200.933 172.901 201.404 172.209 201.565 171.813C201.747 171.435 201.859 170.641 201.849 170.043C201.837 169.38 201.657 168.664 201.375 168.162C201.094 167.68 200.539 167.166 199.142 166.494L191.378 167.896C186.062 168.865 183.487 169.258 183.191 169.144C182.958 169.039 182.533 168.757 182.235 168.494C181.957 168.226 181.589 167.59 181.454 167.058C181.319 166.527 181.263 165.744 181.338 165.236C181.393 164.754 181.611 164.047 181.814 163.643C181.997 163.264 182.469 162.679 182.821 162.375C183.462 161.842 183.943 161.727 196.558 159.168C209.109 156.621 209.674 156.49 210.462 155.929C210.918 155.605 211.577 154.855 211.944 154.247C212.516 153.321 212.615 152.98 212.597 151.933C212.58 150.992 212.467 150.521 212.08 149.996C211.8 149.6 211.394 149.164 211.16 148.995Z" fill="white"/>
<defs>
<filter id="filter0_f_4_1977" x="0.855469" y="0.170532" width="352.763" height="352.762" filterUnits="userSpaceOnUse" color-interpolation-filters="sRGB">
<feFlood flood-opacity="0" result="BackgroundImageFix"/>
<feBlend mode="normal" in="SourceGraphic" in2="BackgroundImageFix" result="shape"/>
<feGaussianBlur stdDeviation="50" result="effect1_foregroundBlur_4_1977"/>
</filter>
<filter id="filter1_b_4_1977" x="59.4727" y="57.4465" width="194.625" height="230.002" filterUnits="userSpaceOnUse" color-interpolation-filters="sRGB">
<feFlood flood-opacity="0" result="BackgroundImageFix"/>
<feGaussianBlur in="BackgroundImageFix" stdDeviation="6.5"/>
<feComposite in2="SourceAlpha" operator="in" result="effect1_backgroundBlur_4_1977"/>
<feBlend mode="normal" in="SourceGraphic" in2="effect1_backgroundBlur_4_1977" result="shape"/>
</filter>
<radialGradient id="paint0_radial_4_1977" cx="0" cy="0" r="1" gradientUnits="userSpaceOnUse" gradientTransform="translate(108.37 150.703) rotate(33.9088) scale(191.806 198.051)">
<stop stop-color="#FFEAB3"/>
<stop offset="0.43836" stop-color="#FFB224"/>
<stop offset="1" stop-color="#2A1950" stop-opacity="0"/>
</radialGradient>
<linearGradient id="paint1_linear_4_1977" x1="264.447" y1="284.554" x2="98.5764" y2="118.624" gradientUnits="userSpaceOnUse">
<stop offset="0.320833" stop-color="#FFDC9A"/>
<stop offset="0.58125" stop-color="#FFEAC5"/>
<stop offset="0.89375" stop-color="#FFA90C"/>
</linearGradient>
<linearGradient id="paint2_linear_4_1977" x1="295.798" y1="95.5224" x2="108.392" y2="322.882" gradientUnits="userSpaceOnUse">
<stop stop-color="#FFEBC6"/>
<stop offset="0.35896" stop-color="#FFC559"/>
<stop offset="0.683604" stop-color="#FFB224"/>
<stop offset="1" stop-color="#FFB937"/>
</linearGradient>
<linearGradient id="paint3_linear_4_1977" x1="242.796" y1="267.858" x2="76.9256" y2="101.928" gradientUnits="userSpaceOnUse">
<stop offset="0.320833" stop-color="#FFECCA"/>
<stop offset="0.685417" stop-color="#FFCD70"/>
<stop offset="0.89375" stop-color="#FFA500"/>
</linearGradient>
<linearGradient id="paint4_linear_4_1977" x1="245.969" y1="241.508" x2="68.4113" y2="119.685" gradientUnits="userSpaceOnUse">
<stop offset="0.180663" stop-color="white" stop-opacity="0.35"/>
<stop offset="0.533255" stop-color="white" stop-opacity="0"/>
</linearGradient>
<linearGradient id="paint5_linear_4_1977" x1="266.421" y1="132.915" x2="80.8615" y2="196.724" gradientUnits="userSpaceOnUse">
<stop offset="0.334199" stop-color="#FFB224"/>
<stop offset="0.590808" stop-color="#CDA55A"/>
</linearGradient>
<linearGradient id="paint6_linear_4_1977" x1="266.421" y1="132.915" x2="80.8615" y2="196.724" gradientUnits="userSpaceOnUse">
<stop offset="0.334199" stop-color="#FFB224"/>
<stop offset="0.590808" stop-color="#CDA55A"/>
</linearGradient>
<linearGradient id="paint7_linear_4_1977" x1="266.421" y1="132.915" x2="80.8615" y2="196.724" gradientUnits="userSpaceOnUse">
<stop offset="0.334199" stop-color="#FFB224"/>
<stop offset="0.590808" stop-color="#CDA55A"/>
</linearGradient>
<linearGradient id="paint8_linear_4_1977" x1="266.421" y1="132.915" x2="80.8615" y2="196.724" gradientUnits="userSpaceOnUse">
<stop offset="0.334199" stop-color="#FFB224"/>
<stop offset="0.590808" stop-color="#CDA55A"/>
</linearGradient>
</defs>
</svg>
