<svg width="260" height="97" viewBox="0 0 260 97" fill="none" xmlns="http://www.w3.org/2000/svg">
<path d="M31.676 42.2346L21.1173 52.5V31.676H0L10.5587 21.1173H21.1173V10.2654L31.676 0V21.1173H52.2067L41.9413 31.676H31.676V42.2346Z" fill="#FFB224"/>
<path d="M46.4527 42.321V37.6674H47.9307C48.3541 37.6674 48.7044 37.7175 48.9815 37.8176C49.2587 37.9099 49.4627 38.06 49.5935 38.2679C49.7244 38.4681 49.7898 38.7221 49.7898 39.03C49.7898 39.3072 49.7129 39.5497 49.5589 39.7575C49.4126 39.9654 49.2009 40.1347 48.9238 40.2656L50.2633 42.321H49.0624L48.0115 40.5427H47.5035V42.321H46.4527ZM47.5035 39.7575H47.9076C48.1617 39.7575 48.358 39.7036 48.4965 39.5958C48.6428 39.4804 48.7159 39.3033 48.7159 39.0647C48.7159 38.8491 48.6467 38.6951 48.5081 38.6028C48.3772 38.5104 48.1732 38.4642 47.8961 38.4642H47.5035V39.7575ZM48 45C47.3072 45 46.6567 44.8691 46.0485 44.6074C45.448 44.3533 44.9169 43.9992 44.455 43.545C44.0008 43.0831 43.6428 42.552 43.3811 41.9515C43.127 41.3433 43 40.6928 43 40C43 39.3072 43.127 38.6605 43.3811 38.06C43.6428 37.4519 44.0008 36.9207 44.455 36.4665C44.9169 36.0046 45.448 35.6467 46.0485 35.3926C46.6567 35.1309 47.3072 35 48 35C48.6928 35 49.3395 35.1309 49.94 35.3926C50.5481 35.6467 51.0793 36.0046 51.5335 36.4665C51.9954 36.9207 52.3533 37.4519 52.6074 38.06C52.8691 38.6605 53 39.3072 53 40C53 40.6928 52.8691 41.3433 52.6074 41.9515C52.3533 42.552 51.9954 43.0831 51.5335 43.545C51.0793 43.9992 50.5481 44.3533 49.94 44.6074C49.3395 44.8691 48.6928 45 48 45ZM48 43.9723C48.5543 43.9723 49.0701 43.8722 49.5473 43.6721C50.0246 43.4642 50.4442 43.1794 50.806 42.8176C51.1755 42.448 51.4604 42.0246 51.6605 41.5473C51.8684 41.0624 51.9723 40.5466 51.9723 40C51.9723 39.4457 51.8684 38.9299 51.6605 38.4527C51.4604 37.9754 51.1755 37.5558 50.806 37.194C50.4442 36.8245 50.0208 36.5396 49.5358 36.3395C49.0585 36.1316 48.5466 36.0277 48 36.0277C47.4457 36.0277 46.9299 36.1316 46.4527 36.3395C45.9754 36.5396 45.552 36.8245 45.1824 37.194C44.8206 37.5558 44.5358 37.9792 44.3279 38.4642C44.1278 38.9415 44.0277 39.4534 44.0277 40C44.0277 40.5543 44.1278 41.0701 44.3279 41.5473C44.5358 42.0246 44.8206 42.448 45.1824 42.8176C45.552 43.1794 45.9754 43.4642 46.4527 43.6721C46.9376 43.8722 47.4534 43.9723 48 43.9723Z" fill="black"/>
<path d="M67.275 12.75H72.525V37.25H67.275V12.75ZM84.4346 37.775C83.4779 37.775 82.6146 37.6817 81.8446 37.495C81.0746 37.3317 80.3862 37.0983 79.7796 36.795C79.1962 36.4917 78.6712 36.1533 78.2046 35.78C77.7612 35.4067 77.3879 35.0217 77.0846 34.625C76.3379 33.6917 75.8129 32.6417 75.5096 31.475H80.5846C80.7712 31.9183 81.0279 32.3033 81.3546 32.63C81.6346 32.91 82.0196 33.1667 82.5096 33.4C82.9996 33.6333 83.6412 33.75 84.4346 33.75C85.5779 33.75 86.3596 33.5983 86.7796 33.295C87.1996 32.9683 87.4096 32.5367 87.4096 32C87.4096 31.5333 87.1296 31.1833 86.5696 30.95C86.0329 30.7167 85.3562 30.5067 84.5396 30.32C83.7229 30.1333 82.8362 29.935 81.8796 29.725C80.9462 29.515 80.0712 29.2 79.2546 28.78C78.4379 28.36 77.7496 27.8 77.1896 27.1C76.6529 26.4 76.3846 25.4667 76.3846 24.3C76.3846 23.6 76.5479 22.9233 76.8746 22.27C77.2012 21.6167 77.6796 21.045 78.3096 20.555C78.9396 20.0417 79.7212 19.6333 80.6546 19.33C81.5879 19.0267 82.6729 18.875 83.9096 18.875C84.8429 18.875 85.6829 18.9567 86.4296 19.12C87.1762 19.2833 87.8296 19.505 88.3896 19.785C88.9729 20.065 89.4746 20.38 89.8946 20.73C90.3146 21.08 90.6646 21.43 90.9446 21.78C91.6212 22.62 92.0762 23.5767 92.3096 24.65H87.4096C87.2696 24.3233 87.0596 24.0317 86.7796 23.775C86.5229 23.565 86.1612 23.3667 85.6946 23.18C85.2512 22.9933 84.6562 22.9 83.9096 22.9C83.0229 22.9 82.3929 23.0517 82.0196 23.355C81.6462 23.635 81.4596 23.95 81.4596 24.3C81.4596 24.7667 81.7279 25.1167 82.2646 25.35C82.8246 25.5833 83.5129 25.7933 84.3296 25.98C85.1462 26.1667 86.0212 26.365 86.9546 26.575C87.9112 26.785 88.7979 27.1 89.6146 27.52C90.4312 27.94 91.1079 28.5 91.6446 29.2C92.2046 29.9 92.4846 30.8333 92.4846 32C92.4846 32.7467 92.3096 33.47 91.9596 34.17C91.6096 34.8467 91.0962 35.4533 90.4196 35.99C89.7429 36.5267 88.9029 36.9583 87.8996 37.285C86.8962 37.6117 85.7412 37.775 84.4346 37.775ZM96.1691 23.6H93.8941V19.4H96.1691V15.55H101.069V19.4H106.144V23.6H101.069V33.05H106.319V37.25H96.1691V23.6ZM117.853 37.775C116.453 37.775 115.146 37.53 113.933 37.04C112.743 36.55 111.704 35.885 110.818 35.045C109.954 34.1817 109.278 33.1783 108.788 32.035C108.298 30.8683 108.053 29.6317 108.053 28.325C108.053 27.0183 108.298 25.7933 108.788 24.65C109.278 23.4833 109.954 22.48 110.818 21.64C111.704 20.7767 112.743 20.1 113.933 19.61C115.146 19.12 116.453 18.875 117.853 18.875C119.253 18.875 120.548 19.12 121.738 19.61C122.928 20.1 123.954 20.7767 124.818 21.64C125.704 22.48 126.393 23.4833 126.883 24.65C127.396 25.7933 127.653 27.0183 127.653 28.325C127.653 29.6317 127.396 30.8683 126.883 32.035C126.393 33.1783 125.704 34.1817 124.818 35.045C123.954 35.885 122.928 36.55 121.738 37.04C120.548 37.53 119.253 37.775 117.853 37.775ZM117.853 33.575C118.506 33.575 119.113 33.4467 119.673 33.19C120.256 32.9333 120.758 32.5833 121.178 32.14C121.621 31.6733 121.959 31.125 122.193 30.495C122.449 29.8417 122.578 29.1183 122.578 28.325C122.578 27.5317 122.449 26.82 122.193 26.19C121.959 25.5367 121.621 24.9883 121.178 24.545C120.758 24.0783 120.256 23.7167 119.673 23.46C119.113 23.2033 118.506 23.075 117.853 23.075C117.199 23.075 116.581 23.2033 115.998 23.46C115.438 23.7167 114.936 24.0783 114.493 24.545C114.073 24.9883 113.734 25.5367 113.478 26.19C113.244 26.82 113.128 27.5317 113.128 28.325C113.128 29.1183 113.244 29.8417 113.478 30.495C113.734 31.125 114.073 31.6733 114.493 32.14C114.936 32.5833 115.438 32.9333 115.998 33.19C116.581 33.4467 117.199 33.575 117.853 33.575ZM130.465 19.4H135.365V21.85H135.54C135.843 21.29 136.24 20.8 136.73 20.38C137.15 20.0067 137.687 19.6683 138.34 19.365C138.993 19.0383 139.81 18.875 140.79 18.875C141.933 18.875 142.878 19.05 143.625 19.4C144.395 19.75 145.013 20.135 145.48 20.555C146.017 21.045 146.437 21.5933 146.74 22.2H146.915C147.218 21.5933 147.638 21.045 148.175 20.555C148.642 20.135 149.225 19.75 149.925 19.4C150.648 19.05 151.57 18.875 152.69 18.875C154.813 18.875 156.482 19.5167 157.695 20.8C158.908 22.06 159.515 23.9267 159.515 26.4V37.25H154.615V26.925C154.615 25.595 154.323 24.6267 153.74 24.02C153.157 23.39 152.34 23.075 151.29 23.075C150.24 23.075 149.33 23.4833 148.56 24.3C147.813 25.1167 147.44 26.225 147.44 27.625V37.25H142.54V26.925C142.54 25.595 142.248 24.6267 141.665 24.02C141.082 23.39 140.265 23.075 139.215 23.075C138.165 23.075 137.255 23.4833 136.485 24.3C135.738 25.1167 135.365 26.225 135.365 27.625V37.25H130.465V19.4ZM171.75 37.775C170.397 37.775 169.125 37.53 167.935 37.04C166.768 36.55 165.753 35.885 164.89 35.045C164.027 34.1817 163.35 33.1783 162.86 32.035C162.37 30.8683 162.125 29.6317 162.125 28.325C162.125 27.0183 162.37 25.7933 162.86 24.65C163.35 23.4833 164.027 22.48 164.89 21.64C165.753 20.7767 166.768 20.1 167.935 19.61C169.125 19.12 170.397 18.875 171.75 18.875C173.15 18.875 174.422 19.12 175.565 19.61C176.732 20.1 177.735 20.7767 178.575 21.64C179.415 22.5033 180.057 23.5067 180.5 24.65C180.967 25.7933 181.2 27.0183 181.2 28.325V29.375H167.2C167.293 29.935 167.468 30.4717 167.725 30.985C168.005 31.4983 168.343 31.9533 168.74 32.35C169.16 32.7233 169.627 33.0267 170.14 33.26C170.653 33.47 171.19 33.575 171.75 33.575C172.543 33.575 173.185 33.47 173.675 33.26C174.188 33.0267 174.608 32.7817 174.935 32.525C175.285 32.2217 175.565 31.8717 175.775 31.475H181.025C180.652 32.6417 180.068 33.6917 179.275 34.625C178.925 35.0217 178.517 35.4067 178.05 35.78C177.583 36.1533 177.047 36.4917 176.44 36.795C175.833 37.0983 175.133 37.3317 174.34 37.495C173.57 37.6817 172.707 37.775 171.75 37.775ZM175.95 26.4C175.857 25.9567 175.693 25.5367 175.46 25.14C175.227 24.7433 174.923 24.3933 174.55 24.09C174.2 23.7867 173.78 23.5417 173.29 23.355C172.823 23.1683 172.31 23.075 171.75 23.075C170.607 23.075 169.65 23.4133 168.88 24.09C168.133 24.7433 167.632 25.5133 167.375 26.4H175.95ZM199.246 37.55C198.686 37.55 198.206 37.4633 197.806 37.29C197.419 37.13 197.093 36.95 196.826 36.75C196.519 36.51 196.259 36.2433 196.046 35.95H195.946V37.25H193.146V23.25H195.946V28.35H196.046C196.259 28.0567 196.519 27.79 196.826 27.55C197.093 27.35 197.419 27.17 197.806 27.01C198.206 26.8367 198.686 26.75 199.246 26.75C199.899 26.75 200.506 26.8767 201.066 27.13C201.639 27.3833 202.139 27.7433 202.566 28.21C202.993 28.6767 203.326 29.2433 203.566 29.91C203.819 30.5767 203.946 31.3233 203.946 32.15C203.946 32.9767 203.819 33.7233 203.566 34.39C203.326 35.0567 202.993 35.6233 202.566 36.09C202.139 36.5567 201.639 36.9167 201.066 37.17C200.506 37.4233 199.899 37.55 199.246 37.55ZM198.546 35.15C199.253 35.15 199.846 34.89 200.326 34.37C200.806 33.85 201.046 33.11 201.046 32.15C201.046 31.19 200.806 30.45 200.326 29.93C199.846 29.41 199.253 29.15 198.546 29.15C197.786 29.15 197.159 29.41 196.666 29.93C196.186 30.45 195.946 31.19 195.946 32.15C195.946 33.11 196.186 33.85 196.666 34.37C197.159 34.89 197.786 35.15 198.546 35.15ZM205.646 27.05H208.446V28.55H208.546C208.666 28.23 208.846 27.95 209.086 27.71C209.286 27.4967 209.553 27.3033 209.886 27.13C210.219 26.9433 210.639 26.85 211.146 26.85H212.346V29.55H210.846C210.086 29.55 209.493 29.7567 209.066 30.17C208.653 30.5833 208.446 31.1433 208.446 31.85V37.25H205.646V27.05ZM218.751 37.55C217.951 37.55 217.205 37.41 216.511 37.13C215.831 36.85 215.238 36.47 214.731 35.99C214.238 35.4967 213.851 34.9233 213.571 34.27C213.291 33.6033 213.151 32.8967 213.151 32.15C213.151 31.4033 213.291 30.7033 213.571 30.05C213.851 29.3833 214.238 28.81 214.731 28.33C215.238 27.8367 215.831 27.45 216.511 27.17C217.205 26.89 217.951 26.75 218.751 26.75C219.551 26.75 220.291 26.89 220.971 27.17C221.651 27.45 222.238 27.8367 222.731 28.33C223.238 28.81 223.631 29.3833 223.911 30.05C224.205 30.7033 224.351 31.4033 224.351 32.15C224.351 32.8967 224.205 33.6033 223.911 34.27C223.631 34.9233 223.238 35.4967 222.731 35.99C222.238 36.47 221.651 36.85 220.971 37.13C220.291 37.41 219.551 37.55 218.751 37.55ZM218.751 35.15C219.125 35.15 219.471 35.0767 219.791 34.93C220.125 34.7833 220.411 34.5833 220.651 34.33C220.905 34.0633 221.098 33.75 221.231 33.39C221.378 33.0167 221.451 32.6033 221.451 32.15C221.451 31.6967 221.378 31.29 221.231 30.93C221.098 30.5567 220.905 30.2433 220.651 29.99C220.411 29.7233 220.125 29.5167 219.791 29.37C219.471 29.2233 219.125 29.15 218.751 29.15C218.378 29.15 218.025 29.2233 217.691 29.37C217.371 29.5167 217.085 29.7233 216.831 29.99C216.591 30.2433 216.398 30.5567 216.251 30.93C216.118 31.29 216.051 31.6967 216.051 32.15C216.051 32.6033 216.118 33.0167 216.251 33.39C216.398 33.75 216.591 34.0633 216.831 34.33C217.085 34.5833 217.371 34.7833 217.691 34.93C218.025 35.0767 218.378 35.15 218.751 35.15ZM225.958 23.25H228.758V30.85H229.958L232.658 27.05H235.758L232.458 31.75L236.058 37.25H232.858L230.258 33.25H228.758V37.25H225.958V23.25ZM241.347 37.55C240.573 37.55 239.847 37.41 239.167 37.13C238.5 36.85 237.92 36.47 237.427 35.99C236.933 35.4967 236.547 34.9233 236.267 34.27C235.987 33.6033 235.847 32.8967 235.847 32.15C235.847 31.4033 235.987 30.7033 236.267 30.05C236.547 29.3833 236.933 28.81 237.427 28.33C237.92 27.8367 238.5 27.45 239.167 27.17C239.847 26.89 240.573 26.75 241.347 26.75C242.147 26.75 242.873 26.89 243.527 27.17C244.193 27.45 244.767 27.8367 245.247 28.33C245.727 28.8233 246.093 29.3967 246.347 30.05C246.613 30.7033 246.747 31.4033 246.747 32.15V32.75H238.747C238.8 33.07 238.9 33.3767 239.047 33.67C239.207 33.9633 239.4 34.2233 239.627 34.45C239.867 34.6633 240.133 34.8367 240.427 34.97C240.72 35.09 241.027 35.15 241.347 35.15C241.8 35.15 242.167 35.09 242.447 34.97C242.74 34.8367 242.98 34.6967 243.167 34.55C243.367 34.3767 243.527 34.1767 243.647 33.95H246.647C246.433 34.6167 246.1 35.2167 245.647 35.75C245.447 35.9767 245.213 36.1967 244.947 36.41C244.68 36.6233 244.373 36.8167 244.027 36.99C243.68 37.1633 243.28 37.2967 242.827 37.39C242.387 37.4967 241.893 37.55 241.347 37.55ZM243.747 31.05C243.693 30.7967 243.6 30.5567 243.467 30.33C243.333 30.1033 243.16 29.9033 242.947 29.73C242.747 29.5567 242.507 29.4167 242.227 29.31C241.96 29.2033 241.667 29.15 241.347 29.15C240.693 29.15 240.147 29.3433 239.707 29.73C239.28 30.1033 238.993 30.5433 238.847 31.05H243.747ZM248.439 27.05H251.239V28.55H251.339C251.459 28.23 251.639 27.95 251.879 27.71C252.079 27.4967 252.346 27.3033 252.679 27.13C253.012 26.9433 253.432 26.85 253.939 26.85H255.139V29.55H253.639C252.879 29.55 252.286 29.7567 251.859 30.17C251.446 30.5833 251.239 31.1433 251.239 31.85V37.25H248.439V27.05Z" fill="#111318"/>
<path d="M2.235 76.5H1.02V66H2.325V74.325L7.95 66H9.165V76.5H7.86V68.175L2.235 76.5ZM16.5557 72.045V68.85H17.7857V76.5H16.5557V73.17H12.2507V76.5H11.0207V68.85H12.2507V72.045H16.5557ZM22.9078 76.59C20.6728 76.59 19.2028 75.075 19.2028 72.69C19.2028 70.35 20.7178 68.76 22.9378 68.76C24.8128 68.76 25.9978 69.81 26.3128 71.49H25.0228C24.7978 70.47 24.0478 69.855 22.9228 69.855C21.4528 69.855 20.4628 71.025 20.4628 72.69C20.4628 74.355 21.4528 75.495 22.9228 75.495C24.0178 75.495 24.7678 74.865 25.0078 73.89H26.3128C26.0128 75.54 24.7678 76.59 22.9078 76.59ZM30.713 76.5H29.483V69.975H26.723V68.85H33.473V69.975H30.713V76.5ZM38.3425 68.76C40.4575 68.76 42.0175 70.185 42.0175 72.675C42.0175 75.015 40.4575 76.59 38.3425 76.59C37.0525 76.59 36.1825 76.065 35.7175 75.33V79.5H34.4875V68.85H35.5525L35.7175 70.08C36.2275 69.375 37.0525 68.76 38.3425 68.76ZM38.2225 75.495C39.7375 75.495 40.7575 74.34 40.7575 72.675C40.7575 71.01 39.7375 69.855 38.2225 69.855C36.7225 69.855 35.7025 71.01 35.7025 72.645C35.7025 74.325 36.7225 75.495 38.2225 75.495ZM45.2475 76.545L42.2625 68.85H43.5675L45.9225 74.955L48.2025 68.85H49.5075L45.9825 77.79C45.5025 79.02 45.2175 79.5 44.1375 79.5H42.6675V78.375H43.7625C44.4675 78.375 44.5875 78.195 44.8725 77.475L45.2475 76.545ZM51.61 76.5H50.425V68.85H51.94L54.88 75L57.775 68.85H59.245L59.275 76.5H58.09V70.725L55.345 76.5H54.355L51.61 70.725V76.5ZM64.4822 76.59C62.1872 76.59 60.6872 75.015 60.6872 72.675C60.6872 70.35 62.1572 68.76 64.3172 68.76C66.4772 68.76 67.8872 70.125 67.9472 72.39C67.9472 72.555 67.9322 72.735 67.9172 72.915H61.9772V73.02C62.0222 74.475 62.9372 75.495 64.3922 75.495C65.4722 75.495 66.3122 74.925 66.5672 73.935H67.8122C67.5122 75.465 66.2522 76.59 64.4822 76.59ZM62.0522 71.895H66.6272C66.5072 70.575 65.6072 69.84 64.3322 69.84C63.2072 69.84 62.1722 70.65 62.0522 71.895ZM74.8857 72.045V68.85H76.1157V76.5H74.8857V73.17H70.5807V76.5H69.3507V68.85H70.5807V72.045H74.8857ZM81.1622 76.5H79.9322V69.975H77.1722V68.85H83.9222V69.975H81.1622V76.5ZM88.1167 76.5H84.9367V68.85H86.1667V71.34H88.1167C90.0217 71.34 91.1167 72.285 91.1167 73.92C91.1167 75.54 90.0217 76.5 88.1167 76.5ZM93.5917 76.5H92.3617V68.85H93.5917V76.5ZM86.1667 72.39V75.45H87.9217C89.1817 75.45 89.8717 74.895 89.8717 73.92C89.8717 72.915 89.1817 72.39 87.9217 72.39H86.1667ZM105.969 68.85V75.375H107.184V78.525H105.954V76.5H99.7143V78.525H98.4843V75.375H99.2643C99.8193 74.955 100.119 74.415 100.119 72.045V68.85H105.969ZM100.749 75.375H104.739V69.975H101.319V72.18C101.319 73.935 101.124 74.79 100.749 75.375ZM108.321 76.5H107.901V75.375H108.126C108.996 75.375 109.326 74.85 109.326 72.555V68.85H115.116V76.5H113.886V69.975H110.526V72.6C110.526 75.645 109.806 76.5 108.321 76.5ZM119.482 68.85H122.842V76.5H121.612V73.875H119.572L117.697 76.5H116.257L118.357 73.71C117.127 73.44 116.452 72.6 116.452 71.37C116.452 69.795 117.547 68.85 119.482 68.85ZM119.512 72.81H121.612V69.9H119.512C118.357 69.9 117.697 70.395 117.697 71.34C117.697 72.33 118.357 72.81 119.512 72.81ZM2.07 93.5H0.84V85.85H7.455V93.5H6.225V86.975H2.07V93.5ZM12.986 85.76C15.101 85.76 16.661 87.185 16.661 89.675C16.661 92.015 15.101 93.59 12.986 93.59C11.696 93.59 10.826 93.065 10.361 92.33V96.5H9.13102V85.85H10.196L10.361 87.08C10.871 86.375 11.696 85.76 12.986 85.76ZM12.866 92.495C14.381 92.495 15.401 91.34 15.401 89.675C15.401 88.01 14.381 86.855 12.866 86.855C11.366 86.855 10.346 88.01 10.346 89.645C10.346 91.325 11.366 92.495 12.866 92.495ZM21.5916 93.59C19.3566 93.59 17.7966 92 17.7966 89.675C17.7966 87.35 19.3566 85.76 21.5916 85.76C23.8266 85.76 25.3866 87.35 25.3866 89.675C25.3866 92 23.8266 93.59 21.5916 93.59ZM21.5916 92.495C23.1066 92.495 24.1266 91.31 24.1266 89.675C24.1266 88.04 23.1066 86.855 21.5916 86.855C20.0766 86.855 19.0566 88.04 19.0566 89.675C19.0566 91.31 20.0766 92.495 21.5916 92.495ZM32.077 96.5H30.877V93.56C28.252 93.5 26.527 92 26.527 89.675C26.527 87.38 28.267 85.865 30.877 85.79V83.24H32.077V85.79C34.687 85.865 36.412 87.35 36.412 89.675C36.412 91.97 34.687 93.5 32.077 93.56V96.5ZM30.877 92.48V86.87C29.002 86.915 27.787 87.95 27.787 89.675C27.787 91.4 29.002 92.435 30.877 92.48ZM32.062 86.87V92.48C33.952 92.435 35.152 91.4 35.152 89.675C35.152 87.95 33.952 86.915 32.062 86.87ZM41.3523 93.59C39.0573 93.59 37.5573 92.015 37.5573 89.675C37.5573 87.35 39.0273 85.76 41.1873 85.76C43.3473 85.76 44.7573 87.125 44.8173 89.39C44.8173 89.555 44.8023 89.735 44.7873 89.915H38.8473V90.02C38.8923 91.475 39.8073 92.495 41.2623 92.495C42.3423 92.495 43.1823 91.925 43.4373 90.935H44.6823C44.3823 92.465 43.1223 93.59 41.3523 93.59ZM38.9223 88.895H43.4973C43.3773 87.575 42.4773 86.84 41.2023 86.84C40.0773 86.84 39.0423 87.65 38.9223 88.895ZM49.6559 93.59C47.4209 93.59 45.9509 92.075 45.9509 89.69C45.9509 87.35 47.4659 85.76 49.6859 85.76C51.5609 85.76 52.7459 86.81 53.0609 88.49H51.7709C51.5459 87.47 50.7959 86.855 49.6709 86.855C48.2009 86.855 47.2109 88.025 47.2109 89.69C47.2109 91.355 48.2009 92.495 49.6709 92.495C50.7659 92.495 51.5159 91.865 51.7559 90.89H53.0609C52.7609 92.54 51.5159 93.59 49.6559 93.59ZM57.6832 93.59C55.4482 93.59 53.9782 92.075 53.9782 89.69C53.9782 87.35 55.4932 85.76 57.7132 85.76C59.5882 85.76 60.7732 86.81 61.0882 88.49H59.7982C59.5732 87.47 58.8232 86.855 57.6982 86.855C56.2282 86.855 55.2382 88.025 55.2382 89.69C55.2382 91.355 56.2282 92.495 57.6982 92.495C58.7932 92.495 59.5432 91.865 59.7832 90.89H61.0882C60.7882 92.54 59.5432 93.59 57.6832 93.59ZM63.5167 93.5H62.4367V85.85H63.6367V91.64L68.1967 85.85H69.2767V93.5H68.0767V87.695L63.5167 93.5ZM74.4871 93.59C72.2521 93.59 70.6921 92 70.6921 89.675C70.6921 87.35 72.2521 85.76 74.4871 85.76C76.7221 85.76 78.2821 87.35 78.2821 89.675C78.2821 92 76.7221 93.59 74.4871 93.59ZM74.4871 92.495C76.0021 92.495 77.0221 91.31 77.0221 89.675C77.0221 88.04 76.0021 86.855 74.4871 86.855C72.9721 86.855 71.9521 88.04 71.9521 89.675C71.9521 91.31 72.9721 92.495 74.4871 92.495ZM85.2275 89.045V85.85H86.4575V93.5H85.2275V90.17H80.9225V93.5H79.6925V85.85H80.9225V89.045H85.2275ZM94.9097 92.375H95.2997V93.5H94.6247C93.6047 93.5 93.2597 93.065 93.2447 92.315C92.7647 93.005 91.9997 93.59 90.6797 93.59C88.9997 93.59 87.8597 92.75 87.8597 91.355C87.8597 89.825 88.9247 88.97 90.9347 88.97H93.1847V88.445C93.1847 87.455 92.4797 86.855 91.2797 86.855C90.1997 86.855 89.4797 87.365 89.3297 88.145H88.0997C88.2797 86.645 89.4947 85.76 91.3397 85.76C93.2897 85.76 94.4147 86.735 94.4147 88.52V91.865C94.4147 92.27 94.5647 92.375 94.9097 92.375ZM93.1847 90.38V90.005H90.8147C89.7197 90.005 89.1047 90.41 89.1047 91.28C89.1047 92.03 89.7497 92.54 90.7697 92.54C92.2997 92.54 93.1847 91.655 93.1847 90.38ZM96.2804 93.5H95.8604V92.375H96.0854C96.9554 92.375 97.2854 91.85 97.2854 89.555V85.85H103.075V93.5H101.845V86.975H98.4854V89.6C98.4854 92.645 97.7654 93.5 96.2804 93.5ZM108.041 93.5H104.756V85.85H105.986V88.34H108.041C109.946 88.34 111.041 89.285 111.041 90.92C111.041 92.54 109.946 93.5 108.041 93.5ZM105.986 89.39V92.45H107.846C109.106 92.45 109.796 91.895 109.796 90.92C109.796 89.915 109.106 89.39 107.846 89.39H105.986ZM117.908 89.045V85.85H119.138V93.5H117.908V90.17H113.603V93.5H112.373V85.85H113.603V89.045H117.908ZM124.005 93.5H120.825V85.85H122.055V88.34H124.005C125.91 88.34 127.005 89.285 127.005 90.92C127.005 92.54 125.91 93.5 124.005 93.5ZM129.48 93.5H128.25V85.85H129.48V93.5ZM122.055 89.39V92.45H123.81C125.07 92.45 125.76 91.895 125.76 90.92C125.76 89.915 125.07 89.39 123.81 89.39H122.055ZM130.357 93.5L133.267 89.57L130.552 85.85H132.022L134.047 88.685L136.102 85.85H137.497L134.767 89.57L137.692 93.5H136.222L133.987 90.425L131.752 93.5H130.357ZM145.925 93.59C143.69 93.59 142.22 92.075 142.22 89.69C142.22 87.35 143.735 85.76 145.955 85.76C147.83 85.76 149.015 86.81 149.33 88.49H148.04C147.815 87.47 147.065 86.855 145.94 86.855C144.47 86.855 143.48 88.025 143.48 89.69C143.48 91.355 144.47 92.495 145.94 92.495C147.035 92.495 147.785 91.865 148.025 90.89H149.33C149.03 92.54 147.785 93.59 145.925 93.59ZM153.731 93.5H152.501V86.975H149.741V85.85H156.491V86.975H153.731V93.5ZM160.591 93.59C158.356 93.59 156.796 92 156.796 89.675C156.796 87.35 158.356 85.76 160.591 85.76C162.826 85.76 164.386 87.35 164.386 89.675C164.386 92 162.826 93.59 160.591 93.59ZM160.591 92.495C162.106 92.495 163.126 91.31 163.126 89.675C163.126 88.04 162.106 86.855 160.591 86.855C159.076 86.855 158.056 88.04 158.056 89.675C158.056 91.31 159.076 92.495 160.591 92.495ZM166.981 93.5H165.796V85.85H167.311L170.251 92L173.146 85.85H174.616L174.646 93.5H173.461V87.725L170.716 93.5H169.726L166.981 87.725V93.5ZM183.093 92.375H183.483V93.5H182.808C181.788 93.5 181.443 93.065 181.428 92.315C180.948 93.005 180.183 93.59 178.863 93.59C177.183 93.59 176.043 92.75 176.043 91.355C176.043 89.825 177.108 88.97 179.118 88.97H181.368V88.445C181.368 87.455 180.663 86.855 179.463 86.855C178.383 86.855 177.663 87.365 177.513 88.145H176.283C176.463 86.645 177.678 85.76 179.523 85.76C181.473 85.76 182.598 86.735 182.598 88.52V91.865C182.598 92.27 182.748 92.375 183.093 92.375ZM181.368 90.38V90.005H178.998C177.903 90.005 177.288 90.41 177.288 91.28C177.288 92.03 177.933 92.54 178.953 92.54C180.483 92.54 181.368 91.655 181.368 90.38ZM187.29 93.5H186.06V86.975H183.3V85.85H190.05V86.975H187.29V93.5ZM194.15 93.59C191.915 93.59 190.355 92 190.355 89.675C190.355 87.35 191.915 85.76 194.15 85.76C196.385 85.76 197.945 87.35 197.945 89.675C197.945 92 196.385 93.59 194.15 93.59ZM194.15 92.495C195.665 92.495 196.685 91.31 196.685 89.675C196.685 88.04 195.665 86.855 194.15 86.855C192.635 86.855 191.615 88.04 191.615 89.675C191.615 91.31 192.635 92.495 194.15 92.495ZM198.746 93.5H198.326V92.375H198.551C199.421 92.375 199.751 91.85 199.751 89.555V85.85H205.541V93.5H204.311V86.975H200.951V89.6C200.951 92.645 200.231 93.5 198.746 93.5ZM210.747 93.59C208.512 93.59 206.952 92 206.952 89.675C206.952 87.35 208.512 85.76 210.747 85.76C212.982 85.76 214.542 87.35 214.542 89.675C214.542 92 212.982 93.59 210.747 93.59ZM210.747 92.495C212.262 92.495 213.282 91.31 213.282 89.675C213.282 88.04 212.262 86.855 210.747 86.855C209.232 86.855 208.212 88.04 208.212 89.675C208.212 91.31 209.232 92.495 210.747 92.495ZM217.182 93.5H215.952V85.85H220.857V86.975H217.182V93.5ZM224.956 93.59C222.721 93.59 221.161 92 221.161 89.675C221.161 87.35 222.721 85.76 224.956 85.76C227.191 85.76 228.751 87.35 228.751 89.675C228.751 92 227.191 93.59 224.956 93.59ZM224.956 92.495C226.471 92.495 227.491 91.31 227.491 89.675C227.491 88.04 226.471 86.855 224.956 86.855C223.441 86.855 222.421 88.04 222.421 89.675C222.421 91.31 223.441 92.495 224.956 92.495ZM233.461 93.5H230.161V85.85H233.416C235.306 85.85 236.221 86.585 236.221 87.905C236.221 88.865 235.591 89.39 234.961 89.54C235.846 89.675 236.506 90.23 236.506 91.28C236.506 92.765 235.456 93.5 233.461 93.5ZM231.391 86.9V89.105H233.521C234.541 89.105 234.976 88.685 234.976 87.995C234.976 87.26 234.541 86.9 233.521 86.9H231.391ZM231.391 90.125V92.45H233.641C234.691 92.45 235.261 92.09 235.261 91.295C235.261 90.545 234.691 90.125 233.641 90.125H231.391Z" fill="#A7A7B3"/>
</svg>
