<svg width="151" height="93" viewBox="0 0 151 93" fill="none" xmlns="http://www.w3.org/2000/svg">
<path fill-rule="evenodd" clip-rule="evenodd" d="M8.70008 -67.2081C11.2865 -65.0418 15.0506 -61.3351 17.0014 -59.005C19.003 -56.662 21.5739 -53.3647 22.7388 -51.7734C23.9417 -50.1186 25.6503 -47.4713 26.6121 -45.9313C27.5103 -44.3534 29.3569 -40.9687 30.5956 -38.386C31.8472 -35.8541 33.6409 -31.618 34.4984 -29.0234C35.4068 -26.4161 36.6408 -21.8889 37.3321 -18.8499C37.9855 -15.8746 38.6849 -10.9419 38.8935 -7.91671C39.1021 -4.8915 39.1665 -0.0111148 39.0704 2.93716C38.9235 5.87261 38.3779 10.8152 37.9001 13.9913C37.4351 17.1167 36.4196 21.9947 35.714 24.7891C35.0085 27.5835 33.5354 32.5621 32.384 35.8385C31.2327 39.1148 29.3271 44.3085 28.049 47.4448C26.8346 50.5431 25.0332 54.6822 24.1389 56.7263C23.2067 58.7068 21.4699 62.3758 20.2314 64.9276C18.9549 67.4157 16.3896 72.2267 14.4503 75.6283C12.5238 78.9792 9.57578 84.4502 7.87808 87.7507C6.1932 91.0004 4.05986 95.8124 3.07526 98.4282C1.89876 101.59 1.20605 104.334 0.932977 106.913C0.724573 109.022 0.641296 111.92 0.764841 113.356C0.888385 114.793 1.18783 117.03 1.46426 118.289C1.74069 119.548 2.39618 121.659 2.87575 122.969C3.35532 124.279 4.78437 126.964 5.99902 129C7.21368 131.036 9.16341 133.798 10.3417 135.123C11.4563 136.485 13.5221 138.574 14.942 139.797C16.3619 141.02 18.5553 142.817 19.887 143.748C21.2187 144.679 23.2737 145.954 24.4664 146.58C25.6211 147.141 27.791 148.176 29.2884 148.878C30.7478 149.517 34.7086 150.733 38.0605 151.579C41.4123 152.426 45.8949 153.287 48.1048 153.521C50.264 153.742 54.4814 153.942 57.4542 153.936C60.427 153.93 70.9984 153.356 80.9983 152.692C90.9602 151.965 101.926 151.328 105.381 151.336C108.786 151.331 114.109 151.432 117.195 151.617C120.244 151.738 125.261 152.194 128.322 152.48C131.32 152.805 137.771 153.785 142.622 154.685C147.955 155.6 156.513 157.652 164.55 159.844C171.774 161.83 180.533 164.582 184.074 165.962C187.564 167.33 193.377 169.77 197.006 171.443C200.585 173.103 205.521 175.593 208.033 176.984C210.507 178.311 217.04 182.176 222.635 185.48C228.179 188.772 234.979 192.651 237.745 194.106C240.473 195.497 245.282 197.63 248.456 198.756C252.467 200.201 255.666 201.008 259.362 201.563C262.232 201.964 266.779 202.355 269.51 202.45C272.242 202.545 279.217 202.307 285.023 201.989C290.843 201.621 298.263 201.333 301.566 201.302C304.831 201.207 307.665 201.112 307.868 200.947C308.008 200.821 307.234 200.679 306.065 200.6C304.846 200.508 301.111 200.538 297.68 200.645C294.199 200.739 288.176 201.056 284.275 201.314C280.337 201.508 274.822 201.738 272.015 201.731C269.156 201.712 264.838 201.487 262.412 201.252C259.897 200.942 254.932 199.85 251.162 198.736C246.274 197.34 242.834 195.985 239.117 194.02C236.198 192.526 229.208 188.545 223.538 185.114C217.804 181.72 210.724 177.663 207.73 176.042C204.685 174.409 199.838 171.996 196.945 170.617C193.988 169.276 188.962 167.142 185.713 165.89C182.413 164.624 178.313 163.102 176.574 162.501C174.784 161.887 168.792 160.158 163.231 158.646C157.671 157.134 150.078 155.325 146.421 154.618C142.7 153.949 138.052 153.099 136.084 152.764C134.052 152.468 129.34 151.872 125.593 151.521C121.795 151.157 114.974 150.785 110.401 150.712C105.789 150.574 100.822 150.563 99.3355 150.674C97.8108 150.722 88.9036 151.337 79.526 152.104C70.1104 152.807 60.2506 153.345 57.6209 153.275C54.9277 153.244 50.8756 153.031 48.5384 152.874C46.214 152.665 41.7694 151.867 38.7094 151.149C35.5987 150.417 31.2193 148.933 28.9858 147.937C26.7015 146.928 23.3774 145.116 21.6143 143.968C19.8004 142.807 17.2514 140.921 15.9202 139.774C14.5511 138.563 12.4346 136.462 11.1676 135.061C9.86263 133.596 7.71028 130.567 6.38176 128.34C5.01527 126.049 3.44828 122.627 2.89384 120.758C2.30145 118.824 1.69938 115.646 1.48814 113.701C1.20257 110.981 1.4115 108.655 2.26025 104.438C3.17314 99.9662 3.99204 97.5788 6.00993 93.2241C7.44035 90.1263 10.708 83.8173 13.3492 79.1335C15.9904 74.4498 19.3725 68.1156 20.8916 65.0943C22.4236 62.0221 24.8114 57.0582 26.1274 53.9856C27.5071 50.875 29.9483 44.8437 31.5342 40.4881C33.7723 34.4055 35.0535 29.9729 36.9541 21.5892C38.8676 13.1547 39.4742 9.25444 39.6879 4.98469C39.8225 1.884 39.8715 -2.58946 39.7757 -4.99167C39.6799 -7.39389 39.4467 -10.7496 39.2221 -12.4276C39.0104 -14.1565 38.2195 -18.0854 37.4523 -21.2517C36.7358 -24.4051 35.2864 -29.1488 34.2257 -31.7946C33.2157 -34.4276 31.004 -39.1476 29.3092 -42.2778C27.6524 -45.3444 25.1472 -49.544 23.8053 -51.5042C22.4127 -53.4772 19.2334 -57.3605 16.8137 -60.1874C14.3305 -62.9762 10.7187 -66.6445 8.76633 -68.3264C6.81396 -70.0084 4.93698 -71.347 4.59378 -71.2715C4.25058 -71.196 6.11368 -69.3745 8.70008 -67.2081ZM20.9801 -65.1345C22.1076 -63.823 24.8934 -60.093 27.1596 -56.8725C29.413 -53.6013 32.8293 -47.8746 34.6368 -44.1214C36.508 -40.4062 38.9085 -34.936 39.943 -31.9725C40.9904 -29.0598 42.3131 -24.4562 42.9291 -21.7605C43.5071 -19.1284 44.2963 -14.5514 44.6321 -11.6022C44.9808 -8.70374 45.2616 -4.0389 45.2928 -1.16661C45.2859 1.64206 45.1097 6.19147 44.8869 8.99965C44.6373 12.3416 43.5176 18.2742 41.5785 26.8103C39.3962 36.0956 37.6531 42.3573 35.0682 50.0277C33.1359 55.7551 30.5776 62.8919 29.4396 65.9014C28.2637 68.8472 26.8573 72.4915 26.3073 74.0281C25.7701 75.5139 24.53 78.7138 23.5331 81.1644C22.5998 83.577 20.8455 89.2413 19.7167 93.7123C17.9849 100.571 17.7134 102.502 17.7937 106.036C17.9023 108.387 18.3002 111.947 18.7397 114.057C19.2295 116.397 20.4543 119.462 22.0106 122.071C23.3135 124.4 25.5802 127.404 27.0504 128.856C28.4826 130.245 30.752 132.169 32.1724 133.176C33.5292 134.221 36.3583 135.854 38.5282 136.889C40.6473 137.91 44.8615 139.407 47.9466 140.24C50.9938 141.009 55.0443 141.869 56.924 142.128C58.7528 142.373 62.8301 142.7 65.9167 142.885C68.9526 143.057 76.2192 143.162 82.0505 143.175C87.8438 143.125 95.6059 143.193 99.3154 143.265C102.974 143.324 108.843 143.617 112.399 143.866C115.892 144.153 121.43 144.687 124.783 145.101C128.085 145.502 133.546 146.341 137 146.997C140.416 147.589 151.729 150.283 162.242 152.937C174.125 155.938 183.507 158.577 187.214 159.945C190.476 161.147 195.654 163.103 198.789 164.381C201.886 165.595 211.48 169.963 220.122 174.037C228.7 178.148 238.395 182.542 241.695 183.807C244.944 185.06 250.759 186.852 254.72 187.853C258.643 188.789 264.066 189.78 266.86 190.053C269.591 190.364 279.144 190.614 288.049 190.647C296.955 190.679 305.682 190.775 307.448 190.843C309.646 190.911 310.269 190.798 309.431 190.479C308.746 190.198 300.438 189.937 290.935 189.916C281.381 189.882 271.485 189.707 268.881 189.536C266.239 189.302 261.083 188.54 257.426 187.833C252.601 186.831 248.729 185.691 243.601 183.748C239.654 182.265 230.136 178.024 222.471 174.36C214.756 170.682 205.518 166.404 201.901 164.896C198.233 163.376 192.724 161.228 189.602 160.116C186.428 158.99 180.856 157.097 177.162 155.894C173.417 154.678 164.301 152.268 156.912 150.511C149.471 148.74 140.342 146.813 136.672 146.157C132.938 145.539 127.198 144.738 123.896 144.337C120.543 143.922 114.471 143.362 110.445 143.048C106.355 142.772 95.0868 142.467 85.4825 142.421C75.8145 142.412 65.766 142.198 63.1492 142.078C59.8593 141.842 55.4656 141.057 49.2189 139.48C41.0931 137.428 39.646 136.955 36.3096 134.977C34.1782 133.791 30.9572 131.356 29.0048 129.674C26.5836 127.495 24.6457 125.115 22.8996 122.188C21.0017 119.006 20.08 116.666 19.3897 113.194C18.8497 110.626 18.4652 106.8 18.5463 104.767C18.6409 102.466 19.3752 98.2741 20.4528 94.0063C21.4277 90.1449 23.732 82.944 25.5735 78.0044C27.4149 73.0647 29.1794 68.4299 29.4477 67.795C29.7797 67.1222 30.4446 65.3444 30.9818 63.8587C31.5319 62.3221 32.7725 58.9062 33.732 56.1759C34.7422 53.4584 36.9311 46.7148 38.6976 41.2158C40.4134 35.704 42.4264 28.1593 43.1848 24.5135C43.9053 20.8041 44.73 16.0401 45.002 13.8929C45.2868 11.6948 45.6379 8.37859 45.7822 6.5234C45.9393 4.61741 46.0247 0.855734 45.993 -1.80051C45.9234 -4.52039 45.6672 -8.85471 45.3939 -11.4098C45.1335 -14.0157 44.4827 -18.0714 43.9422 -20.4238C43.4145 -22.827 42.42 -26.591 41.7394 -28.8166C41.0208 -31.1058 39.4051 -35.4051 38.1546 -38.3691C36.8662 -41.3967 34.502 -46.1552 32.9335 -48.9292C31.3141 -51.7161 28.4411 -56.1707 26.5929 -58.9073C24.6811 -61.6059 22.3892 -64.7247 21.4264 -65.8325C20.4764 -66.9912 19.551 -67.8193 19.3602 -67.7054C19.1693 -67.5914 19.9034 -66.4332 20.9801 -65.1345ZM33.7933 -57.6838C36.2482 -53.7131 39.2715 -48.3559 40.5102 -45.7732C41.6854 -43.1525 43.6555 -38.3314 44.8798 -35.0497C46.0533 -31.7809 47.7289 -26.0072 48.5582 -22.2308C49.3875 -18.4544 50.227 -13.6485 50.4885 -11.4747C50.712 -9.36451 50.9822 -5.51306 51.0395 -2.95843C51.1604 -0.441781 51.0729 4.18408 50.8875 7.27195C50.715 10.309 50.156 15.5185 49.6397 18.847C49.187 22.1377 47.5932 29.7341 46.0667 35.7801C44.6038 41.7882 41.2043 55.2521 38.4474 65.7436C35.6642 76.5527 33.2381 86.8034 32.863 89.5732C32.5135 92.2413 32.2752 96.1805 32.3207 98.3539C32.3662 100.527 32.8149 104.099 33.2795 106.325C33.8078 108.512 34.9941 111.73 35.9554 113.486C36.8787 115.178 38.6258 117.673 39.8041 118.997C40.9316 120.309 42.8075 122.08 43.936 122.959C45.0138 123.826 47.4366 125.356 49.2761 126.415C51.0777 127.41 55.1518 129.034 58.3636 130.007C61.6642 131.056 66.7305 132.173 70.3753 132.715C73.7662 133.193 82.7713 134.115 90.3923 134.743C97.9626 135.357 106.587 136.075 109.534 136.387C112.493 136.648 118.5 137.462 122.869 138.132C127.238 138.803 134.476 140.09 139.06 140.977C143.58 141.902 155.35 144.712 165.241 147.263C176.909 150.263 186.887 153.107 193.45 155.358C199.073 157.265 210.18 161.42 218.125 164.615C226.121 167.823 234.828 171.21 237.544 172.22C240.273 173.179 246.303 174.972 250.912 176.19C255.482 177.344 260.447 178.435 261.857 178.629C263.33 178.785 266.162 179.122 268.207 179.368C270.214 179.55 273.072 179.785 274.571 179.839C276.006 179.932 284.632 180.002 293.69 180.073C302.697 180.131 310.854 180.137 311.781 180.101C313.039 180.04 312.849 179.938 310.804 179.692C309.343 179.485 301.111 179.352 292.523 179.346C283.884 179.327 273.849 179.063 270.241 178.8C266.367 178.525 260.03 177.519 255.116 176.441C250.088 175.387 243.981 173.683 240.008 172.302C236.276 171.035 229.524 168.466 224.93 166.549C220.373 164.696 214.002 162.115 210.753 160.862C207.453 159.596 203.264 157.998 201.322 157.346C199.431 156.706 197.654 156.041 197.425 155.876C197.146 155.697 193.198 154.43 188.692 153.022C184.134 151.601 171.019 148.128 159.592 145.243C146.896 142.037 135.608 139.457 130.732 138.658C126.274 137.911 119.023 136.891 114.577 136.309C110.082 135.714 102.867 134.974 98.5105 134.684C94.1157 134.331 87.0661 133.795 82.8873 133.442C78.6576 133.077 72.2565 132.325 68.7261 131.758C65.132 131.229 60.2817 130.113 57.9969 129.32C55.6613 128.514 52.2345 127.108 50.4073 126.214C48.5293 125.308 45.4345 123.229 43.4693 121.598C41.0983 119.648 39.1727 117.433 37.7934 115.193C36.6418 113.335 35.2641 110.447 34.6963 108.844C34.1413 107.191 33.4879 104.215 33.2767 102.27C33.0275 100.262 32.9349 96.5633 33.0171 94.0979C33.1923 89.9806 34.0272 86.246 41.8015 55.2408C49.4085 25.1121 50.5004 20.1453 51.0214 14.8722C51.3346 11.4923 51.6904 6.23162 51.7614 3.1689C51.8452 0.0553852 51.7183 -5.21913 51.4215 -8.53684C51.1883 -11.8925 50.3257 -17.677 49.4965 -21.4535C48.6672 -25.2299 47.0424 -30.9907 45.9196 -34.2467C44.7968 -37.5027 43.3073 -41.4459 42.6503 -42.9088C41.9553 -44.4355 40.8176 -46.7765 40.0841 -48.1507C39.4014 -49.5121 37.8205 -52.4514 36.6443 -54.64C35.4174 -56.8414 33.342 -60.1758 32.1268 -61.9959C30.8608 -63.8288 29.7082 -65.2548 29.5681 -65.128C29.4661 -64.9376 31.3255 -61.6037 33.7933 -57.6838ZM40.2735 -58.1014C41.602 -55.8743 43.9918 -51.2175 45.5208 -47.8589C47.1006 -44.4875 49.3739 -38.9413 50.5597 -35.5072C51.8092 -32.1111 53.4458 -25.969 54.2997 -21.8621C55.1664 -17.806 56.0776 -11.1445 56.3851 -7.01334C56.7055 -2.93304 56.7533 3.5105 56.5915 7.36096C56.3917 11.1478 55.7409 17.5771 55.1594 21.5918C54.5779 25.6066 53.4577 31.7552 52.7757 35.3122C52.0557 38.8055 50.6292 45.5254 49.6142 50.1873C48.612 54.7985 47.1973 61.8996 46.4635 65.8759C45.7804 69.865 44.9536 75.4932 44.6544 78.3902C44.3551 81.2872 44.1671 85.4553 44.187 87.7303C44.2197 89.9544 44.6929 93.8572 45.195 96.3619C45.7479 98.8796 46.946 102.479 47.8559 104.438C48.8167 106.41 50.5125 109.108 51.64 110.42C52.8054 111.795 54.3515 113.374 55.0614 113.986C55.835 114.56 57.5596 115.86 58.9549 116.753C60.3882 117.709 63.1413 119.215 65.1466 120.045C67.1898 120.94 72.3438 122.565 76.6606 123.655C81.0282 124.758 87.2502 126.004 90.5267 126.507C93.8668 126.972 97.8163 127.591 99.3784 127.824C100.991 128.069 102.972 128.353 103.811 128.456C104.712 128.522 109.944 129.41 115.494 130.325C121.094 131.253 130.377 133.002 136.129 134.184C141.919 135.43 153.41 138.061 161.638 140.138C169.928 142.177 181.863 145.407 188.197 147.276C194.57 149.21 201.591 151.361 203.736 152.064C205.932 152.781 210.21 154.239 213.193 155.263C216.227 156.299 223.297 158.679 228.882 160.521C234.506 162.427 241.742 164.579 244.942 165.387C248.192 166.207 253.576 167.35 257.005 167.892C260.471 168.497 265.882 169.106 269.07 169.317C272.309 169.54 277.619 169.692 280.859 169.699C284.162 169.668 293.526 169.168 301.658 168.627C309.854 168.048 316.322 167.465 316.043 167.287C315.815 167.121 309.144 167.437 301.292 167.94C293.477 168.507 284.227 168.982 280.772 168.974C277.354 169.03 271.841 168.827 268.437 168.616C265.096 168.367 259.584 167.732 256.117 167.127C252.701 166.535 246.175 164.995 241.592 163.676C237.047 162.42 230.725 160.5 227.551 159.374C224.416 158.313 220.291 156.893 218.348 156.24C216.457 155.6 213.969 154.756 212.89 154.322C211.849 153.951 208.816 152.915 206.162 152.082C203.573 151.212 198.266 149.548 194.42 148.307C190.612 147.129 174.64 142.989 158.934 139.077C139.343 134.293 127.331 131.584 120.347 130.361C114.797 129.447 104.409 127.797 97.2213 126.738C89.8173 125.68 81.0426 124.059 76.8273 122.995C72.5613 121.917 67.7249 120.318 65.2374 119.258C62.9152 118.185 59.6039 116.322 57.9172 115.085C56.2306 113.849 53.7965 111.721 52.4787 110.307C51.2117 108.906 49.3512 106.005 48.3782 103.867C47.4052 101.73 46.3455 98.6521 45.9809 97.1008C45.629 95.4987 45.205 92.2569 45.1092 89.8547C44.9627 87.4397 44.9855 83.2839 45.2078 80.6918C45.4429 78.0488 45.988 73.3223 46.4529 70.1969C46.9815 67.0336 47.896 61.9139 48.5133 58.827C49.1435 55.6893 50.531 49.3379 51.5331 44.7268C52.5481 40.0649 53.7694 34.1579 54.2456 31.6299C54.7347 29.0511 55.2889 25.7861 55.5337 24.3886C55.7405 22.9276 56.2327 19.0524 56.6346 15.749C56.9985 12.3819 57.3298 6.79071 57.4146 3.24509C57.4487 -0.313339 57.2843 -5.86755 56.9998 -9.02001C56.7281 -12.2233 55.8025 -18.1859 54.9358 -22.242C54.0819 -26.3489 52.2176 -32.8728 50.8296 -36.7903C49.4417 -40.7077 47.2444 -46.1267 45.9805 -48.8238C44.6659 -51.5338 42.453 -55.8216 41.0363 -58.3412C39.6196 -60.8607 38.3033 -62.9225 38.151 -62.961C38.0494 -62.9866 37.9093 -62.8599 37.9088 -62.6438C37.9083 -62.4277 38.9578 -60.3792 40.2735 -58.1014ZM45.8037 -59.6777C46.2212 -58.9777 47.9154 -55.6315 49.4953 -52.2601C51.0751 -48.8886 53.1847 -43.9783 54.1947 -41.3452C55.1538 -38.725 56.5663 -34.4771 57.3224 -31.9082C58.0784 -29.3393 59.1108 -25.5116 59.6011 -23.3881C60.0406 -21.2774 60.7673 -17.0945 61.1411 -14.0816C61.5656 -11.0559 61.9865 -6.51787 62.0946 -3.9504C62.2663 -1.42093 62.3055 3.34499 62.1832 6.61093C62.1245 9.83889 61.7179 15.0868 61.3925 18.3014C61.0291 21.4524 60.5882 25.1244 60.4199 26.433C60.2644 27.6909 59.3617 33.1918 58.421 38.6292C57.4932 44.0157 56.5258 49.9868 56.2164 51.8543C55.9198 53.671 55.4286 57.114 55.1181 59.4137C54.8076 61.7133 54.4031 66.097 54.2177 69.1849C54.0452 72.2219 53.9208 76.3521 54.0176 78.3222C54.1273 80.2415 54.3241 82.8854 54.4989 84.1186C54.6738 85.3518 55.1507 87.7421 55.4897 89.395C55.8667 91.1116 57.0659 94.2788 58.1276 96.4925C59.2402 98.7191 61.1258 101.735 62.38 103.187C63.685 104.651 66.2457 106.919 68.1099 108.309C70.0376 109.66 72.4476 111.242 73.4371 111.816C74.4903 112.352 77.0028 113.527 79.0081 114.357C81.077 115.15 87.2595 116.981 92.846 118.392C98.4324 119.802 109.162 122.241 116.603 123.795C124.107 125.312 142.911 129.789 158.414 133.649C173.967 137.522 193.671 142.713 202.228 145.198C210.848 147.645 225.779 151.631 235.377 154.054C249.75 157.683 254.004 158.595 258.97 159.038C262.348 159.351 268.23 159.593 272.079 159.538C275.967 159.546 281.151 159.342 283.54 159.08C285.993 158.781 290.962 157.928 294.559 157.161C298.207 156.406 302.911 155.108 305.022 154.235C307.171 153.427 310.605 151.808 312.564 150.681C314.714 149.44 317.095 147.501 318.254 146.119C319.719 144.381 320.587 142.654 321.266 140.394C321.92 138.018 322.154 136.024 321.932 133.265C321.772 131.117 321.02 126.82 320.253 123.654C319.536 120.5 316.93 110.924 314.473 102.467C312.029 93.9596 308.994 83.0867 307.76 78.3435C306.489 73.5367 304.363 64.839 303.018 59.0406C301.635 53.1787 299.738 44.4306 298.847 39.612C297.919 34.7296 296.692 27.3938 296.118 23.2494C295.556 19.0542 295.026 12.5968 294.933 8.89828C294.853 5.14896 294.734 1.98418 294.62 1.79328C294.544 1.66603 294.366 1.72915 294.302 1.98319C294.238 2.23723 294.206 4.93146 294.211 7.90536C294.217 10.8793 294.41 15.0356 294.62 17.1966C294.844 19.3067 295.418 23.4512 295.856 26.426C296.306 29.3501 297.107 34.3084 297.671 37.4234C298.286 40.5512 300.182 49.5152 301.967 57.4242C303.765 65.2824 306.029 74.7175 307.036 78.4308C308.005 82.0805 309.226 86.6584 309.768 88.5787C310.259 90.4862 311.733 95.5603 313.005 99.9351C314.291 104.259 315.966 110.033 316.735 112.767C317.567 115.463 318.85 120.651 319.654 124.313C320.471 127.924 321.172 132.209 321.231 133.899C321.253 135.526 320.979 138.321 320.543 140.049C319.914 142.538 319.225 143.77 317.48 145.761C316.257 147.182 313.622 149.273 311.599 150.437C309.576 151.602 305.926 153.221 303.447 154.054C301.031 154.849 296.862 155.958 294.167 156.575C291.536 157.154 287.202 157.843 284.584 158.155C282.017 158.48 277.392 158.825 274.393 158.933C271.395 159.04 266.25 158.876 262.858 158.615C259.518 158.366 254.323 157.757 251.314 157.267C248.355 156.79 238.832 154.494 230.186 152.149C221.591 149.817 210.228 146.678 204.947 145.128C199.729 143.54 183.428 139.208 168.763 135.452C154.15 131.708 134.178 126.936 124.438 124.855C114.75 122.787 100.517 119.464 92.7973 117.515C79.301 114.053 78.7044 113.848 74.1117 111.283C71.5109 109.816 67.9976 107.47 66.2606 106.004C64.5745 104.552 62.142 101.776 60.8889 99.892C59.585 97.9955 57.9795 94.7256 57.2096 92.6397C56.5034 90.5157 55.6858 87.1206 55.373 85.15C55.1238 83.1414 54.8537 79.29 54.7713 76.6209C54.7525 73.9138 54.9169 68.9831 55.1665 65.6412C55.4288 62.2485 56.7082 53.3296 58.0097 45.8216C59.2731 38.2498 60.7696 28.8994 61.2618 25.0242C61.8176 21.1111 62.4274 15.9145 62.6112 13.4748C62.8078 10.9842 62.983 6.8669 62.9636 4.37589C63.0079 1.84691 62.9415 -2.16927 62.7949 -4.58431C62.6483 -6.99936 62.3023 -10.978 62.0034 -13.4315C61.7044 -15.885 60.6885 -21.2759 59.7202 -25.3577C58.8155 -29.4774 57.1148 -35.3655 56.0043 -38.4562C54.9575 -41.585 52.6083 -47.2585 50.8264 -51.1133C49.0573 -55.0189 47.1738 -58.8993 46.6296 -59.7393C46.0474 -60.643 45.4518 -61.2798 45.261 -61.1658C45.1081 -60.9882 45.3225 -60.3396 45.8037 -59.6777ZM53.2799 -56.9793C53.8488 -55.8088 55.605 -51.8524 57.1079 -48.1762C58.6236 -44.5507 60.3659 -40.1114 60.9332 -38.2927C61.5133 -36.5249 62.7355 -32.379 63.5915 -29.1363C64.4475 -25.8936 65.5399 -20.5915 66.0404 -17.4385C66.5409 -14.2856 67.1516 -9.42941 67.3735 -6.67106C67.6083 -3.96351 67.7747 0.726479 67.7802 3.7004C67.7857 6.6743 67.6212 11.605 67.4358 14.6929C67.2633 17.73 66.5338 25.1123 65.7445 31.0202C65.0188 36.8901 64.0215 44.6912 63.5935 48.3123C63.1275 51.8698 62.6428 57.8546 62.4687 61.5398C62.3074 65.1742 62.4087 70.5504 62.6937 73.4868C62.9916 76.3724 63.908 80.8734 64.664 83.4423C65.5088 86.0877 67.2907 89.9425 68.7459 92.3096C70.214 94.626 72.2653 97.4138 73.3553 98.4457C74.3818 99.5155 76.6132 101.376 78.2619 102.549C79.847 103.76 83.0439 105.648 85.3025 106.759C87.5104 107.857 90.3657 109.172 91.584 109.696C92.7644 110.156 97.4992 111.73 102.069 113.1C106.576 114.508 139.003 122.803 174.071 131.549C209.189 140.308 239.052 147.632 240.462 147.825C241.922 148.032 245.313 148.51 248.031 148.872C250.799 149.247 254.47 149.687 256.172 149.792C257.925 149.911 262.016 149.971 265.217 149.914C268.419 149.858 273.502 149.412 276.539 148.936C279.589 148.409 283.492 147.502 285.272 146.871C287.09 146.303 289.977 145.14 291.745 144.344C293.512 143.547 296.35 141.723 298.056 140.316C299.902 138.783 301.94 136.487 303.037 134.71C304.096 132.87 305.233 130.076 305.848 127.853C306.387 125.719 306.841 121.997 306.885 119.468C306.929 116.939 306.724 112.401 306.364 109.338C306.003 106.274 305.04 100.032 304.174 95.5434C303.321 91.0044 299.603 73.4196 295.897 56.4321C292.191 39.4446 288.639 21.6313 288.053 16.8896C287.43 12.0842 286.834 6.31296 286.725 3.96156C286.604 1.66096 286.342 -0.29681 286.139 -0.348104C285.935 -0.399391 285.844 0.820463 285.929 2.40928C285.963 3.98527 286.322 7.91315 286.593 11.1164C286.929 14.2817 287.753 20.2186 288.454 24.2871C289.169 28.3047 292.698 45.1393 296.253 61.6563C299.871 78.1352 303.438 95.2495 304.177 99.5976C304.966 103.959 305.79 110.112 306.011 113.302C306.295 116.454 306.233 121.195 305.896 123.812C305.444 127.103 304.866 129.389 303.972 131.433C303.244 133.033 301.701 135.508 300.465 136.979C299.229 138.451 296.861 140.555 295.194 141.593C293.565 142.695 290.118 144.365 287.499 145.325C284.93 146.298 280.748 147.458 278.257 147.91C275.804 148.426 271.407 148.937 268.56 149.083C265.651 149.267 260.683 149.256 257.431 149.083C254.243 148.873 249.582 148.507 247.169 148.222C244.019 147.859 222.269 142.638 173.527 130.493C123.515 118.028 102.566 112.631 97.6917 110.968C94.0233 109.663 89.251 107.81 87.119 106.839C84.9871 105.868 82.0436 104.26 80.458 103.266C78.936 102.233 76.3999 100.295 74.8025 98.9192C73.2687 97.505 70.9506 94.7038 69.6344 92.642C68.369 90.5931 66.8768 87.7302 66.3342 86.242C65.7787 84.8047 64.9222 81.778 64.3939 79.5909C63.9293 77.3658 63.3919 73.7171 63.2068 71.4545C63.0854 69.1539 62.9938 65.0233 63.1022 62.2402C63.2235 59.4064 63.8887 52.2782 64.6145 46.4082C65.353 40.4875 66.3903 31.8858 66.9605 27.2737C67.48 22.6488 68.1191 15.8382 68.2804 12.2038C68.5053 8.53144 68.5451 2.59643 68.3761 -1.01331C68.2578 -4.61022 67.801 -10.0761 67.3893 -13.1526C67.0283 -16.2162 66.0129 -21.8232 65.1329 -25.6124C64.3036 -29.3889 62.5654 -35.5566 61.2405 -39.296C59.9793 -43.0734 57.6307 -48.963 56.1273 -52.4232C54.5859 -55.947 53.1702 -58.8986 52.9928 -59.0515C52.8153 -59.2044 52.5613 -59.2686 52.3833 -59.2054C52.2561 -59.1294 52.6475 -58.1118 53.2799 -56.9793ZM60.7161 -53.4804C61.6009 -51.6356 63.5326 -46.6621 64.9959 -42.4013C66.5228 -38.1785 68.4759 -31.5782 69.356 -27.789C70.2361 -23.9997 71.3038 -19.0281 71.6284 -16.6762C72.0166 -14.3623 72.5268 -9.96385 72.7862 -6.92584C73.0455 -3.88781 73.234 2.21293 73.2865 6.71203C73.3011 11.1475 72.9128 19.3185 72.4292 24.8712C71.9077 30.3604 71.3461 36.6501 71.112 38.8609C70.8908 41.0209 70.574 45.9132 70.3106 49.738C70.1108 53.5249 70.034 58.9641 70.1159 61.8492C70.2107 64.6836 70.67 69.0692 71.1721 71.574C71.6234 74.0659 72.6435 77.7284 73.4391 79.7128C74.2346 81.6972 75.4226 84.2671 76.1566 85.4252C76.827 86.6214 78.3464 88.7345 79.4482 90.1476C80.6008 91.5736 82.7045 93.7261 84.1623 95.013C85.6838 96.2619 88.5118 98.3271 90.5797 99.5518C92.6346 100.827 96.3142 102.729 98.6873 103.815C101.124 104.862 106.556 106.882 110.784 108.328C115.074 109.736 124.1 112.501 130.854 114.422C137.646 116.408 158.087 121.677 176.256 126.102C194.463 130.591 210.144 134.388 211.147 134.479C212.189 134.634 216.366 135.418 220.417 136.279C224.518 137.152 230.563 138.246 233.827 138.8C237.154 139.316 242.069 139.962 244.812 140.222C247.607 140.496 251.811 140.747 254.136 140.739C256.512 140.744 260.323 140.626 262.598 140.389C264.923 140.166 268.355 139.627 270.185 139.224C272.079 138.784 275.118 137.876 276.924 137.143C278.78 136.422 281.222 135.309 282.354 134.676C283.537 134.056 285.268 132.764 286.312 131.838C287.305 130.9 288.872 129.188 289.79 128.123C290.72 127.006 292.059 124.912 292.85 123.491C293.744 121.662 294.576 119.008 295.271 115.184C295.991 111.691 296.37 107.409 296.34 104.104C296.334 101.131 296.016 96.186 295.706 93.1352C295.345 90.0715 294.371 83.2319 293.482 77.9811C292.605 72.6795 289.404 56.9005 286.338 42.9391C283.285 28.927 280.46 15.0806 280.01 12.1565C279.573 9.18166 278.999 4.82118 278.802 2.39332C278.604 -0.0345364 278.394 -2.19552 278.318 -2.32279C278.254 -2.50085 278.051 -2.55213 277.861 -2.43819C277.683 -2.37503 277.865 0.751758 278.238 4.41278C278.661 8.08662 279.334 13.1209 279.786 15.6129C280.237 18.1048 282.699 29.5357 285.25 41.0431C287.814 52.4996 290.639 66.13 291.605 71.292C292.533 76.3904 293.696 83.7642 294.233 87.6289C294.732 91.43 295.277 96.9724 295.448 99.9339C295.669 102.908 295.595 107.483 295.347 110.177C295.15 112.884 294.633 116.212 294.274 117.635C293.928 119.007 292.905 121.559 292.037 123.285C291.131 124.948 289.423 127.435 288.213 128.805C287.015 130.124 285.054 131.899 283.858 132.786C282.674 133.622 279.927 135.09 277.752 136.001C275.628 136.924 271.534 138.16 268.687 138.738C265.904 139.278 261.392 139.815 258.661 139.936C255.993 140.019 251.254 139.957 248.167 139.772C245.144 139.55 239.099 138.888 234.781 138.23C230.514 137.585 222.057 135.99 215.949 134.718C209.905 133.409 186.251 127.599 163.296 121.803C135.465 114.776 118.96 110.392 113.438 108.512C108.944 107.053 103.169 104.892 100.58 103.806C98.042 102.733 94.0705 100.703 91.7108 99.3509C89.4019 98.0113 86.1804 95.7928 84.583 94.4166C83.0364 93.0533 80.7301 90.6334 79.4636 89.0166C78.2351 87.4633 76.7163 85.1342 76.0459 83.938C75.3883 82.6911 74.3399 80.2105 73.6582 78.417C73.0401 76.5855 72.1841 73.3428 71.7575 71.1813C71.3436 68.969 70.9104 64.2657 70.7921 60.6688C70.6739 57.0719 70.8538 51.0101 71.2059 47.2618C71.5201 43.4498 72.3168 34.5171 72.9185 27.4269C73.533 20.2858 74.0137 10.6789 74.0376 6.091C74.0235 1.43948 73.6346 -5.79281 73.1495 -10.0768C72.7153 -14.348 71.6512 -20.832 70.885 -24.4303C70.0809 -28.0923 68.6458 -33.535 67.6877 -36.5873C66.7425 -39.6904 64.9888 -44.7271 63.726 -47.8563C62.5268 -51.0235 61.0363 -54.5345 60.4674 -55.705C59.8606 -56.9392 59.2907 -57.6776 59.2646 -57.3599C59.2004 -57.1059 59.8441 -55.376 60.7161 -53.4804ZM67.5573 -50.8344C68.5677 -48.4174 70.347 -43.4823 71.5323 -39.8322C72.7177 -36.1821 74.3548 -30.256 75.1589 -26.594C75.9759 -22.9828 76.9544 -17.8717 77.3672 -15.2273C77.7421 -12.6465 78.2758 -7.48546 78.5464 -3.85008C78.8171 -0.214703 79.006 5.67 79.0227 9.24125C78.9886 12.7997 78.782 19.3952 78.5422 23.9826C78.2643 28.5064 77.931 34.9618 77.7195 38.3673C77.4699 41.7092 77.306 46.4239 77.3002 48.8005C77.2944 51.1771 77.3865 55.0916 77.5331 57.5067C77.6797 59.9217 78.0898 63.6463 78.5037 65.8586C78.9304 68.0201 80.0013 71.6954 80.8851 73.9723C81.7688 76.2492 83.5518 79.6719 84.8429 81.6193C86.1847 83.5795 88.3633 86.2913 89.7955 87.6798C91.2656 89.1319 93.1164 90.7882 93.9659 91.4891C94.879 92.152 96.718 93.4271 98.1133 94.3198C99.5594 95.2254 102.731 96.999 105.244 98.1739C107.794 99.4124 112.82 101.546 116.463 102.952C120.169 104.32 125.373 106.175 128.128 107.032C130.883 107.89 136.532 109.695 140.645 110.949C144.796 112.268 159.955 116.203 174.353 119.73C188.802 123.27 201.652 126.299 202.909 126.454C204.217 126.622 208.865 127.471 213.259 128.256C217.703 129.054 225.196 130.189 229.908 130.784C234.67 131.392 240.983 131.851 243.943 131.896C246.916 131.89 250.982 131.836 252.9 131.726C254.87 131.628 258.352 131.102 260.653 130.548C262.89 130.032 266.335 129.01 268.255 128.252C270.125 127.481 273.089 125.797 274.82 124.505C276.5 123.2 278.614 121.247 279.518 120.233C280.423 119.218 281.863 117.15 282.68 115.626C283.637 113.976 284.75 110.852 285.52 107.588C286.264 104.641 287.012 100.182 287.196 97.7422C287.341 95.2389 287.204 89.151 286.771 84.2316C286.389 79.3251 285.418 71.4052 284.616 66.663C283.815 61.9207 282.309 54.1903 281.228 49.4855C280.16 44.73 277.545 33.2606 275.459 23.9784C273.385 14.6454 271.339 4.56256 270.927 1.48606C270.566 -1.5776 270.217 -4.25995 270.141 -4.38723C270.129 -4.55246 269.926 -4.60375 269.786 -4.47699C269.608 -4.41383 269.892 -1.26139 270.366 2.42527C270.89 6.12477 272.27 13.499 273.4 18.8648C274.594 24.1925 276.669 33.0935 278.015 38.6757C279.424 44.22 281.108 51.6713 281.811 55.3076C282.526 58.8931 283.629 65.0086 284.318 68.9118C284.97 72.7514 285.741 79.5397 286.086 83.9505C286.393 88.2977 286.596 93.6994 286.514 95.9487C286.445 98.1472 285.888 102.492 285.258 105.63C284.409 109.848 283.73 112.108 282.48 114.495C281.548 116.259 280.043 118.582 279.139 119.596C278.234 120.611 276.121 122.563 274.44 123.869C272.697 125.212 269.682 126.883 267.698 127.679C265.778 128.437 262.332 129.459 260.108 129.924C257.934 130.402 254.516 130.89 252.533 131.038C250.615 131.149 246.816 131.216 244.123 131.185C241.493 131.115 236.133 130.735 232.196 130.281C228.296 129.891 220.423 128.768 214.733 127.764C209.032 126.811 198.378 124.715 191.051 123.136C183.725 121.556 169.987 118.196 160.516 115.696C151.044 113.197 141.751 110.634 139.809 109.982C137.917 109.342 134.211 108.19 131.57 107.307C128.968 106.488 124.182 104.901 120.844 103.788C117.569 102.637 112.403 100.63 109.281 99.3013C106.223 97.9346 101.908 95.7644 99.7139 94.3996C97.5701 93.0477 94.539 90.9312 93.0555 89.746C91.5719 88.5607 89.2528 86.1917 87.8848 84.5491C86.5295 82.8558 84.6055 79.992 83.5683 78.1087C82.5819 76.2383 81.2181 72.8674 80.5375 70.6418C79.8568 68.4162 79.0404 64.5889 78.6907 62.1226C78.3917 59.6691 78.0729 54.9407 78.0808 51.6999C78.0508 48.3955 78.3904 39.3474 78.8285 31.6214C79.2793 23.8445 79.6719 13.945 79.7204 9.68762C79.7309 5.3666 79.5302 -0.899389 79.2841 -4.20428C79.0001 -7.5728 78.6038 -11.7803 78.3669 -13.6237C78.1808 -15.4542 77.0264 -21.3665 75.7817 -26.707C74.6006 -32.0856 72.3711 -39.9447 70.8442 -44.1675C69.33 -48.4411 67.6384 -52.8676 67.0188 -54.0509C66.4628 -55.2722 65.8929 -56.0106 65.8159 -55.7058C65.8026 -55.4389 66.5468 -53.2513 67.5573 -50.8344ZM74.2974 -48.43C75.3833 -45.6697 76.9348 -41.1164 77.7539 -38.3694C78.5858 -35.6733 79.807 -31.0953 80.486 -28.2216C81.1779 -25.3986 82.2071 -20.2746 82.745 -16.842C83.2958 -13.4601 84.0408 -6.35413 84.4216 -1.01551C84.8153 4.27232 84.9808 14.5288 84.7726 21.7725C84.628 28.9781 84.4547 37.5818 84.4339 40.8733C84.3753 44.1013 84.5786 49.287 84.838 52.325C85.0974 55.3631 85.6466 59.393 86.0866 61.2877C86.5266 63.1823 87.4083 66.3234 88.153 68.2949C88.847 70.2537 90.3766 73.3962 91.5533 75.3687C92.692 77.2776 95.1491 80.3841 96.9993 82.2565C98.8496 84.1289 101.068 86.2562 102.032 86.9319C102.983 87.6585 104.961 89.0228 106.509 89.954C108.056 90.8852 110.746 92.429 112.408 93.3351C114.121 94.254 118.499 96.1701 122.116 97.6778C125.797 99.1476 129.871 100.771 131.204 101.269C132.587 101.781 137.259 103.393 141.651 104.826C146.03 106.31 158.091 109.679 168.401 112.282C178.761 114.898 190.429 117.682 194.391 118.466C198.366 119.2 205.147 120.371 209.414 121.016C213.732 121.674 219.752 122.437 222.762 122.711C225.81 123.048 229.989 123.401 232.022 123.482C234.105 123.575 237.611 123.596 239.847 123.512C242.122 123.491 245.819 123.182 248.107 122.895C250.458 122.57 254.169 121.777 256.407 121.045C258.696 120.326 261.926 118.872 263.631 117.897C265.298 116.858 267.767 114.996 269.066 113.702C270.428 112.371 272.302 110.087 273.233 108.539C274.215 107.003 275.632 104.173 276.272 102.28C277.051 100.261 277.848 96.6791 278.185 93.8458C278.56 91.0761 278.838 86.5523 278.794 83.7308C278.814 80.8714 278.634 76.4482 278.411 73.9059C278.202 71.3128 277.692 66.9144 277.304 64.1684C276.879 61.3587 275.889 55.8662 275.035 51.9754C274.244 48.0465 272.169 39.3616 270.445 32.711C268.784 26.0223 266.382 16.0658 265.226 10.5857C264.033 5.04187 262.828 -1.09924 262.515 -3.06984C262.215 -5.09124 261.8 -6.65538 261.66 -6.52861C261.482 -6.46546 261.717 -3.97402 262.155 -0.999126C262.656 1.93777 263.835 7.96451 264.828 12.3767C265.77 16.7762 267.367 23.5028 268.349 27.3177C269.33 31.1326 270.803 36.8549 271.57 40.0212C272.388 43.2002 273.683 48.9857 274.524 52.9274C275.379 56.8183 276.406 62.8065 276.842 66.2135C277.342 69.5825 277.85 75.0612 277.981 78.3912C278.177 81.6833 278.165 86.4364 278.019 88.9398C277.886 91.3923 277.19 95.6483 276.497 98.3919C275.804 101.135 274.691 104.475 273.963 105.859C273.287 107.256 271.705 109.667 270.457 111.189C269.119 112.851 266.573 115.018 264.18 116.576C261.992 117.969 258.316 119.69 256.028 120.409C253.79 121.141 249.913 121.946 247.46 122.245C245.059 122.558 240.142 122.775 236.521 122.78C232.964 122.747 226.879 122.453 222.929 122.051C219.043 121.61 211.981 120.692 207.257 119.931C202.571 119.234 193.491 117.537 187.13 116.201C180.819 114.877 170.281 112.325 163.704 110.556C157.191 108.75 148.228 106.162 143.836 104.729C139.431 103.347 133.757 101.428 131.142 100.443C128.578 99.4716 124.149 97.7586 121.319 96.5577C118.526 95.4203 114.034 93.3133 111.421 91.8967C108.794 90.531 105.154 88.2607 103.239 86.8584C101.374 85.469 98.5855 83.0353 97.065 81.3543C95.5826 79.7369 93.6318 77.4068 92.809 76.1722C91.9355 74.9248 90.5695 72.418 89.7863 70.5989C89.0159 68.729 87.83 65.2949 87.2387 62.9297C86.6602 60.5137 85.9458 56.4961 85.6597 53.9918C85.3736 51.4874 85.1313 46.6702 85.114 43.315C85.0968 39.9598 85.2275 33.237 85.3663 28.4079C85.5179 23.528 85.6107 16.7416 85.6063 13.3356C85.6655 9.89157 85.5503 4.99837 85.4294 2.48172C85.3213 -0.085747 84.8641 -5.3356 84.4667 -9.11106C84.0314 -12.9502 83.1566 -18.8999 82.5043 -22.3074C81.814 -25.7785 80.6575 -30.8265 79.9271 -33.497C79.2096 -36.2184 78.0879 -39.9065 77.5078 -41.6743C76.9406 -43.493 75.767 -46.7619 74.9849 -49.0131C74.1519 -51.2772 73.2804 -53.3888 72.9891 -53.7326C72.6977 -54.0764 72.4566 -54.1913 72.4432 -53.9244C72.3919 -53.7212 73.2244 -51.2411 74.2974 -48.43ZM81.7951 -44.1049C83.2958 -39.5644 85.4623 -31.8833 86.5429 -26.9625C87.6363 -22.0925 88.9035 -15.5573 89.3152 -12.4808C89.727 -9.40429 90.3329 -2.60361 90.663 2.7222C90.9551 7.98436 91.2618 17.682 91.284 24.2272C91.3061 30.7724 91.5272 39.0972 91.7471 42.7198C91.9669 46.3424 92.5268 51.1857 92.953 53.5633C93.3412 55.8772 94.3357 59.6412 95.105 61.9433C95.8872 64.1945 97.4922 67.6804 98.7576 69.7294C99.9851 71.7147 101.631 74.1839 102.416 75.1389C103.252 76.1066 105.267 78.1827 106.928 79.7369C108.639 81.3039 111.986 83.8786 114.409 85.4091C116.883 86.9524 120.905 89.211 123.404 90.4366C125.955 91.6751 130.422 93.6677 133.366 94.8435C136.362 96.0321 142.683 98.3847 147.456 100.022C152.774 101.851 161.928 104.541 170.866 106.798C178.992 108.849 189.111 111.134 193.353 111.881C197.645 112.64 204.782 113.686 209.24 114.217C213.749 114.76 220.633 115.31 224.609 115.395C228.624 115.544 233.998 115.441 236.552 115.167C239.157 114.906 242.461 114.443 243.834 114.141C245.27 113.802 248.067 112.994 249.975 112.287C251.946 111.542 254.833 110.163 256.322 109.187C257.823 108.161 259.822 106.666 260.751 105.766C261.63 104.853 263.222 103.039 264.166 101.656C265.173 100.235 266.513 97.9247 267.101 96.4518C267.752 94.9409 268.79 91.4736 269.394 88.6536C269.998 85.8336 270.605 81.7172 270.674 79.5187C270.755 77.2694 270.726 73.5329 270.58 71.1178C270.433 68.7028 269.999 64.4316 269.663 61.6984C269.339 58.9144 268.185 52.7861 267.155 48.0942C266.137 43.3515 263.835 34.2848 262.148 27.9138C260.41 21.53 258.384 13.7222 257.566 10.5431C256.798 7.37685 255.554 1.82024 254.89 -1.75248C254.238 -5.37599 253.559 -8.46578 253.433 -8.60587C253.319 -8.79675 253.203 -8.33948 253.278 -7.56408C253.314 -6.85229 253.827 -3.53411 254.505 -0.228261C255.145 3.01396 256.565 9.37161 257.71 13.8223C258.855 18.273 259.963 22.6601 260.252 23.6521C260.504 24.5804 261.649 29.0311 262.846 33.4946C264.042 37.9582 265.816 45.0538 266.682 49.3259C267.612 53.5601 268.689 59.7772 269.125 63.1842C269.524 66.5275 269.93 71.9806 269.96 75.285C270.037 79.8985 269.751 82.7447 268.594 88.1815C267.463 93.7328 266.861 95.6887 265.47 98.202C264.564 99.8648 262.856 102.352 261.747 103.747C260.46 105.206 257.825 107.297 254.899 109.045C251.286 111.159 248.819 112.157 244.917 113.064C242.095 113.756 237.392 114.407 234.432 114.578C231.458 114.8 225.526 114.761 221.207 114.536C216.888 114.31 210.029 113.659 206.003 113.129C201.99 112.548 195.335 111.517 191.208 110.745C187.119 110.037 178.485 108.073 172.035 106.444C165.636 104.829 157.206 102.484 153.36 101.243C149.527 99.9505 145.046 98.4409 143.408 97.8653C141.771 97.2897 137.925 95.8323 134.777 94.6052C131.68 93.3909 126.871 91.2577 124.066 89.9552C121.325 88.6146 116.834 86.0754 114.145 84.3156C111.507 82.5685 107.69 79.4971 105.701 77.5355C103.711 75.5739 100.975 72.0728 99.5958 69.8329C98.2801 67.555 96.5485 63.9291 95.7786 61.8431C95.0215 59.7063 94.0522 56.0567 93.664 53.7428C93.2379 51.3652 92.6774 46.7379 92.4822 43.4459C92.249 40.0902 92.0375 33.0107 92.0379 27.6603C91.9874 22.297 91.9165 14.8748 91.8111 11.2271C91.7056 7.57935 91.4146 1.88509 91.2065 -1.35617C90.9476 -4.61024 90.3508 -9.9494 89.914 -13.1403C89.4391 -16.3949 88.3863 -22.2815 87.4811 -26.1852C86.6395 -30.1268 84.9403 -36.6631 83.6796 -40.6565C82.4825 -44.6879 81.1208 -48.9231 80.6535 -50.0679C80.1991 -51.2636 79.7698 -52.3448 79.6939 -52.4721C79.6816 -52.6373 79.5292 -52.6758 79.3384 -52.5618C79.1983 -52.435 80.2815 -48.5945 81.7951 -44.1049ZM86.558 -48.8474C86.8232 -48.1859 88.1342 -43.9636 89.4826 -39.4616C90.831 -34.9596 92.4045 -28.9956 93.0327 -26.1347C93.6738 -23.3245 94.6774 -18.0989 95.2277 -14.501C95.8415 -10.9411 96.6121 -3.93675 97.0191 1.08422C97.439 6.05438 97.9119 15.3076 98.1506 21.6372C98.4021 27.916 98.8402 35.8093 99.175 39.1906C99.5226 42.5211 100.298 47.5811 100.926 50.442C101.567 53.2521 102.878 57.4744 103.851 59.8278C104.836 62.1303 106.607 65.3877 107.81 67.0426C108.962 68.6846 110.811 70.9891 111.812 72.1606C112.876 73.2941 115.069 75.307 116.628 76.6195C118.239 77.9448 121.536 80.2906 123.959 81.8211C126.445 83.3137 130.569 85.5978 133.221 86.8619C135.873 88.126 140.594 90.1828 143.691 91.397C146.826 92.675 150.214 94.017 151.28 94.5023C152.359 94.9368 160.979 97.3835 170.451 99.883C182.309 102.985 189.813 104.718 194.448 105.402C198.195 105.969 203.173 106.578 205.434 106.824C207.758 107.033 212.433 107.348 215.799 107.495C219.216 107.656 223.968 107.666 226.331 107.506C228.758 107.308 233.079 106.67 235.888 106.028C238.748 105.399 242.13 104.415 243.478 103.783C244.864 103.214 247.052 102.037 248.401 101.189C249.75 100.34 251.353 99.1236 251.977 98.5785C252.614 97.9826 253.964 96.4859 254.971 95.2808C255.99 94.0249 257.623 91.4105 258.555 89.43C259.819 86.7766 260.587 84.3764 261.308 80.667C261.81 77.8213 262.304 73.0819 262.299 70.108C262.344 67.1469 262.189 63.0543 261.978 61.1093C261.729 59.1007 260.965 54.4221 260.288 50.6842C259.611 46.9462 257.876 39.6982 256.516 34.5989C255.156 29.4995 252.802 20.8521 251.252 15.4346C249.767 9.97914 247.716 1.84083 246.685 -2.63503C245.717 -7.1489 244.735 -10.7477 244.544 -10.6338C244.404 -10.507 245.119 -6.48937 246.225 -1.67018C247.28 3.13617 250.263 14.6445 252.832 23.9405C255.414 33.1857 258.133 43.6004 258.874 47.0844C259.628 50.5175 260.556 55.6159 260.93 58.4127C261.266 61.1459 261.624 65.7219 261.604 68.5814C261.648 71.4029 261.37 75.9266 260.995 78.6964C260.426 82.6603 259.914 84.4765 258.368 88.0316C257.129 90.7994 255.471 93.5154 253.776 95.5196C252.081 97.5239 249.701 99.463 247.093 101.02C244.866 102.35 241.331 103.943 239.233 104.549C237.199 105.116 233.932 105.858 232.089 106.096C230.285 106.397 227.133 106.682 225.164 106.779C223.233 106.94 218.761 106.892 215.178 106.744C211.647 106.609 205.982 106.152 202.464 105.75C199.009 105.31 192.914 104.42 188.939 103.686C184.951 103.004 177.942 101.45 173.321 100.283C168.75 99.1293 161.691 97.1309 157.706 95.8003C153.77 94.4824 147.538 92.2063 143.87 90.6858C140.253 89.178 136.103 87.4276 134.593 86.776C133.146 86.0865 129.619 84.2231 126.739 82.5772C123.91 80.9441 119.674 78.037 117.303 76.0872C114.983 74.1503 111.776 71.0167 110.219 69.056C108.648 67.1462 106.484 63.7353 105.384 61.4579C104.322 59.2442 102.871 55.3647 102.229 52.9867C101.599 50.5578 100.758 46.6162 100.446 44.2135C100.134 41.8108 99.6994 37.7557 99.5277 35.2262C99.318 32.6331 99.0762 27.5998 98.9579 24.0029C98.8396 20.406 98.5625 14.2288 98.356 10.3394C98.2131 6.41196 97.6825 -0.0453737 97.2729 -3.98608C96.876 -7.97759 96.1905 -13.3932 95.7649 -15.9868C95.3013 -18.644 94.3602 -23.4755 93.6566 -26.6797C92.953 -29.884 91.3164 -36.0261 90.069 -40.2864C88.7709 -44.5595 87.3963 -48.7438 87.0044 -49.5454C86.6253 -50.3977 86.2073 -50.8816 86.1303 -50.5768C86.0662 -50.3227 86.2421 -49.5217 86.558 -48.8474ZM95.5607 -41.7102C96.7455 -37.844 98.7093 -30.4303 99.8273 -25.2298C101.009 -20.0673 102.375 -12.4262 102.937 -8.23094C103.46 -4.09936 104.5 6.97251 105.202 16.3914C105.966 25.7724 107.021 36.1453 107.597 39.4255C108.187 42.6549 109.293 47.4741 110.15 50.0686C110.957 52.6504 112.979 57.0522 114.649 59.8519C116.484 62.8553 119.118 66.3308 121.197 68.3689C123.098 70.2541 126.901 73.3763 129.666 75.2634C132.469 77.2141 137.544 80.2248 140.957 81.8973C144.408 83.6335 149.84 86.0857 153.076 87.3893C157.049 88.9868 163.51 90.9966 172.88 93.4704C180.574 95.521 188.738 97.4202 190.986 97.7176C193.272 98.0785 197.209 98.5322 199.622 98.8172C202.086 99.115 207.256 99.3934 211.08 99.4401C214.955 99.4996 220.367 99.2449 223.15 98.9207C225.895 98.5328 229.709 97.7661 231.628 97.2239C233.51 96.6181 236.931 95.0498 239.259 93.746C242.173 92.0495 244.273 90.3639 245.904 88.3977C247.229 86.7866 248.746 84.6295 249.333 83.5887C249.869 82.535 250.853 80.3513 251.429 78.7131C252.055 77.0877 252.8 73.7088 253.085 71.2947C253.384 68.8299 253.571 65.0939 253.499 63.0221C253.441 60.8996 253.208 57.3278 252.922 55.0396C252.648 52.7005 251.695 47.4877 250.778 43.4188C249.873 39.299 247.141 29.1512 244.76 20.8214C242.328 12.4789 239.344 1.4027 238.15 -3.70898C236.956 -8.82068 235.835 -12.9409 235.644 -12.827C235.517 -12.751 235.867 -10.2846 236.533 -7.36008C237.148 -4.44835 238.116 -0.366605 238.62 1.70608C239.186 3.74079 241.643 12.4138 244.086 20.9216C246.543 29.3786 249.237 39.6789 250.142 43.7986C251.059 47.8675 252.049 53.36 252.361 55.9788C252.685 58.5467 252.852 63.0207 252.717 65.9053C252.634 68.8028 252.141 72.894 251.59 75.0787C251.038 77.2634 250.027 80.1969 249.325 81.695C248.686 83.1551 247.029 85.6551 245.754 87.279C244.442 88.8392 242.226 90.9821 240.903 91.945C239.566 92.9587 236.818 94.4268 234.835 95.2231C232.902 96.0321 229.164 97.1421 226.673 97.5941C224.22 98.1097 219.225 98.6323 215.579 98.7385C211.983 98.8575 205.721 98.6274 201.669 98.199C197.618 97.7705 193.045 97.2647 191.432 97.0196C189.87 96.7873 185.032 95.836 180.613 94.9365C176.157 93.9734 168.971 92.0509 164.185 90.4643C159.539 88.967 153.395 86.7673 150.565 85.5663C147.773 84.4289 142.748 82.0793 139.462 80.3308C136.214 78.6459 131.431 75.763 128.92 73.94C126.396 72.1678 122.948 69.1353 121.161 67.225C119.425 65.3275 117.12 62.4755 116.057 60.9099C114.994 59.3443 113.527 56.5959 112.743 54.7767C111.973 52.9068 110.85 49.8669 110.206 47.921C109.614 45.9879 108.709 41.8681 108.196 38.766C107.683 35.6638 106.678 25.5198 105.977 16.3169C105.237 7.05042 104.31 -3.39845 103.848 -6.91987C103.399 -10.4921 102.147 -17.7263 101.054 -23.0284C99.9748 -28.3813 97.9869 -36.3416 96.6764 -40.7799C95.366 -45.2183 94.0663 -48.8433 93.7615 -48.9202C93.5076 -48.9843 93.2917 -48.9848 93.3296 -48.9212C93.3168 -48.8704 94.3251 -45.5892 95.5607 -41.7102ZM103.686 -39.6586C104.745 -36.1485 106.406 -29.4599 107.449 -24.8188C108.492 -20.1776 109.81 -13.4135 110.347 -9.76482C110.884 -6.11613 111.67 -0.026805 112.105 3.81228C112.503 7.58775 113.336 14.7702 113.883 19.6644C114.43 24.5586 115.355 30.9532 115.945 33.9666C116.496 36.9163 117.718 41.4943 118.626 44.1017C119.484 46.6962 121.316 50.7799 122.619 53.1086C123.959 55.5009 126.327 58.963 127.923 60.7712C129.57 62.5923 132.295 65.28 133.994 66.6818C135.731 68.1472 139.536 70.8373 142.479 72.6613C145.46 74.5489 150.014 77.05 152.666 78.3142C155.319 79.5783 159.875 81.4313 162.68 82.5178C165.548 83.5664 171.782 85.4104 176.505 86.6029C181.279 87.8083 187.056 89.1048 189.278 89.5037C191.564 89.8647 195.501 90.3183 197.94 90.5017C200.43 90.6979 204.444 90.8467 206.769 90.8392C209.145 90.8445 213.147 90.612 215.549 90.2996C218.001 90.0001 221.484 89.2581 223.252 88.6774C225.07 88.1096 227.906 86.934 229.572 86.1117C231.302 85.2513 233.732 83.541 235.019 82.2984C236.305 81.0558 238.152 78.874 239.146 77.5037C240.587 75.4353 241.239 73.9244 242.38 69.4026C243.163 66.3033 243.807 62.4667 243.837 60.8527C243.879 59.1879 243.859 56.9129 243.735 55.6926C243.662 54.4851 243.452 52.108 243.227 50.4299C243.015 48.701 242.263 44.6198 241.572 41.3648C240.843 38.0461 238.653 29.8184 236.624 23.0909C234.658 16.3253 231.937 6.99077 230.614 2.38717C229.304 -2.26726 227.782 -8.21845 227.191 -10.7997C226.549 -13.3938 225.907 -15.5557 225.703 -15.607C225.5 -15.6583 226.089 -12.4289 227.071 -8.39797C228.052 -4.36703 231.187 6.96369 234.06 16.7687C236.946 26.523 239.993 37.7773 240.834 41.719C241.689 45.6098 242.566 50.6954 242.738 53.0088C242.923 55.2714 243.08 58.7159 243.024 60.6475C242.982 62.5284 242.401 66.327 241.708 69.0706C240.694 73.0844 240.094 74.6082 238.372 77.1461C237.187 78.8465 235.059 81.2818 233.621 82.4859C232.169 83.7409 229.65 85.3747 227.946 86.1335C226.292 86.905 223.342 87.8897 221.423 88.4319C219.516 88.9233 215.843 89.5632 213.238 89.8242C210.671 90.1489 206.11 90.2404 203.175 90.094C200.241 89.9477 195.275 89.5044 192.074 89.1287C188.251 88.6499 182.474 87.3534 174.679 85.2771C167.493 83.3547 161.285 81.409 158.417 80.1444C155.879 79.0712 151.45 76.9262 148.532 75.4327C145.677 73.9012 141.224 71.2097 138.713 69.3866C136.19 67.6145 132.5 64.4671 130.485 62.391C128.344 60.1749 125.634 56.5722 123.812 53.5179C122.142 50.7182 120.207 46.8249 119.513 44.8662C118.87 42.9203 117.788 38.8637 117.083 35.8755C116.443 32.8493 115.516 27.5349 115.054 24.0135C114.656 20.4541 113.835 13.2208 113.289 7.89455C112.705 2.50463 111.947 -4.11846 111.559 -6.86446C111.185 -9.66128 109.893 -16.5271 108.726 -22.1725C107.558 -27.8179 105.659 -35.7017 104.487 -39.6186C103.366 -43.5228 102.294 -46.766 102.141 -46.8045C102.04 -46.8301 101.9 -46.7034 101.848 -46.5001C101.797 -46.2969 102.641 -43.2194 103.686 -39.6586ZM112.641 -38.7489C113.548 -35.7095 115.096 -29.8598 116.052 -25.7273C117.071 -21.6327 118.352 -15.3643 119.003 -11.7408C119.617 -8.18089 120.78 -0.591045 121.554 5.11702C122.391 10.7871 123.554 18.377 124.155 21.9877C124.82 25.5604 126.027 30.8373 126.909 33.7623C127.753 36.6238 129.217 40.6685 130.114 42.6785C131.011 44.6886 132.643 47.6407 133.63 49.2951C134.68 50.9115 137.15 53.9672 139.102 56.0812C141.091 58.2589 144.247 61.1636 146.098 62.6039C148.001 64.057 150.74 66.0457 152.287 66.9769C153.822 67.9589 157.832 70.0522 161.093 71.6862C166.524 74.3545 168.225 74.8921 178.268 77.4818C187.206 79.7386 190.545 80.4197 194.75 80.6705C197.684 80.8169 202.321 80.8527 205.028 80.6173C207.772 80.4455 211.725 79.7681 213.772 79.1499C215.87 78.5446 218.884 77.3058 220.41 76.3942C221.988 75.4954 223.935 74.2034 224.699 73.5316C225.513 72.8725 226.991 71.0839 227.973 69.5483C229.006 68.0255 230.257 65.639 230.756 64.3056C231.267 62.9215 231.91 59.9491 232.169 57.6366C232.429 55.3242 232.477 51.2828 232.305 48.7533C232.096 46.1602 231.383 41.4944 230.717 38.3538C230.001 35.2004 228.982 30.8898 228.365 28.8422C227.811 26.7567 227.093 24.2515 226.841 23.3231C226.551 22.3312 224.912 17.0533 223.211 11.5973C221.471 6.07771 219.694 0.278455 219.227 -1.2985C218.825 -2.91345 217.641 -7.21173 216.672 -10.8614C215.664 -14.5747 214.707 -17.843 214.466 -18.174C214.239 -18.5558 214.804 -15.8729 215.659 -12.1981C216.526 -8.57411 217.874 -3.63998 218.554 -1.19833C219.298 1.20533 221.781 9.34462 224.074 16.9497C226.381 24.504 229 34.0289 229.854 38.1358C230.721 42.1919 231.51 46.7689 231.608 48.3069C231.718 49.7942 231.699 52.6536 231.63 54.6361C231.562 56.6185 231.046 59.9471 230.507 62.081C229.866 64.6214 228.984 66.8308 227.683 68.7723C226.637 70.3459 224.714 72.6166 223.351 73.7319C221.989 74.8472 219.75 76.2275 218.402 76.8599C217.067 77.4416 214.803 78.2753 213.341 78.7168C211.943 79.1204 209.236 79.5718 207.406 79.7584C205.589 79.8941 202.311 80.0393 200.036 80.0596C197.813 80.0928 193.037 79.7517 189.43 79.2734C185.874 78.8079 180.871 77.8689 178.332 77.2278C175.843 76.5995 171.248 75.115 168.1 73.8879C165.003 72.6736 160.625 70.7574 158.379 69.5959C156.184 68.4472 152.797 66.457 150.856 65.1563C148.967 63.8685 146.025 61.6124 144.288 60.147C142.602 58.6944 140.054 56.1596 138.66 54.6187C137.28 53.027 135.089 50.1499 133.81 48.1517C132.532 46.1535 130.586 42.095 129.437 39.1567C128.275 36.2691 126.65 30.5083 125.783 26.4522C124.98 22.3581 123.49 13.4966 122.554 6.7206C121.567 -0.0682005 120.304 -8.54791 119.64 -12.1206C119.039 -15.7313 117.606 -22.2542 116.562 -26.6793C115.519 -31.1044 113.995 -36.8395 113.239 -39.4084C112.483 -41.9773 111.816 -44.2537 111.74 -44.381C111.677 -44.5591 111.474 -44.6103 111.333 -44.4836C111.193 -44.3568 111.784 -41.7756 112.641 -38.7489ZM124.046 -37.4906C124.575 -35.7356 125.672 -31.9459 126.452 -29.0465C127.246 -26.1979 128.478 -21.0226 129.219 -17.5387C129.973 -14.1056 131.166 -8.34571 131.767 -4.73501C132.431 -1.1623 133.749 5.60184 134.614 10.3061C135.543 14.9724 136.976 21.2792 137.87 24.3695C138.727 27.3962 140.241 31.6698 141.252 33.8707C142.225 36.008 144.185 39.5836 145.527 41.7598C146.881 43.8853 149.312 47.0934 150.921 48.8508C152.581 50.6211 155.573 53.3221 157.5 54.8896C159.491 56.4191 163.233 58.9312 165.834 60.3985C170.185 62.8484 171.378 63.2578 179.694 65.4115C186.957 67.2451 189.738 67.7851 193.13 67.8308C195.493 67.8869 199.089 67.5518 201.135 67.1497C203.131 66.7348 206.22 65.6233 207.976 64.6614C209.719 63.7502 212.124 61.9255 213.322 60.6065C215.169 58.6407 215.705 57.5871 216.883 53.777C217.895 50.4114 218.281 48.239 218.224 45.4683C218.217 43.3586 217.896 39.4944 217.47 36.9008C217.057 34.2564 216.014 29.6153 215.208 26.6014C214.365 23.524 212.184 16.3258 210.306 10.5009C208.478 4.68881 205.982 -3.39971 204.772 -7.38032C203.524 -11.4246 202.177 -16.3587 201.75 -18.3041C201.322 -20.2495 200.717 -21.9158 200.412 -21.9927C200.158 -22.0568 200.345 -20.6584 200.798 -18.8146C201.302 -16.9579 203.393 -9.83625 205.523 -2.86695C207.615 4.03871 210.615 13.7678 212.153 18.804C213.704 23.7894 215.466 30.5037 216.119 33.6951C216.771 36.8865 217.305 42.0476 217.349 45.0851C217.376 49.6858 217.143 51.2485 216.081 54.3852C215.083 57.2679 214.305 58.6387 212.318 60.7313C210.394 62.7858 208.918 63.7103 205.434 65.1005C202.675 66.1873 199.637 66.8795 197.388 67.0143C195.482 67.0736 191.823 67.0145 189.334 66.8183C186.895 66.6349 182.793 65.9776 180.254 65.3365C177.765 64.7082 173.843 63.3395 171.546 62.3812C169.312 61.3849 165.633 59.483 163.425 58.1691C161.269 56.8679 157.68 54.1783 155.461 52.267C153.293 50.3685 150.746 47.8337 149.847 46.6879C148.948 45.5421 147.504 43.5562 146.643 42.258C145.77 41.0106 144.024 37.8676 142.735 35.2721C141.509 32.6385 139.792 28.3136 139.011 25.6303C138.179 22.9341 136.959 17.924 136.205 14.4909C135.464 11.007 134.109 3.96317 133.181 -1.13519C132.266 -6.28439 130.748 -13.964 129.818 -18.1982C128.85 -22.496 127.151 -29.2482 126.043 -33.2032C124.897 -37.2218 123.851 -40.7827 123.661 -41.1008C123.433 -41.4826 123.281 -41.5211 123.204 -41.2162C123.14 -40.9622 123.53 -39.2964 124.046 -37.4906ZM144.224 -33.7472C144.679 -32.7675 146.028 -28.2655 147.274 -23.7892C148.521 -19.3128 151.062 -8.83496 152.896 -0.481055C154.795 7.83487 156.833 16.024 157.388 17.6774C158.006 19.2929 159.396 22.5622 160.445 24.8267C161.532 27.1549 163.797 30.8075 165.481 32.9082C167.546 35.4292 169.866 37.5822 172.263 39.2143C175.725 41.5478 176.309 41.8033 180.855 42.6269C184.576 43.296 186.176 43.3759 187.283 42.8446C188.122 42.516 189.891 41.2872 191.152 40.1462C193.431 38.1814 193.52 38.0419 194.152 34.256C194.538 32.0836 194.647 28.8685 194.411 27.0251C194.174 25.1818 193.458 21.5963 192.753 19.0402C192.099 16.4969 190.649 11.7532 189.577 8.51005C188.505 5.26685 186.386 -0.889064 184.859 -5.11187C183.345 -9.38547 181.176 -16.2023 179.992 -20.2845C178.808 -24.3668 177.736 -27.61 177.659 -27.5212C177.57 -27.3816 177.871 -25.7923 178.324 -23.9485C178.828 -22.0918 180.125 -17.6027 181.285 -13.8509C182.407 -10.1628 184.904 -2.72246 186.835 2.68319C188.727 8.02521 191.022 15.1982 191.903 18.5553C192.797 21.8617 193.638 26.2355 193.785 28.2184C193.958 30.3158 193.735 33.124 193.286 35.1183C192.477 38.3191 192.362 38.5603 189.728 40.4353C187.335 42.2093 186.636 42.411 183.854 42.3031C182.139 42.2485 179.625 41.9378 178.304 41.6044C176.882 41.2454 174.598 40.0202 172.81 38.758C171.123 37.5215 168.613 35.2664 167.169 33.7126C165.775 32.1717 163.813 29.4603 162.75 27.6787C161.687 25.8971 160.259 22.9962 159.475 21.1771C158.756 19.32 157.57 15.8859 156.877 13.495C156.197 11.0534 154.524 3.98346 153.142 -2.31057C151.811 -8.5918 149.509 -18.0906 148.023 -23.33C146.6 -28.6074 145.037 -33.758 144.531 -34.7505C144.039 -35.7937 143.595 -36.392 143.518 -36.0872C143.454 -35.8332 143.782 -34.7776 144.224 -33.7472ZM302.412 10.5163C302.291 13.1341 302.468 18.6375 302.776 22.7686C303.045 26.8361 303.805 33.2432 304.431 36.9683C305.006 40.6806 306.55 48.4746 307.832 54.3109C309.126 60.0964 311.139 68.1711 312.285 72.1897C313.444 76.1575 315.524 82.8979 316.988 87.1587C318.464 91.3687 321.153 98.263 323.01 102.461C324.931 106.621 327.092 111.328 327.889 112.881C328.698 114.382 329.458 115.439 329.522 115.185C329.599 114.88 328.778 112.997 327.728 110.949C326.679 108.9 324.947 105.274 323.911 102.959C322.837 100.58 320.88 95.7079 319.516 92.1209C318.217 88.496 315.807 81.3481 314.245 76.1975C312.682 71.0468 310.178 61.2807 308.695 54.5289C307.225 47.7263 305.743 40.5424 305.38 38.559C305.08 36.5376 304.406 31.7194 303.957 27.9311C303.522 24.092 303.116 18.639 303.072 15.8175C303.092 12.958 303.215 9.25993 303.372 7.56999C303.528 5.88004 303.545 4.3169 303.367 4.16401C303.19 4.01111 302.961 4.27748 302.832 4.78555C302.755 5.30645 302.545 7.84777 302.412 10.5163ZM310.837 14.8054C310.628 17.1307 310.454 20.5999 310.45 22.5443C310.509 24.4508 310.702 28.391 310.937 31.3146C311.184 34.1874 311.744 38.8147 312.169 41.6244C312.556 44.3704 313.648 50.1046 314.565 54.3895C315.545 58.6365 317.105 64.8674 318.139 68.2631C319.134 71.595 320.925 76.9114 322.023 80.053C323.184 83.1566 325.458 88.4867 327.038 91.8581C328.618 95.2296 330.59 98.9704 331.35 100.243C332.122 101.465 332.793 102.229 332.806 101.962C332.883 101.657 331.898 99.5707 330.62 97.3564C329.304 95.0786 326.991 90.1169 325.362 86.3006C323.796 82.4462 321.7 77.0529 320.767 74.3311C319.846 71.5585 318.636 67.5779 318.069 65.5432C317.464 63.4449 316.232 58.2695 315.302 54.0353C314.385 49.7504 313.243 44.0034 312.805 41.2445C312.38 38.4349 311.784 32.8797 311.501 28.863C311.219 24.8464 311.143 19.5847 311.314 17.1958C311.485 14.8069 311.925 11.351 312.311 9.61076C312.645 7.85767 312.763 6.32015 312.547 6.31967C312.344 6.26837 311.948 7.19523 311.704 8.37663C311.409 9.54519 311.046 12.4802 310.837 14.8054ZM318.939 21.4449C318.924 22.1439 318.804 24.5456 318.672 26.7821C318.603 28.9806 318.732 33.3909 318.953 36.5814C319.187 39.721 319.872 45.1366 320.461 48.582C321.062 51.9767 322.256 57.5205 323.188 60.8905C324.082 64.1968 325.379 68.6859 326.136 70.8227C326.855 72.8959 328.232 76.4321 329.192 78.6202C330.114 80.7447 331.884 84.4342 333.136 86.7501C334.324 89.1039 335.489 90.9111 335.679 90.7972C335.819 90.6704 335.365 89.4748 334.657 88.215C333.91 86.8916 332.368 83.7999 331.218 81.2936C330.081 78.7366 328.666 75.3528 327.997 73.7245C327.34 72.0455 326.004 67.9248 324.957 64.58C323.924 61.1844 322.578 55.6022 321.875 52.1819C321.185 48.7108 320.384 43.5364 320.086 40.6508C319.75 37.7015 319.43 33.6212 319.359 31.5495C319.301 29.427 319.283 26.2878 319.351 24.5214C319.418 22.755 320.166 18.5119 321.025 15.1078C321.885 11.7037 322.31 9.1629 322.03 9.41645C321.75 9.67 320.943 12.2227 320.288 15.0299C319.634 17.8371 319.017 20.708 318.939 21.4449ZM327.821 25.8494C327.434 28.2378 327.056 32.3039 327.012 34.8329C326.98 37.311 327.16 41.5181 327.421 44.124C327.745 46.692 328.433 51.2433 329.073 54.2695C329.676 57.2321 331.035 62.3314 332.158 65.5874C333.281 68.8434 335.061 73.3464 336.161 75.6238C337.248 77.9519 338.26 79.7208 338.349 79.5811C338.438 79.4416 337.694 77.47 336.696 75.2183C335.697 72.9666 334.094 68.8326 333.11 66.0979C332.189 63.3253 330.954 59.2302 330.426 57.0431C329.86 54.7923 328.994 50.3041 328.557 47.1132C328.082 43.8586 327.688 38.7868 327.632 35.8001C327.641 32.1272 327.98 28.4297 328.815 24.4791C329.728 20.0075 330.407 17.7469 331.671 15.3096C332.602 13.5451 333.432 11.971 333.458 11.8694C333.496 11.717 333.242 11.6529 332.95 11.7412C332.62 11.7659 331.739 13.3271 331.011 15.1429C330.282 16.9586 329.413 19.1172 329.093 19.9553C328.837 20.7554 328.221 23.4102 327.821 25.8494ZM335.864 35.7169C335.876 36.3142 335.82 38.2458 335.803 40.0251C335.786 41.8043 335.843 44.575 336.004 46.291C336.127 47.9435 336.627 51.0965 337.041 53.3088C337.468 55.4702 338.538 59.5776 339.395 62.3882C340.302 65.2116 341.199 67.4377 341.428 67.3874C341.67 67.2863 341.293 65.5697 340.573 63.4966C339.791 61.4614 338.683 57.0743 337.993 53.8192C337.365 50.5262 336.728 46.2037 336.618 44.2844C336.522 42.3143 336.503 39.6073 336.557 38.3238C336.573 36.9766 336.974 33.8893 337.361 31.5009C337.941 28.1343 338.556 26.1276 339.985 23.2459C341.058 21.1386 342.767 18.4354 343.76 17.2811C344.754 16.1268 345.519 15.0229 345.507 14.8576C345.495 14.6924 344.693 15.3006 343.763 16.2008C342.833 17.1011 341.227 19.3978 340.13 21.3907C338.828 23.7643 337.869 26.4946 337.086 29.8099C336.419 32.4519 335.904 35.1323 335.864 35.7169ZM345.559 45.4609C345.592 47.6851 345.753 49.4011 345.931 49.338C346.122 49.224 346.279 47.3181 346.297 45.1068C346.316 42.4633 346.82 39.1855 347.692 35.7306C348.641 31.9709 349.511 29.5963 350.659 27.8323C351.564 26.3855 352.152 25.1286 352.012 25.0393C351.873 24.9501 351.108 25.838 350.317 27.0435C349.425 28.4395 348.274 31.4998 347.147 35.3227C345.788 40.2762 345.491 42.0929 345.559 45.4609Z" fill="white" fill-opacity="0.15"/>
</svg>
