<svg width="260" height="95" viewBox="0 0 260 95" fill="none" xmlns="http://www.w3.org/2000/svg">
<path d="M31.676 42.2346L21.1173 52.5V31.676H0L10.5587 21.1173H21.1173V10.2654L31.676 0V21.1173H52.2067L41.9413 31.676H31.676V42.2346Z" fill="#FFB224"/>
<path d="M46.4527 42.321V37.6674H47.9307C48.3541 37.6674 48.7044 37.7175 48.9815 37.8176C49.2587 37.9099 49.4627 38.06 49.5935 38.2679C49.7244 38.4681 49.7898 38.7221 49.7898 39.03C49.7898 39.3072 49.7129 39.5497 49.5589 39.7575C49.4126 39.9654 49.2009 40.1347 48.9238 40.2656L50.2633 42.321H49.0624L48.0115 40.5427H47.5035V42.321H46.4527ZM47.5035 39.7575H47.9076C48.1617 39.7575 48.358 39.7036 48.4965 39.5958C48.6428 39.4804 48.7159 39.3033 48.7159 39.0647C48.7159 38.8491 48.6467 38.6951 48.5081 38.6028C48.3772 38.5104 48.1732 38.4642 47.8961 38.4642H47.5035V39.7575ZM48 45C47.3072 45 46.6567 44.8691 46.0485 44.6074C45.448 44.3533 44.9169 43.9992 44.455 43.545C44.0008 43.0831 43.6428 42.552 43.3811 41.9515C43.127 41.3433 43 40.6928 43 40C43 39.3072 43.127 38.6605 43.3811 38.06C43.6428 37.4519 44.0008 36.9207 44.455 36.4665C44.9169 36.0046 45.448 35.6467 46.0485 35.3926C46.6567 35.1309 47.3072 35 48 35C48.6928 35 49.3395 35.1309 49.94 35.3926C50.5481 35.6467 51.0793 36.0046 51.5335 36.4665C51.9954 36.9207 52.3533 37.4519 52.6074 38.06C52.8691 38.6605 53 39.3072 53 40C53 40.6928 52.8691 41.3433 52.6074 41.9515C52.3533 42.552 51.9954 43.0831 51.5335 43.545C51.0793 43.9992 50.5481 44.3533 49.94 44.6074C49.3395 44.8691 48.6928 45 48 45ZM48 43.9723C48.5543 43.9723 49.0701 43.8722 49.5473 43.6721C50.0246 43.4642 50.4442 43.1794 50.806 42.8176C51.1755 42.448 51.4604 42.0246 51.6605 41.5473C51.8684 41.0624 51.9723 40.5466 51.9723 40C51.9723 39.4457 51.8684 38.9299 51.6605 38.4527C51.4604 37.9754 51.1755 37.5558 50.806 37.194C50.4442 36.8245 50.0208 36.5396 49.5358 36.3395C49.0585 36.1316 48.5466 36.0277 48 36.0277C47.4457 36.0277 46.9299 36.1316 46.4527 36.3395C45.9754 36.5396 45.552 36.8245 45.1824 37.194C44.8206 37.5558 44.5358 37.9792 44.3279 38.4642C44.1278 38.9415 44.0277 39.4534 44.0277 40C44.0277 40.5543 44.1278 41.0701 44.3279 41.5473C44.5358 42.0246 44.8206 42.448 45.1824 42.8176C45.552 43.1794 45.9754 43.4642 46.4527 43.6721C46.9376 43.8722 47.4534 43.9723 48 43.9723Z" fill="black"/>
<path d="M67.275 12.75H72.525V37.25H67.275V12.75ZM84.4346 37.775C83.4779 37.775 82.6146 37.6817 81.8446 37.495C81.0746 37.3317 80.3862 37.0983 79.7796 36.795C79.1962 36.4917 78.6712 36.1533 78.2046 35.78C77.7612 35.4067 77.3879 35.0217 77.0846 34.625C76.3379 33.6917 75.8129 32.6417 75.5096 31.475H80.5846C80.7712 31.9183 81.0279 32.3033 81.3546 32.63C81.6346 32.91 82.0196 33.1667 82.5096 33.4C82.9996 33.6333 83.6412 33.75 84.4346 33.75C85.5779 33.75 86.3596 33.5983 86.7796 33.295C87.1996 32.9683 87.4096 32.5367 87.4096 32C87.4096 31.5333 87.1296 31.1833 86.5696 30.95C86.0329 30.7167 85.3562 30.5067 84.5396 30.32C83.7229 30.1333 82.8362 29.935 81.8796 29.725C80.9462 29.515 80.0712 29.2 79.2546 28.78C78.4379 28.36 77.7496 27.8 77.1896 27.1C76.6529 26.4 76.3846 25.4667 76.3846 24.3C76.3846 23.6 76.5479 22.9233 76.8746 22.27C77.2012 21.6167 77.6796 21.045 78.3096 20.555C78.9396 20.0417 79.7212 19.6333 80.6546 19.33C81.5879 19.0267 82.6729 18.875 83.9096 18.875C84.8429 18.875 85.6829 18.9567 86.4296 19.12C87.1762 19.2833 87.8296 19.505 88.3896 19.785C88.9729 20.065 89.4746 20.38 89.8946 20.73C90.3146 21.08 90.6646 21.43 90.9446 21.78C91.6212 22.62 92.0762 23.5767 92.3096 24.65H87.4096C87.2696 24.3233 87.0596 24.0317 86.7796 23.775C86.5229 23.565 86.1612 23.3667 85.6946 23.18C85.2512 22.9933 84.6562 22.9 83.9096 22.9C83.0229 22.9 82.3929 23.0517 82.0196 23.355C81.6462 23.635 81.4596 23.95 81.4596 24.3C81.4596 24.7667 81.7279 25.1167 82.2646 25.35C82.8246 25.5833 83.5129 25.7933 84.3296 25.98C85.1462 26.1667 86.0212 26.365 86.9546 26.575C87.9112 26.785 88.7979 27.1 89.6146 27.52C90.4312 27.94 91.1079 28.5 91.6446 29.2C92.2046 29.9 92.4846 30.8333 92.4846 32C92.4846 32.7467 92.3096 33.47 91.9596 34.17C91.6096 34.8467 91.0962 35.4533 90.4196 35.99C89.7429 36.5267 88.9029 36.9583 87.8996 37.285C86.8962 37.6117 85.7412 37.775 84.4346 37.775ZM96.1691 23.6H93.8941V19.4H96.1691V15.55H101.069V19.4H106.144V23.6H101.069V33.05H106.319V37.25H96.1691V23.6ZM117.853 37.775C116.453 37.775 115.146 37.53 113.933 37.04C112.743 36.55 111.704 35.885 110.818 35.045C109.954 34.1817 109.278 33.1783 108.788 32.035C108.298 30.8683 108.053 29.6317 108.053 28.325C108.053 27.0183 108.298 25.7933 108.788 24.65C109.278 23.4833 109.954 22.48 110.818 21.64C111.704 20.7767 112.743 20.1 113.933 19.61C115.146 19.12 116.453 18.875 117.853 18.875C119.253 18.875 120.548 19.12 121.738 19.61C122.928 20.1 123.954 20.7767 124.818 21.64C125.704 22.48 126.393 23.4833 126.883 24.65C127.396 25.7933 127.653 27.0183 127.653 28.325C127.653 29.6317 127.396 30.8683 126.883 32.035C126.393 33.1783 125.704 34.1817 124.818 35.045C123.954 35.885 122.928 36.55 121.738 37.04C120.548 37.53 119.253 37.775 117.853 37.775ZM117.853 33.575C118.506 33.575 119.113 33.4467 119.673 33.19C120.256 32.9333 120.758 32.5833 121.178 32.14C121.621 31.6733 121.959 31.125 122.193 30.495C122.449 29.8417 122.578 29.1183 122.578 28.325C122.578 27.5317 122.449 26.82 122.193 26.19C121.959 25.5367 121.621 24.9883 121.178 24.545C120.758 24.0783 120.256 23.7167 119.673 23.46C119.113 23.2033 118.506 23.075 117.853 23.075C117.199 23.075 116.581 23.2033 115.998 23.46C115.438 23.7167 114.936 24.0783 114.493 24.545C114.073 24.9883 113.734 25.5367 113.478 26.19C113.244 26.82 113.128 27.5317 113.128 28.325C113.128 29.1183 113.244 29.8417 113.478 30.495C113.734 31.125 114.073 31.6733 114.493 32.14C114.936 32.5833 115.438 32.9333 115.998 33.19C116.581 33.4467 117.199 33.575 117.853 33.575ZM130.465 19.4H135.365V21.85H135.54C135.843 21.29 136.24 20.8 136.73 20.38C137.15 20.0067 137.687 19.6683 138.34 19.365C138.993 19.0383 139.81 18.875 140.79 18.875C141.933 18.875 142.878 19.05 143.625 19.4C144.395 19.75 145.013 20.135 145.48 20.555C146.017 21.045 146.437 21.5933 146.74 22.2H146.915C147.218 21.5933 147.638 21.045 148.175 20.555C148.642 20.135 149.225 19.75 149.925 19.4C150.648 19.05 151.57 18.875 152.69 18.875C154.813 18.875 156.482 19.5167 157.695 20.8C158.908 22.06 159.515 23.9267 159.515 26.4V37.25H154.615V26.925C154.615 25.595 154.323 24.6267 153.74 24.02C153.157 23.39 152.34 23.075 151.29 23.075C150.24 23.075 149.33 23.4833 148.56 24.3C147.813 25.1167 147.44 26.225 147.44 27.625V37.25H142.54V26.925C142.54 25.595 142.248 24.6267 141.665 24.02C141.082 23.39 140.265 23.075 139.215 23.075C138.165 23.075 137.255 23.4833 136.485 24.3C135.738 25.1167 135.365 26.225 135.365 27.625V37.25H130.465V19.4ZM171.75 37.775C170.397 37.775 169.125 37.53 167.935 37.04C166.768 36.55 165.753 35.885 164.89 35.045C164.027 34.1817 163.35 33.1783 162.86 32.035C162.37 30.8683 162.125 29.6317 162.125 28.325C162.125 27.0183 162.37 25.7933 162.86 24.65C163.35 23.4833 164.027 22.48 164.89 21.64C165.753 20.7767 166.768 20.1 167.935 19.61C169.125 19.12 170.397 18.875 171.75 18.875C173.15 18.875 174.422 19.12 175.565 19.61C176.732 20.1 177.735 20.7767 178.575 21.64C179.415 22.5033 180.057 23.5067 180.5 24.65C180.967 25.7933 181.2 27.0183 181.2 28.325V29.375H167.2C167.293 29.935 167.468 30.4717 167.725 30.985C168.005 31.4983 168.343 31.9533 168.74 32.35C169.16 32.7233 169.627 33.0267 170.14 33.26C170.653 33.47 171.19 33.575 171.75 33.575C172.543 33.575 173.185 33.47 173.675 33.26C174.188 33.0267 174.608 32.7817 174.935 32.525C175.285 32.2217 175.565 31.8717 175.775 31.475H181.025C180.652 32.6417 180.068 33.6917 179.275 34.625C178.925 35.0217 178.517 35.4067 178.05 35.78C177.583 36.1533 177.047 36.4917 176.44 36.795C175.833 37.0983 175.133 37.3317 174.34 37.495C173.57 37.6817 172.707 37.775 171.75 37.775ZM175.95 26.4C175.857 25.9567 175.693 25.5367 175.46 25.14C175.227 24.7433 174.923 24.3933 174.55 24.09C174.2 23.7867 173.78 23.5417 173.29 23.355C172.823 23.1683 172.31 23.075 171.75 23.075C170.607 23.075 169.65 23.4133 168.88 24.09C168.133 24.7433 167.632 25.5133 167.375 26.4H175.95Z" fill="#111318"/>
<path d="M2.086 75.5H0.952V65.7H2.17V73.47L7.42 65.7H8.554V75.5H7.336V67.73L2.086 75.5ZM15.452 71.342V68.36H16.6V75.5H15.452V72.392H11.434V75.5H10.286V68.36H11.434V71.342H15.452ZM21.3806 75.584C19.2946 75.584 17.9226 74.17 17.9226 71.944C17.9226 69.76 19.3366 68.276 21.4086 68.276C23.1586 68.276 24.2646 69.256 24.5586 70.824H23.3546C23.1446 69.872 22.4446 69.298 21.3946 69.298C20.0226 69.298 19.0986 70.39 19.0986 71.944C19.0986 73.498 20.0226 74.562 21.3946 74.562C22.4166 74.562 23.1166 73.974 23.3406 73.064H24.5586C24.2786 74.604 23.1166 75.584 21.3806 75.584ZM28.6654 75.5H27.5174V69.41H24.9414V68.36H31.2414V69.41H28.6654V75.5ZM35.7863 68.276C37.7603 68.276 39.2163 69.606 39.2163 71.93C39.2163 74.114 37.7603 75.584 35.7863 75.584C34.5823 75.584 33.7703 75.094 33.3363 74.408V78.3H32.1883V68.36H33.1823L33.3363 69.508C33.8123 68.85 34.5823 68.276 35.7863 68.276ZM35.6743 74.562C37.0883 74.562 38.0403 73.484 38.0403 71.93C38.0403 70.376 37.0883 69.298 35.6743 69.298C34.2743 69.298 33.3223 70.376 33.3223 71.902C33.3223 73.47 34.2743 74.562 35.6743 74.562ZM42.231 75.542L39.445 68.36H40.663L42.861 74.058L44.989 68.36H46.207L42.917 76.704C42.469 77.852 42.203 78.3 41.195 78.3H39.823V77.25H40.845C41.503 77.25 41.615 77.082 41.881 76.41L42.231 75.542ZM48.1693 75.5H47.0633V68.36H48.4773L51.2213 74.1L53.9233 68.36H55.2953L55.3233 75.5H54.2173V70.11L51.6553 75.5H50.7313L48.1693 70.11V75.5ZM60.1834 75.584C58.0414 75.584 56.6414 74.114 56.6414 71.93C56.6414 69.76 58.0134 68.276 60.0294 68.276C62.0454 68.276 63.3614 69.55 63.4174 71.664C63.4174 71.818 63.4034 71.986 63.3894 72.154H57.8454V72.252C57.8874 73.61 58.7414 74.562 60.0994 74.562C61.1074 74.562 61.8914 74.03 62.1294 73.106H63.2914C63.0114 74.534 61.8354 75.584 60.1834 75.584ZM57.9154 71.202H62.1854C62.0734 69.97 61.2334 69.284 60.0434 69.284C58.9934 69.284 58.0274 70.04 57.9154 71.202ZM69.8934 71.342V68.36H71.0414V75.5H69.8934V72.392H65.8754V75.5H64.7274V68.36H65.8754V71.342H69.8934ZM75.7514 75.5H74.6034V69.41H72.0274V68.36H78.3274V69.41H75.7514V75.5ZM82.2422 75.5H79.2742V68.36H80.4222V70.684H82.2422C84.0202 70.684 85.0422 71.566 85.0422 73.092C85.0422 74.604 84.0202 75.5 82.2422 75.5ZM87.3522 75.5H86.2042V68.36H87.3522V75.5ZM80.4222 71.664V74.52H82.0602C83.2362 74.52 83.8802 74.002 83.8802 73.092C83.8802 72.154 83.2362 71.664 82.0602 71.664H80.4222ZM98.9046 68.36V74.45H100.039V77.39H98.8906V75.5H93.0666V77.39H91.9186V74.45H92.6466C93.1646 74.058 93.4446 73.554 93.4446 71.342V68.36H98.9046ZM94.0326 74.45H97.7566V69.41H94.5646V71.468C94.5646 73.106 94.3826 73.904 94.0326 74.45ZM101.1 75.5H100.708V74.45H100.918C101.73 74.45 102.038 73.96 102.038 71.818V68.36H107.442V75.5H106.294V69.41H103.158V71.86C103.158 74.702 102.486 75.5 101.1 75.5ZM111.517 68.36H114.653V75.5H113.505V73.05H111.601L109.851 75.5H108.507L110.467 72.896C109.319 72.644 108.689 71.86 108.689 70.712C108.689 69.242 109.711 68.36 111.517 68.36ZM111.545 72.056H113.505V69.34H111.545C110.467 69.34 109.851 69.802 109.851 70.684C109.851 71.608 110.467 72.056 111.545 72.056ZM121.028 75.5H119.88V68.36H126.054V75.5H124.906V69.41H121.028V75.5ZM131.216 68.276C133.19 68.276 134.646 69.606 134.646 71.93C134.646 74.114 133.19 75.584 131.216 75.584C130.012 75.584 129.2 75.094 128.766 74.408V78.3H127.618V68.36H128.612L128.766 69.508C129.242 68.85 130.012 68.276 131.216 68.276ZM131.104 74.562C132.518 74.562 133.47 73.484 133.47 71.93C133.47 70.376 132.518 69.298 131.104 69.298C129.704 69.298 128.752 70.376 128.752 71.902C128.752 73.47 129.704 74.562 131.104 74.562ZM139.248 75.584C137.162 75.584 135.706 74.1 135.706 71.93C135.706 69.76 137.162 68.276 139.248 68.276C141.334 68.276 142.79 69.76 142.79 71.93C142.79 74.1 141.334 75.584 139.248 75.584ZM139.248 74.562C140.662 74.562 141.614 73.456 141.614 71.93C141.614 70.404 140.662 69.298 139.248 69.298C137.834 69.298 136.882 70.404 136.882 71.93C136.882 73.456 137.834 74.562 139.248 74.562ZM149.034 78.3H147.914V75.556C145.464 75.5 143.854 74.1 143.854 71.93C143.854 69.788 145.478 68.374 147.914 68.304V65.924H149.034V68.304C151.47 68.374 153.08 69.76 153.08 71.93C153.08 74.072 151.47 75.5 149.034 75.556V78.3ZM147.914 74.548V69.312C146.164 69.354 145.03 70.32 145.03 71.93C145.03 73.54 146.164 74.506 147.914 74.548ZM149.02 69.312V74.548C150.784 74.506 151.904 73.54 151.904 71.93C151.904 70.32 150.784 69.354 149.02 69.312ZM157.691 75.584C155.549 75.584 154.149 74.114 154.149 71.93C154.149 69.76 155.521 68.276 157.537 68.276C159.553 68.276 160.869 69.55 160.925 71.664C160.925 71.818 160.911 71.986 160.897 72.154H155.353V72.252C155.395 73.61 156.249 74.562 157.607 74.562C158.615 74.562 159.399 74.03 159.637 73.106H160.799C160.519 74.534 159.343 75.584 157.691 75.584ZM155.423 71.202H159.693C159.581 69.97 158.741 69.284 157.551 69.284C156.501 69.284 155.535 70.04 155.423 71.202ZM165.441 75.584C163.355 75.584 161.983 74.17 161.983 71.944C161.983 69.76 163.397 68.276 165.469 68.276C167.219 68.276 168.325 69.256 168.619 70.824H167.415C167.205 69.872 166.505 69.298 165.455 69.298C164.083 69.298 163.159 70.39 163.159 71.944C163.159 73.498 164.083 74.562 165.455 74.562C166.477 74.562 167.177 73.974 167.401 73.064H168.619C168.339 74.604 167.177 75.584 165.441 75.584ZM172.933 75.584C170.847 75.584 169.475 74.17 169.475 71.944C169.475 69.76 170.889 68.276 172.961 68.276C174.711 68.276 175.817 69.256 176.111 70.824H174.907C174.697 69.872 173.997 69.298 172.947 69.298C171.575 69.298 170.651 70.39 170.651 71.944C170.651 73.498 171.575 74.562 172.947 74.562C173.969 74.562 174.669 73.974 174.893 73.064H176.111C175.831 74.604 174.669 75.584 172.933 75.584ZM178.378 75.5H177.37V68.36H178.49V73.764L182.746 68.36H183.754V75.5H182.634V70.082L178.378 75.5ZM188.617 75.584C186.531 75.584 185.075 74.1 185.075 71.93C185.075 69.76 186.531 68.276 188.617 68.276C190.703 68.276 192.159 69.76 192.159 71.93C192.159 74.1 190.703 75.584 188.617 75.584ZM188.617 74.562C190.031 74.562 190.983 73.456 190.983 71.93C190.983 70.404 190.031 69.298 188.617 69.298C187.203 69.298 186.251 70.404 186.251 71.93C186.251 73.456 187.203 74.562 188.617 74.562ZM198.641 71.342V68.36H199.789V75.5H198.641V72.392H194.623V75.5H193.475V68.36H194.623V71.342H198.641ZM207.678 74.45H208.042V75.5H207.412C206.46 75.5 206.138 75.094 206.124 74.394C205.676 75.038 204.962 75.584 203.73 75.584C202.162 75.584 201.098 74.8 201.098 73.498C201.098 72.07 202.092 71.272 203.968 71.272H206.068V70.782C206.068 69.858 205.41 69.298 204.29 69.298C203.282 69.298 202.61 69.774 202.47 70.502H201.322C201.49 69.102 202.624 68.276 204.346 68.276C206.166 68.276 207.216 69.186 207.216 70.852V73.974C207.216 74.352 207.356 74.45 207.678 74.45ZM206.068 72.588V72.238H203.856C202.834 72.238 202.26 72.616 202.26 73.428C202.26 74.128 202.862 74.604 203.814 74.604C205.242 74.604 206.068 73.778 206.068 72.588ZM208.957 75.5H208.565V74.45H208.775C209.587 74.45 209.895 73.96 209.895 71.818V68.36H215.299V75.5H214.151V69.41H211.015V71.86C211.015 74.702 210.343 75.5 208.957 75.5ZM219.934 75.5H216.868V68.36H218.016V70.684H219.934C221.712 70.684 222.734 71.566 222.734 73.092C222.734 74.604 221.712 75.5 219.934 75.5ZM218.016 71.664V74.52H219.752C220.928 74.52 221.572 74.002 221.572 73.092C221.572 72.154 220.928 71.664 219.752 71.664H218.016ZM229.143 71.342V68.36H230.291V75.5H229.143V72.392H225.125V75.5H223.977V68.36H225.125V71.342H229.143ZM234.834 75.5H231.866V68.36H233.014V70.684H234.834C236.612 70.684 237.634 71.566 237.634 73.092C237.634 74.604 236.612 75.5 234.834 75.5ZM239.944 75.5H238.796V68.36H239.944V75.5ZM233.014 71.664V74.52H234.652C235.828 74.52 236.472 74.002 236.472 73.092C236.472 72.154 235.828 71.664 234.652 71.664H233.014ZM240.762 75.5L243.478 71.832L240.944 68.36H242.316L244.206 71.006L246.124 68.36H247.426L244.878 71.832L247.608 75.5H246.236L244.15 72.63L242.064 75.5H240.762ZM3.99 91.584C1.904 91.584 0.532 90.17 0.532 87.944C0.532 85.76 1.946 84.276 4.018 84.276C5.768 84.276 6.874 85.256 7.168 86.824H5.964C5.754 85.872 5.054 85.298 4.004 85.298C2.632 85.298 1.708 86.39 1.708 87.944C1.708 89.498 2.632 90.562 4.004 90.562C5.026 90.562 5.726 89.974 5.95 89.064H7.168C6.888 90.604 5.726 91.584 3.99 91.584ZM11.2748 91.5H10.1268V85.41H7.55081V84.36H13.8508V85.41H11.2748V91.5ZM17.6775 91.584C15.5915 91.584 14.1355 90.1 14.1355 87.93C14.1355 85.76 15.5915 84.276 17.6775 84.276C19.7635 84.276 21.2195 85.76 21.2195 87.93C21.2195 90.1 19.7635 91.584 17.6775 91.584ZM17.6775 90.562C19.0915 90.562 20.0435 89.456 20.0435 87.93C20.0435 86.404 19.0915 85.298 17.6775 85.298C16.2635 85.298 15.3115 86.404 15.3115 87.93C15.3115 89.456 16.2635 90.562 17.6775 90.562ZM23.642 91.5H22.536V84.36H23.95L26.694 90.1L29.396 84.36H30.768L30.796 91.5H29.69V86.11L27.128 91.5H26.204L23.642 86.11V91.5ZM38.68 90.45H39.044V91.5H38.414C37.462 91.5 37.14 91.094 37.126 90.394C36.678 91.038 35.964 91.584 34.732 91.584C33.164 91.584 32.1 90.8 32.1 89.498C32.1 88.07 33.094 87.272 34.97 87.272H37.07V86.782C37.07 85.858 36.412 85.298 35.292 85.298C34.284 85.298 33.612 85.774 33.472 86.502H32.324C32.492 85.102 33.626 84.276 35.348 84.276C37.168 84.276 38.218 85.186 38.218 86.852V89.974C38.218 90.352 38.358 90.45 38.68 90.45ZM37.07 88.588V88.238H34.858C33.836 88.238 33.262 88.616 33.262 89.428C33.262 90.128 33.864 90.604 34.816 90.604C36.244 90.604 37.07 89.778 37.07 88.588ZM42.5971 91.5H41.4491V85.41H38.8731V84.36H45.1731V85.41H42.5971V91.5ZM48.9998 91.584C46.9138 91.584 45.4578 90.1 45.4578 87.93C45.4578 85.76 46.9138 84.276 48.9998 84.276C51.0858 84.276 52.5418 85.76 52.5418 87.93C52.5418 90.1 51.0858 91.584 48.9998 91.584ZM48.9998 90.562C50.4138 90.562 51.3658 89.456 51.3658 87.93C51.3658 86.404 50.4138 85.298 48.9998 85.298C47.5858 85.298 46.6338 86.404 46.6338 87.93C46.6338 89.456 47.5858 90.562 48.9998 90.562ZM53.2895 91.5H52.8975V90.45H53.1075C53.9195 90.45 54.2275 89.96 54.2275 87.818V84.36H59.6315V91.5H58.4835V85.41H55.3475V87.86C55.3475 90.702 54.6755 91.5 53.2895 91.5ZM64.49 91.584C62.404 91.584 60.948 90.1 60.948 87.93C60.948 85.76 62.404 84.276 64.49 84.276C66.576 84.276 68.032 85.76 68.032 87.93C68.032 90.1 66.576 91.584 64.49 91.584ZM64.49 90.562C65.904 90.562 66.856 89.456 66.856 87.93C66.856 86.404 65.904 85.298 64.49 85.298C63.076 85.298 62.124 86.404 62.124 87.93C62.124 89.456 63.076 90.562 64.49 90.562ZM70.4965 91.5H69.3485V84.36H73.9265V85.41H70.4965V91.5ZM77.7517 91.584C75.6657 91.584 74.2097 90.1 74.2097 87.93C74.2097 85.76 75.6657 84.276 77.7517 84.276C79.8377 84.276 81.2937 85.76 81.2937 87.93C81.2937 90.1 79.8377 91.584 77.7517 91.584ZM77.7517 90.562C79.1657 90.562 80.1177 89.456 80.1177 87.93C80.1177 86.404 79.1657 85.298 77.7517 85.298C76.3377 85.298 75.3857 86.404 75.3857 87.93C75.3857 89.456 76.3377 90.562 77.7517 90.562ZM85.6902 91.5H82.6102V84.36H85.6482C87.4122 84.36 88.2662 85.046 88.2662 86.278C88.2662 87.174 87.6782 87.664 87.0902 87.804C87.9162 87.93 88.5322 88.448 88.5322 89.428C88.5322 90.814 87.5522 91.5 85.6902 91.5ZM83.7582 85.34V87.398H85.7462C86.6982 87.398 87.1042 87.006 87.1042 86.362C87.1042 85.676 86.6982 85.34 85.7462 85.34H83.7582ZM83.7582 88.35V90.52H85.8582C86.8382 90.52 87.3702 90.184 87.3702 89.442C87.3702 88.742 86.8382 88.35 85.8582 88.35H83.7582Z" fill="#111318"/>
</svg>
