<svg width="181" height="63" viewBox="0 0 181 63" fill="none" xmlns="http://www.w3.org/2000/svg">
<path d="M26.9648 9.93526V16.4758H48.4353V9.98886C48.4353 6.40895 45.7361 3.36382 42.1627 3.14742C39.0629 2.9597 36.2858 2.94788 33.1822 3.13141C29.6312 3.34138 26.9648 6.37807 26.9648 9.93526Z" stroke="#E1A117" stroke-width="5.5"/>
<path d="M58.4211 36.142C58.4211 46.6657 49.3841 55.4207 37.9527 55.4207C26.5214 55.4207 17.4844 46.6657 17.4844 36.142C17.4844 25.6183 26.5214 16.8633 37.9527 16.8633C49.3841 16.8633 58.4211 25.6183 58.4211 36.142Z" stroke="url(#paint0_linear_1583_1433)" stroke-width="5"/>
<rect x="34.957" y="24.7812" width="4.99312" height="22.7256" fill="url(#paint1_linear_1583_1433)"/>
<rect width="4.7345" height="23.967" transform="matrix(0 -1 -1 0 49.4375 38.5117)" fill="url(#paint2_linear_1583_1433)"/>
<path d="M59.0849 56.0276H16.2932C14.9719 56.0276 13.8062 55.1632 13.4225 53.8988L3.56631 21.4193C2.78671 18.8503 4.70921 16.2578 7.39395 16.2578H67.5734C70.2387 16.2578 72.1585 18.8155 71.4143 21.3748L61.9655 53.8654C61.593 55.1465 60.4191 56.0276 59.0849 56.0276Z" stroke="url(#paint3_linear_1583_1433)" stroke-width="6"/>
<path d="M87.6921 8.11435V31.0234H81.4727V8.11435H87.6921ZM101.729 15.2734C101.669 14.5277 101.39 13.946 100.89 13.5284C100.398 13.1108 99.6485 12.902 98.6417 12.902C98.0004 12.902 97.4746 12.9803 97.0645 13.1369C96.6618 13.286 96.3635 13.4911 96.1696 13.7521C95.9757 14.0131 95.875 14.3114 95.8676 14.647C95.8527 14.9229 95.9011 15.1728 96.013 15.3965C96.1323 15.6127 96.3187 15.8104 96.5723 15.9893C96.8258 16.1609 97.1502 16.3175 97.5455 16.4592C97.9407 16.6009 98.4105 16.7276 98.9549 16.8395L100.834 17.2422C102.102 17.5107 103.187 17.8649 104.089 18.3049C104.992 18.7449 105.73 19.2631 106.304 19.8597C106.878 20.4489 107.3 21.1126 107.568 21.8509C107.844 22.5891 107.986 23.3945 107.993 24.267C107.986 25.7734 107.609 27.0487 106.863 28.0927C106.118 29.1367 105.051 29.9309 103.664 30.4753C102.285 31.0197 100.625 31.2919 98.6865 31.2919C96.6953 31.2919 94.9578 30.9973 93.4738 30.4082C91.9972 29.8191 90.8488 28.913 90.0284 27.69C89.2156 26.4595 88.8054 24.886 88.798 22.9695H94.7042C94.7415 23.6705 94.9168 24.2596 95.23 24.7369C95.5432 25.2141 95.9832 25.5758 96.5499 25.8219C97.1241 26.068 97.8065 26.1911 98.597 26.1911C99.2607 26.1911 99.8163 26.109 100.264 25.945C100.711 25.7809 101.05 25.5534 101.282 25.2626C101.513 24.9718 101.632 24.6399 101.64 24.267C101.632 23.9165 101.517 23.6108 101.293 23.3498C101.077 23.0813 100.719 22.8427 100.219 22.6339C99.7193 22.4176 99.0444 22.2163 98.1943 22.0298L95.9123 21.5376C93.8839 21.0977 92.2843 20.3631 91.1135 19.334C89.9501 18.2974 89.3722 16.8842 89.3796 15.0945C89.3722 13.6403 89.76 12.3688 90.543 11.28C91.3335 10.1838 92.426 9.3299 93.8205 8.71839C95.2225 8.10689 96.8296 7.80114 98.6417 7.80114C100.491 7.80114 102.091 8.11062 103.441 8.72958C104.79 9.34854 105.831 10.2211 106.561 11.3471C107.3 12.4657 107.673 13.7745 107.68 15.2734H101.729ZM108.473 13.1257V8.11435H128.384V13.1257H121.493V31.0234H115.363V13.1257H108.473ZM150.581 19.5689C150.581 22.1193 150.085 24.2708 149.093 26.0233C148.102 27.7683 146.763 29.092 145.078 29.9943C143.392 30.8892 141.513 31.3366 139.44 31.3366C137.352 31.3366 135.465 30.8855 133.78 29.9831C132.102 29.0733 130.767 27.7459 129.775 26.0009C128.791 24.2484 128.298 22.1044 128.298 19.5689C128.298 17.0185 128.791 14.8707 129.775 13.1257C130.767 11.3732 132.102 10.0495 133.78 9.15465C135.465 8.25231 137.352 7.80114 139.44 7.80114C141.513 7.80114 143.392 8.25231 145.078 9.15465C146.763 10.0495 148.102 11.3732 149.093 13.1257C150.085 14.8707 150.581 17.0185 150.581 19.5689ZM144.183 19.5689C144.183 18.1967 144 17.0408 143.635 16.1012C143.277 15.1541 142.743 14.4382 142.035 13.9535C141.334 13.4613 140.469 13.2152 139.44 13.2152C138.411 13.2152 137.542 13.4613 136.833 13.9535C136.132 14.4382 135.599 15.1541 135.234 16.1012C134.876 17.0408 134.697 18.1967 134.697 19.5689C134.697 20.9411 134.876 22.1007 135.234 23.0478C135.599 23.9874 136.132 24.7033 136.833 25.1955C137.542 25.6802 138.411 25.9226 139.44 25.9226C140.469 25.9226 141.334 25.6802 142.035 25.1955C142.743 24.7033 143.277 23.9874 143.635 23.0478C144 22.1007 144.183 20.9411 144.183 19.5689ZM152.199 8.11435H159.94L165.264 21.0902H165.533L170.857 8.11435H178.598V31.0234H172.513V17.7791H172.334L167.233 30.8445H163.564L158.463 17.6896H158.284V31.0234H152.199V8.11435ZM93.8221 43.2734C93.7624 42.5277 93.4828 41.946 92.9831 41.5284C92.4909 41.1108 91.7415 40.902 90.7347 40.902C90.0934 40.902 89.5676 40.9803 89.1575 41.1369C88.7548 41.286 88.4565 41.4911 88.2626 41.7521C88.0687 42.0131 87.968 42.3114 87.9606 42.647C87.9457 42.9229 87.9941 43.1728 88.106 43.3965C88.2253 43.6127 88.4118 43.8104 88.6653 43.9893C88.9189 44.1609 89.2433 44.3175 89.6385 44.4592C90.0337 44.6009 90.5036 44.7276 91.0479 44.8395L92.9272 45.2422C94.195 45.5107 95.28 45.8649 96.1824 46.3049C97.0847 46.7449 97.823 47.2631 98.3972 47.8597C98.9714 48.4489 99.3928 49.1126 99.6612 49.8509C99.9371 50.5891 100.079 51.3945 100.086 52.267C100.079 53.7734 99.7022 55.0487 98.9565 56.0927C98.2108 57.1367 97.1444 57.9309 95.7573 58.4753C94.3777 59.0197 92.7184 59.2919 90.7795 59.2919C88.7884 59.2919 87.0508 58.9973 85.5668 58.4082C84.0902 57.8191 82.9418 56.913 82.1214 55.69C81.3086 54.4595 80.8984 52.886 80.891 50.9695H86.7972C86.8345 51.6705 87.0098 52.2596 87.323 52.7369C87.6362 53.2141 88.0762 53.5758 88.6429 53.8219C89.2172 54.068 89.8995 54.1911 90.69 54.1911C91.3537 54.1911 91.9093 54.109 92.3567 53.945C92.8042 53.7809 93.1435 53.5534 93.3746 53.2626C93.6058 52.9718 93.7251 52.6399 93.7326 52.267C93.7251 51.9165 93.6096 51.6108 93.3858 51.3498C93.1696 51.0813 92.8116 50.8427 92.312 50.6339C91.8123 50.4176 91.1374 50.2163 90.2873 50.0298L88.0053 49.5376C85.9769 49.0977 84.3773 48.3631 83.2065 47.334C82.0431 46.2974 81.4652 44.8842 81.4727 43.0945C81.4652 41.6403 81.853 40.3688 82.636 39.28C83.4265 38.1838 84.519 37.3299 85.9135 36.7184C87.3155 36.1069 88.9226 35.8011 90.7347 35.8011C92.5842 35.8011 94.1838 36.1106 95.5336 36.7296C96.8833 37.3485 97.9237 38.2211 98.6545 39.3471C99.3928 40.4657 99.7656 41.7745 99.7731 43.2734H93.8221ZM101.192 59.0234V36.1143H107.412V45.0632H115.645V36.1143H121.864V59.0234H115.645V50.0746H107.412V59.0234H101.192ZM145.75 47.5689C145.75 50.1193 145.254 52.2708 144.263 54.0233C143.271 55.7683 141.932 57.092 140.247 57.9943C138.561 58.8892 136.682 59.3366 134.609 59.3366C132.521 59.3366 130.634 58.8855 128.949 57.9831C127.271 57.0733 125.936 55.7459 124.944 54.0009C123.96 52.2484 123.468 50.1044 123.468 47.5689C123.468 45.0185 123.96 42.8707 124.944 41.1257C125.936 39.3732 127.271 38.0495 128.949 37.1547C130.634 36.2523 132.521 35.8011 134.609 35.8011C136.682 35.8011 138.561 36.2523 140.247 37.1547C141.932 38.0495 143.271 39.3732 144.263 41.1257C145.254 42.8707 145.75 45.0185 145.75 47.5689ZM139.352 47.5689C139.352 46.1967 139.169 45.0408 138.804 44.1012C138.446 43.1541 137.913 42.4382 137.204 41.9535C136.503 41.4613 135.638 41.2152 134.609 41.2152C133.58 41.2152 132.711 41.4613 132.003 41.9535C131.302 42.4382 130.768 43.1541 130.403 44.1012C130.045 45.0408 129.866 46.1967 129.866 47.5689C129.866 48.9411 130.045 50.1007 130.403 51.0478C130.768 51.9874 131.302 52.7033 132.003 53.1955C132.711 53.6802 133.58 53.9226 134.609 53.9226C135.638 53.9226 136.503 53.6802 137.204 53.1955C137.913 52.7033 138.446 51.9874 138.804 51.0478C139.169 50.1007 139.352 48.9411 139.352 47.5689ZM147.368 59.0234V36.1143H157.256C158.957 36.1143 160.444 36.4499 161.72 37.1211C162.995 37.7923 163.987 38.7356 164.695 39.9512C165.404 41.1667 165.758 42.5874 165.758 44.2131C165.758 45.8537 165.392 47.2743 164.662 48.475C163.938 49.6756 162.92 50.6003 161.608 51.2491C160.303 51.8979 158.778 52.2223 157.033 52.2223H151.126V47.3899H155.78C156.511 47.3899 157.133 47.2631 157.648 47.0096C158.17 46.7486 158.569 46.3794 158.845 45.9022C159.128 45.4249 159.27 44.8619 159.27 44.2131C159.27 43.5568 159.128 42.9975 158.845 42.5352C158.569 42.0653 158.17 41.7074 157.648 41.4613C157.133 41.2077 156.511 41.081 155.78 41.081H153.587V59.0234H147.368Z" fill="black"/>
<defs>
<linearGradient id="paint0_linear_1583_1433" x1="37.9527" y1="14.3633" x2="37.9527" y2="57.9207" gradientUnits="userSpaceOnUse">
<stop stop-color="#E1A117"/>
<stop offset="1" stop-color="#C17713"/>
</linearGradient>
<linearGradient id="paint1_linear_1583_1433" x1="37.4536" y1="24.7812" x2="37.4536" y2="47.5069" gradientUnits="userSpaceOnUse">
<stop stop-color="#DD9A16"/>
<stop offset="1" stop-color="#CB8516"/>
</linearGradient>
<linearGradient id="paint2_linear_1583_1433" x1="2.36725" y1="0" x2="2.36725" y2="23.967" gradientUnits="userSpaceOnUse">
<stop stop-color="#DD9A16"/>
<stop offset="1" stop-color="#CB8516"/>
</linearGradient>
<linearGradient id="paint3_linear_1583_1433" x1="37.4512" y1="16.2578" x2="37.4512" y2="56.0276" gradientUnits="userSpaceOnUse">
<stop stop-color="#E1A117"/>
<stop offset="1" stop-color="#C17713"/>
</linearGradient>
</defs>
</svg>
