<svg width="37" height="33" viewBox="0 0 37 33" fill="none" xmlns="http://www.w3.org/2000/svg">
<path d="M19.378 6.60198C19.2633 6.53503 19.1328 6.49976 19 6.49976C18.8672 6.49976 18.7367 6.53503 18.622 6.60198L10 11.632L19 16.882L28 11.632L19.378 6.60198ZM28.75 12.93L19.75 18.18V27.18L28.378 22.148C28.4912 22.0819 28.5852 21.9873 28.6504 21.8736C28.7157 21.7599 28.75 21.6311 28.75 21.5V12.93ZM18.25 27.18V18.18L9.25 12.93V21.5C9.24996 21.6311 9.28429 21.7599 9.34956 21.8736C9.41483 21.9873 9.50877 22.0819 9.622 22.148L18.25 27.18Z" fill="white"/>
<circle cx="28.5" cy="9.5" r="8.5" fill="#FFB224"/>
<path d="M29.0917 8.9412H32.3635V10.0747H29.0917V13.3636H27.908V10.0747H24.6362V8.9412H27.908V5.63635H29.0917V8.9412Z" fill="black"/>
</svg>
