<svg width="22" height="25" viewBox="0 0 22 25" fill="none" xmlns="http://www.w3.org/2000/svg">
<path fill-rule="evenodd" clip-rule="evenodd" d="M5.85729 5.39286V6.25H3.5865C2.48938 6.25 1.57055 7.07743 1.45513 8.16886L0.0117398 21.8831C-0.0196533 22.1818 0.0120855 22.4838 0.104898 22.7694C0.19771 23.055 0.349523 23.3179 0.550489 23.5411C0.751456 23.7643 0.997088 23.9427 1.27145 24.0648C1.54582 24.187 1.84279 24.25 2.14311 24.25H19.8569C20.1572 24.25 20.4542 24.187 20.7285 24.0648C21.0029 23.9427 21.2485 23.7643 21.4495 23.5411C21.6505 23.3179 21.8023 23.055 21.8951 22.7694C21.9879 22.4838 22.0197 22.1818 21.9883 21.8831L20.5449 8.16886C20.4895 7.64217 20.2411 7.15463 19.8475 6.8003C19.4539 6.44596 18.9431 6.24992 18.4135 6.25H16.1427V5.39286C16.1427 4.02889 15.6009 2.72078 14.6364 1.75631C13.672 0.791835 12.3639 0.25 11 0.25C9.63607 0.25 8.328 0.791835 7.36355 1.75631C6.39911 2.72078 5.85729 4.02889 5.85729 5.39286ZM11 1.96429C10.0907 1.96429 9.21867 2.32551 8.5757 2.96849C7.93274 3.61147 7.57153 4.48354 7.57153 5.39286V6.25H14.4285V5.39286C14.4285 4.48354 14.0673 3.61147 13.4243 2.96849C12.7813 2.32551 11.9093 1.96429 11 1.96429ZM7.57153 11.3929C7.57153 12.3022 7.93274 13.1742 8.5757 13.8172C9.21867 14.4602 10.0907 14.8214 11 14.8214C11.9093 14.8214 12.7813 14.4602 13.4243 13.8172C14.0673 13.1742 14.4285 12.3022 14.4285 11.3929V10.5357C14.4285 10.3084 14.5188 10.0904 14.6795 9.92962C14.8403 9.76888 15.0583 9.67857 15.2856 9.67857C15.5129 9.67857 15.7309 9.76888 15.8917 9.92962C16.0524 10.0904 16.1427 10.3084 16.1427 10.5357V11.3929C16.1427 12.7568 15.6009 14.0649 14.6364 15.0294C13.672 15.9939 12.3639 16.5357 11 16.5357C9.63607 16.5357 8.328 15.9939 7.36355 15.0294C6.39911 14.0649 5.85729 12.7568 5.85729 11.3929V10.5357C5.85729 10.3084 5.94759 10.0904 6.10833 9.92962C6.26907 9.76888 6.48709 9.67857 6.71441 9.67857C6.94173 9.67857 7.15974 9.76888 7.32048 9.92962C7.48122 10.0904 7.57153 10.3084 7.57153 10.5357V11.3929Z" fill="#E9E9E9"/>
</svg>
