<svg width="22" height="21" viewBox="0 0 22 21" fill="none" xmlns="http://www.w3.org/2000/svg">
<path d="M10.5995 20.1506L10.5916 20.1473L10.5668 20.1339C10.4216 20.0552 10.2775 19.9745 10.1347 19.8917C8.41733 18.8867 6.81241 17.706 5.34656 16.3694C2.75056 13.9838 0 10.4437 0 6.08356C0 2.83014 2.7799 0.250079 6.13518 0.250079C7.06793 0.245579 7.9897 0.44824 8.83195 0.842989C9.6742 1.23774 10.4153 1.81442 11 2.53014C11.5849 1.81427 12.3261 1.2375 13.1686 0.842747C14.011 0.447992 14.933 0.245412 15.8659 0.250079C19.2201 0.250079 22 2.83014 22 6.08356C22 10.4448 19.2494 13.9849 16.6534 16.3683C15.1876 17.7049 13.5827 18.8856 11.8653 19.8906C11.7225 19.9737 11.5784 20.0549 11.4332 20.1339L11.4084 20.1473L11.4005 20.1517L11.3971 20.1528C11.2748 20.2166 11.1384 20.25 11 20.25C10.8616 20.25 10.7252 20.2166 10.6029 20.1528L10.5995 20.1506Z" fill="#E9E9E9"/>
</svg>
