<svg width="18" height="18" viewBox="0 0 18 18" fill="none" xmlns="http://www.w3.org/2000/svg">
<path fill-rule="evenodd" clip-rule="evenodd" d="M15 1.38462C15.3978 1.38462 15.7794 1.53049 16.0607 1.79016C16.342 2.04983 16.5 2.40201 16.5 2.76923V15.2308C16.5 15.598 16.342 15.9502 16.0607 16.2098C15.7794 16.4695 15.3978 16.6154 15 16.6154H9C8.60218 16.6154 8.22064 16.4695 7.93934 16.2098C7.65804 15.9502 7.5 15.598 7.5 15.2308V11.7692C7.5 11.5856 7.42098 11.4095 7.28033 11.2797C7.13968 11.1499 6.94891 11.0769 6.75 11.0769C6.55109 11.0769 6.36032 11.1499 6.21967 11.2797C6.07902 11.4095 6 11.5856 6 11.7692V15.2308C6 15.9652 6.31607 16.6696 6.87868 17.1889C7.44129 17.7082 8.20435 18 9 18H15C15.7956 18 16.5587 17.7082 17.1213 17.1889C17.6839 16.6696 18 15.9652 18 15.2308V2.76923C18 2.03479 17.6839 1.33042 17.1213 0.811089C16.5587 0.291757 15.7956 0 15 0H9C8.20435 0 7.44129 0.291757 6.87868 0.811089C6.31607 1.33042 6 2.03479 6 2.76923V6.23077C6 6.41438 6.07902 6.59047 6.21967 6.7203C6.36032 6.85014 6.55109 6.92308 6.75 6.92308C6.94891 6.92308 7.13968 6.85014 7.28033 6.7203C7.42098 6.59047 7.5 6.41438 7.5 6.23077V2.76923C7.5 2.40201 7.65804 2.04983 7.93934 1.79016C8.22064 1.53049 8.60218 1.38462 9 1.38462H15ZM9.97 5.74154C9.82955 5.87135 9.75066 6.04731 9.75066 6.23077C9.75066 6.41423 9.82955 6.59019 9.97 6.72L11.69 8.30769H0.75C0.551088 8.30769 0.360322 8.38063 0.21967 8.51046C0.0790177 8.6403 0 8.81639 0 9C0 9.18361 0.0790177 9.3597 0.21967 9.48954C0.360322 9.61937 0.551088 9.69231 0.75 9.69231H11.69L9.97 11.28C9.89631 11.3434 9.83721 11.4198 9.79622 11.5047C9.75523 11.5897 9.73318 11.6813 9.73141 11.7743C9.72963 11.8672 9.74816 11.9596 9.78588 12.0458C9.8236 12.132 9.87974 12.2103 9.95096 12.276C10.0222 12.3418 10.107 12.3936 10.2004 12.4284C10.2938 12.4632 10.3938 12.4803 10.4945 12.4787C10.5952 12.4771 10.6945 12.4567 10.7865 12.4189C10.8785 12.381 10.9613 12.3265 11.03 12.2585L14.03 9.48923C14.1705 9.35942 14.2493 9.18346 14.2493 9C14.2493 8.81654 14.1705 8.64058 14.03 8.51077L11.03 5.74154C10.8894 5.61189 10.6988 5.53907 10.5 5.53907C10.3012 5.53907 10.1106 5.61189 9.97 5.74154Z" fill="white"/>
</svg>
