<svg width="125" height="17" viewBox="0 0 125 17" fill="none" xmlns="http://www.w3.org/2000/svg">
<path d="M17.5595 16.116V9.124C17.5595 6.484 15.8894 4.724 13.2014 4.692C11.7859 4.676 10.3226 5.108 9.30462 6.676C8.54116 5.444 7.33236 4.692 5.64639 4.692C4.4694 4.692 3.30831 5.044 2.40171 6.34V4.98H0V16.116H2.43352V9.94C2.43352 8.004 3.49917 6.98 5.13742 6.98C6.72795 6.98 7.53913 8.036 7.53913 9.924V16.116H9.97264V9.94C9.97264 8.004 11.086 6.98 12.6765 6.98C14.3148 6.98 15.1101 8.036 15.1101 9.924V16.116H17.5595ZM53.5692 4.98H49.6246V1.588H47.1911V4.98H44.9485V7.188H47.1911V12.276C47.1911 14.868 48.1932 16.404 51.0402 16.404C52.09 16.404 53.2829 16.084 54.0463 15.54L53.3465 13.46C52.6307 13.876 51.8355 14.084 51.2152 14.084C50.0064 14.084 49.6246 13.332 49.6246 12.212V7.188H53.5692V4.98ZM74.1029 4.692C72.7192 4.692 71.8126 5.348 71.1764 6.324V4.98H68.7906V16.116H71.1923V9.876C71.1923 8.036 71.9875 7.012 73.5622 7.012C74.0552 7.012 74.5642 7.076 75.0732 7.284L75.8207 4.996C75.2958 4.788 74.596 4.692 74.1029 4.692ZM43.0398 5.86C41.8787 5.092 40.2882 4.692 38.5227 4.692C35.7234 4.692 33.9102 6.036 33.9102 8.26C33.9102 10.084 35.2462 11.204 37.7274 11.54L38.8567 11.7C40.1769 11.892 40.7972 12.228 40.7972 12.868C40.7972 13.732 39.9224 14.212 38.2682 14.212C36.5982 14.212 35.3894 13.668 34.5782 13.044L33.4489 14.932C34.7691 15.908 36.4391 16.372 38.2523 16.372C41.4493 16.372 43.3102 14.852 43.3102 12.74C43.3102 10.788 41.8469 9.764 39.4452 9.412L38.3159 9.252C37.2662 9.108 36.4391 8.9 36.4391 8.164C36.4391 7.348 37.2344 6.852 38.5545 6.852C39.9701 6.852 41.338 7.396 42.006 7.812L43.0398 5.86ZM107.584 4.692C106.2 4.692 105.293 5.348 104.657 6.324V4.98H102.271V16.116H104.673V9.876C104.673 8.036 105.468 7.012 107.043 7.012C107.536 7.012 108.045 7.076 108.554 7.284L109.301 4.996C108.761 4.788 108.077 4.692 107.584 4.692ZM76.5365 10.548C76.5365 13.924 78.8745 16.404 82.4373 16.404C84.1074 16.404 85.2208 16.036 86.4296 15.076L85.2685 13.124C84.3619 13.78 83.4076 14.132 82.3737 14.132C80.4492 14.116 79.0336 12.708 79.0336 10.564C79.0336 8.42 80.4492 7.028 82.3737 6.996C83.4235 6.996 84.3619 7.348 85.2685 8.004L86.4296 6.052C85.2208 5.092 84.1074 4.724 82.4373 4.724C78.8904 4.692 76.5365 7.172 76.5365 10.548ZM99.1061 10.548V4.98H96.7044V6.324C95.941 5.316 94.7799 4.692 93.2052 4.692C90.1037 4.692 87.6702 7.14 87.6702 10.548C87.6702 13.956 90.1037 16.404 93.2052 16.404C94.7799 16.404 95.941 15.78 96.7044 14.772V16.116H99.1061V10.548ZM90.1355 10.548C90.1355 8.596 91.4079 6.98 93.4915 6.98C95.4797 6.98 96.8317 8.516 96.8317 10.548C96.8317 12.58 95.4956 14.116 93.4915 14.116C91.4079 14.116 90.1355 12.5 90.1355 10.548ZM61.0606 4.692C57.8159 4.692 55.5414 7.076 55.5414 10.548C55.5414 14.084 57.9113 16.404 61.2196 16.404C62.8897 16.404 64.4166 15.988 65.7526 14.836L64.5756 13.044C63.6531 13.796 62.4602 14.212 61.3628 14.212C59.804 14.212 58.4044 13.492 58.0545 11.492H66.2775C66.2934 11.188 66.3252 10.884 66.3252 10.564C66.3093 7.076 64.178 4.692 61.0606 4.692ZM61.0288 6.868C62.5875 6.868 63.5736 7.844 63.8281 9.572H58.0863C58.3408 7.956 59.311 6.868 61.0288 6.868ZM121.469 10.548V0.5H119.067V6.324C118.304 5.316 117.143 4.692 115.568 4.692C112.467 4.692 110.033 7.14 110.033 10.548C110.033 13.956 112.467 16.404 115.568 16.404C117.143 16.404 118.304 15.78 119.067 14.772V16.116H121.469V10.548ZM124.284 15.092C124.38 15.092 124.475 15.108 124.555 15.14C124.634 15.172 124.714 15.22 124.777 15.284C124.841 15.348 124.889 15.428 124.936 15.508C124.968 15.588 125 15.684 125 15.78C125 15.876 124.984 15.972 124.936 16.052C124.905 16.132 124.841 16.212 124.777 16.276C124.714 16.34 124.634 16.388 124.555 16.436C124.475 16.468 124.38 16.5 124.284 16.5C124.189 16.5 124.093 16.484 123.998 16.436C123.903 16.404 123.839 16.34 123.775 16.276C123.712 16.212 123.664 16.132 123.616 16.052C123.584 15.972 123.553 15.876 123.553 15.78C123.553 15.684 123.569 15.588 123.616 15.508C123.648 15.428 123.712 15.348 123.775 15.284C123.839 15.22 123.918 15.172 123.998 15.14C124.077 15.108 124.173 15.092 124.284 15.092ZM124.284 16.34C124.364 16.34 124.427 16.324 124.491 16.292C124.555 16.26 124.618 16.228 124.666 16.18C124.714 16.132 124.761 16.068 124.777 16.004C124.809 15.94 124.825 15.86 124.825 15.796C124.825 15.716 124.809 15.652 124.777 15.588C124.746 15.524 124.714 15.46 124.666 15.412C124.618 15.364 124.555 15.316 124.491 15.3C124.427 15.268 124.348 15.252 124.284 15.252C124.205 15.252 124.141 15.268 124.062 15.3C123.998 15.332 123.934 15.364 123.887 15.412C123.839 15.46 123.791 15.524 123.775 15.588C123.743 15.652 123.728 15.732 123.728 15.796C123.728 15.876 123.743 15.94 123.775 16.004C123.807 16.068 123.839 16.132 123.887 16.18C123.934 16.228 123.998 16.276 124.062 16.292C124.125 16.324 124.205 16.34 124.284 16.34ZM124.316 15.46C124.396 15.46 124.459 15.476 124.507 15.524C124.555 15.556 124.571 15.62 124.571 15.684C124.571 15.732 124.555 15.78 124.523 15.812C124.491 15.844 124.427 15.876 124.364 15.876L124.571 16.116H124.396L124.205 15.876H124.141V16.116H123.998V15.46H124.316ZM124.157 15.588V15.764H124.316C124.348 15.764 124.38 15.764 124.411 15.748C124.427 15.732 124.443 15.716 124.443 15.684C124.443 15.652 124.427 15.636 124.411 15.62C124.396 15.604 124.364 15.604 124.316 15.604H124.157V15.588ZM112.498 10.548C112.498 8.596 113.771 6.98 115.854 6.98C117.843 6.98 119.195 8.516 119.195 10.548C119.195 12.58 117.859 14.116 115.854 14.116C113.771 14.116 112.498 12.5 112.498 10.548ZM31.1426 10.548V4.98H28.7409V6.324C27.9775 5.316 26.8164 4.692 25.2418 4.692C22.1402 4.692 19.7067 7.14 19.7067 10.548C19.7067 13.956 22.1402 16.404 25.2418 16.404C26.8164 16.404 27.9775 15.78 28.7409 14.772V16.116H31.1426V10.548ZM22.172 10.548C22.172 8.596 23.4445 6.98 25.5281 6.98C27.5162 6.98 28.8682 8.516 28.8682 10.548C28.8682 12.58 27.5321 14.116 25.5281 14.116C23.4445 14.116 22.172 12.5 22.172 10.548Z" fill="#CECECE"/>
</svg>
