<svg width="58" height="18" viewBox="0 0 58 18" fill="none" xmlns="http://www.w3.org/2000/svg">
<path d="M0 17.432V8.96599V0.5H2.87512C5.29409 0.5 5.79171 0.510739 5.99559 0.553696C6.12691 0.582333 6.33079 0.653927 6.44483 0.707623C6.55887 0.764898 6.72819 0.86513 6.82495 0.933144C6.91826 1.00116 7.07722 1.13361 7.17398 1.23384C7.27073 1.33049 7.41587 1.51664 7.49535 1.6455C7.57829 1.77795 7.68887 2.03927 7.75798 2.25405C7.82364 2.46168 7.93077 2.81607 7.99642 3.04159C8.06208 3.26711 8.58389 5.03906 9.15407 6.97926C9.72772 8.91946 10.2253 10.5446 10.2599 10.5948C10.2944 10.6449 10.3497 10.6842 10.3843 10.6842C10.4189 10.6842 10.4741 10.6449 10.5087 10.5948C10.5433 10.5446 10.9026 9.39198 11.3035 8.03527C11.7044 6.67498 12.1467 5.17151 12.2918 4.68825C12.4335 4.20499 12.6028 3.62508 12.6685 3.39956C12.7376 3.17404 12.8655 2.73731 12.9588 2.43304C13.0797 2.03927 13.1696 1.81017 13.2732 1.6455C13.3527 1.51664 13.5117 1.31975 13.6292 1.20162C13.7467 1.08707 13.9402 0.929564 14.0646 0.85439C14.189 0.779217 14.4067 0.671826 14.8076 0.517899L20.7686 0.5L20.7513 17.4141H15.7751L15.7579 12.4168L15.7577 12.3713C15.7406 7.47646 15.7404 7.41575 15.6715 7.34081C15.6335 7.29785 15.554 7.2549 15.4987 7.24416C15.4399 7.22984 15.3501 7.24416 15.2913 7.27637C15.2361 7.30501 15.1704 7.37303 15.1462 7.4303C15.122 7.48758 14.8387 8.4362 14.5104 9.53874C14.1855 10.6413 13.8331 11.8333 13.7294 12.1877C13.6257 12.5421 13.4495 13.1363 13.3389 13.5122C13.2283 13.8845 13.0279 14.5718 12.8897 15.0336C12.7514 15.4954 12.5579 16.1576 12.4577 16.5013C12.354 16.8449 12.2504 17.1921 12.1812 17.4141H8.5908L8.4975 17.1098C8.44566 16.9416 8.25906 16.3223 8.08627 15.7316C7.91349 15.141 7.7096 14.4573 7.63704 14.2103C7.56447 13.9633 7.39514 13.3833 7.25691 12.9216C7.11868 12.4598 6.94936 11.8799 6.87679 11.6329C6.80422 11.3859 6.51049 10.3871 6.22367 9.41346C5.93684 8.43978 5.67767 7.57349 5.65002 7.48758C5.61201 7.38019 5.56709 7.31933 5.48761 7.27995C5.41849 7.24416 5.3321 7.22984 5.2699 7.24416C5.21115 7.2549 5.13513 7.29785 5.09712 7.34081C5.02821 7.41575 5.028 7.47646 4.99376 17.323L4.99345 17.4141L0 17.432Z" fill="#CECECE"/>
<path d="M23.1184 17.432V8.96599V0.5H28.0946V5.39345C28.0946 8.52569 28.1084 10.3406 28.1292 10.4229C28.1499 10.4981 28.1983 10.584 28.2398 10.6127C28.2847 10.6413 28.3745 10.6664 28.4402 10.6699C28.5058 10.6699 28.5957 10.6413 28.6406 10.6055C28.689 10.5625 29.4527 8.90872 30.7486 6.03064C31.8648 3.54991 32.8289 1.44862 32.8842 1.35913C32.9429 1.26964 33.0742 1.12287 33.1779 1.02622C33.2816 0.933144 33.4647 0.800695 33.5891 0.73626C33.7135 0.668246 33.9071 0.589493 34.0211 0.557275C34.2008 0.507159 34.5775 0.5 39.3601 0.5V17.432L34.3839 17.4141V12.4204C34.3839 9.20941 34.3701 7.38019 34.3494 7.29069C34.3252 7.19762 34.2837 7.14393 34.2112 7.10455C34.1559 7.07591 34.066 7.05801 34.0142 7.06875C33.9589 7.07591 33.8932 7.11529 33.8621 7.1475C33.831 7.1833 32.8773 9.27385 31.7403 11.794C30.6069 14.3141 29.622 16.4619 29.5529 16.5693C29.4838 16.6767 29.3387 16.8342 29.235 16.9237C29.1313 17.0132 28.9205 17.1456 28.7685 17.2208C28.613 17.296 28.3918 17.3747 28.2674 17.3962C28.1292 17.4177 27.089 17.432 23.1184 17.432Z" fill="#CECECE"/>
<path d="M41.316 1.30543C41.2849 1.14793 41.2504 0.900927 41.2331 0.757738L41.2054 0.5H47.0041C52.0079 0.5 52.858 0.507159 53.207 0.553696C53.4316 0.585913 53.7633 0.650347 53.943 0.700463C54.1227 0.754159 54.3854 0.840072 54.5201 0.897347C54.6584 0.954622 54.8761 1.05485 55.0039 1.12287C55.1352 1.1873 55.3771 1.34123 55.5499 1.45936C55.7193 1.57749 55.9784 1.77795 56.1201 1.90324C56.2618 2.02853 56.4968 2.26837 56.6385 2.43662C56.7801 2.60486 56.9806 2.86976 57.0808 3.02727C57.181 3.1812 57.3572 3.50337 57.4678 3.73963C57.5819 3.97589 57.7132 4.29806 57.7616 4.45557C57.8099 4.61308 57.886 4.90303 57.9274 5.09992C57.9896 5.40777 58 5.56886 58 6.24542C58 6.67856 57.9862 7.09739 57.9309 7.31933L53.8048 7.33007C51.3893 7.33723 49.3677 7.32649 48.9323 7.30501C48.5073 7.28353 48.0097 7.237 47.7747 7.19404C47.5466 7.15466 47.1803 7.07233 46.9626 7.01506C46.7449 6.95778 46.4788 6.87903 46.3751 6.84323C46.2715 6.80385 46.0365 6.71436 45.8568 6.63919C45.6771 6.56401 45.3661 6.41367 45.1656 6.30627C44.9652 6.19888 44.63 5.99484 44.4227 5.85523C44.2119 5.71205 43.9009 5.47578 43.7315 5.32544C43.5587 5.17867 43.2858 4.91377 43.1199 4.73837C42.9575 4.56296 42.7467 4.32312 42.6534 4.20499C42.5635 4.08686 42.3907 3.83628 42.2698 3.65014C42.1488 3.46399 41.9588 3.11676 41.8447 2.8805C41.7342 2.64424 41.5821 2.25763 41.5061 2.02137C41.4335 1.78511 41.3471 1.46294 41.316 1.30543Z" fill="#CECECE"/>
<path d="M41.8827 17.5V12.85V8.19278H57.7097L57.689 8.27511C57.6786 8.31807 57.5784 8.54717 57.4678 8.78343C57.3572 9.01969 57.1672 9.35976 57.0462 9.53517C56.9253 9.71415 56.6419 10.0542 56.4138 10.2905C56.1236 10.5948 55.8851 10.7988 55.619 10.9849C55.4082 11.1281 55.0834 11.3214 54.8933 11.4181C54.7033 11.5112 54.3992 11.6365 54.2195 11.6937C54.0398 11.7546 53.7668 11.8298 53.6147 11.8584C53.4627 11.8906 53.1897 11.9336 53.01 11.9515C52.8234 11.9729 51.4342 11.9873 46.8935 11.9873V17.5H41.8827Z" fill="#CECECE"/>
</svg>
