<svg width="24" height="24" viewBox="0 0 24 24" fill="none" xmlns="http://www.w3.org/2000/svg">
<path fill-rule="evenodd" clip-rule="evenodd" d="M7.50195 6H14.63C15.5242 6.00132 16.3814 6.35749 17.0132 6.99028C17.6451 7.62307 18 8.48076 18 9.375V18.75C18.7956 18.75 19.5587 18.4339 20.1213 17.8713C20.6839 17.3087 21 16.5456 21 15.75V6.108C21 4.603 19.875 3.297 18.336 3.168C18.1117 3.14979 17.8874 3.13312 17.663 3.118C17.4098 2.63029 17.0276 2.22147 16.558 1.93614C16.0884 1.65082 15.5494 1.49995 15 1.5H13.5C12.9505 1.49995 12.4115 1.65082 11.9419 1.93614C11.4723 2.22147 11.0901 2.63029 10.837 3.118C10.612 3.133 10.387 3.15 10.164 3.168C8.66195 3.295 7.55395 4.542 7.50195 6ZM13.5 3C13.1021 3 12.7206 3.15804 12.4393 3.43934C12.158 3.72064 12 4.10218 12 4.5H16.5C16.5 4.10218 16.3419 3.72064 16.0606 3.43934C15.7793 3.15804 15.3978 3 15 3H13.5Z" fill="white"/>
<path fill-rule="evenodd" clip-rule="evenodd" d="M3 9.375C3 8.339 3.84 7.5 4.875 7.5H14.625C15.661 7.5 16.5 8.34 16.5 9.375V20.625C16.5 21.66 15.66 22.5 14.625 22.5H4.875C4.37772 22.5 3.90081 22.3025 3.54917 21.9508C3.19754 21.5992 3 21.1223 3 20.625V9.375ZM12.586 13.969C12.7104 13.8136 12.7679 13.6151 12.746 13.4173C12.7241 13.2194 12.6244 13.0384 12.469 12.914C12.3136 12.7896 12.1151 12.7321 11.9173 12.754C11.7194 12.7759 11.5384 12.8756 11.414 13.031L8.938 16.127L8.03 15.22C7.88783 15.0875 7.69978 15.0154 7.50548 15.0188C7.31118 15.0223 7.12579 15.101 6.98838 15.2384C6.85097 15.3758 6.77225 15.5612 6.76883 15.7555C6.7654 15.9498 6.83752 16.1378 6.97 16.28L8.47 17.78C8.5446 17.8546 8.63409 17.9126 8.73263 17.9502C8.83117 17.9879 8.93654 18.0043 9.04186 17.9984C9.14718 17.9926 9.25008 17.9646 9.34384 17.9163C9.43761 17.8679 9.52012 17.8004 9.586 17.718L12.586 13.969Z" fill="white"/>
</svg>
