<svg width="24" height="24" viewBox="0 0 24 24" fill="none" xmlns="http://www.w3.org/2000/svg">
<path d="M19.2996 14.6603L17.3318 12.6987C16.4572 11.7724 15.1453 11.7724 14.216 12.6987L13.3414 13.5705C13.2321 13.516 13.1228 13.4615 13.0681 13.4071C12.0295 12.7532 11.1003 11.9359 10.2257 10.7917C9.89771 10.3558 9.6244 10.0289 9.46041 9.64744C9.67906 9.42949 9.84305 9.26603 10.0617 9.04808L10.335 8.72115C10.827 8.23077 11.0456 7.6859 11.0456 7.14103C11.0456 6.54167 10.7723 5.99679 10.335 5.5609L9.35109 4.58013C9.24176 4.47115 9.13244 4.36218 9.02311 4.25321C8.7498 4.08974 8.53115 3.8718 8.3125 3.65385C7.4379 2.78205 6.126 2.78205 5.19674 3.65385L3.93951 4.90705C3.39289 5.45192 3.06491 6.10577 3.01025 6.86859C2.95559 7.74038 3.11957 8.66667 3.50221 9.75641C4.1035 11.391 4.97809 12.8622 6.34465 14.4968C7.92986 16.4038 9.89771 17.9295 12.0842 19.0192H12.1389C13.0135 19.4551 14.1614 19.891 15.5279 20C15.5826 20 15.6919 20 15.7466 20C16.7305 20 17.5504 19.6731 18.2064 18.9647L18.2611 18.9103C18.425 18.7468 18.589 18.5288 18.8077 18.3654L18.8623 18.3109C19.081 18.1474 19.1903 17.984 19.3543 17.8205C19.7916 17.3301 20.0649 16.7853 20.0102 16.2404C20.0102 15.641 19.7369 15.0962 19.2996 14.6603ZM8.91379 7.46795L8.53115 7.84936C8.25784 8.12179 7.98453 8.39423 7.71121 8.61218L7.65655 8.66667C7.32858 8.99359 7.21925 9.42949 7.38324 9.91987L7.4379 9.97436C7.71121 10.6282 8.09385 11.2821 8.69514 11.9904C9.73372 13.2436 10.827 14.2244 12.0295 14.9872C12.1935 15.0962 12.3028 15.1506 12.4668 15.2051L12.5215 15.2596C12.6308 15.3141 12.7401 15.3686 12.8495 15.4231V15.5321C13.3414 15.8045 13.8881 15.6955 14.3254 15.3141L15.5826 14.0609C15.7466 13.8974 15.8012 13.8429 15.9652 14.0609L17.9331 16.0224C18.0971 16.1859 18.0971 16.2949 17.9331 16.5128C17.8238 16.6763 17.6598 16.7853 17.4958 16.9487L17.4411 17.0032C17.2225 17.2212 17.0038 17.4391 16.7852 17.7115C16.5119 18.0385 16.1839 18.1474 15.6373 18.1474C14.6533 18.0929 13.7241 17.7115 13.0135 17.3301C11.0456 16.3494 9.29642 14.9872 7.82054 13.2981C6.61797 11.8814 5.85269 10.5737 5.30607 9.15705C5.03276 8.23077 4.92343 7.57692 4.92343 7.03205C4.97809 6.70513 5.08742 6.48718 5.30607 6.26923L6.50864 5.07051C6.67263 4.90705 6.72729 4.90705 6.94594 5.07051C7.10993 5.23397 7.32858 5.39744 7.49256 5.61538L8.91379 7.03205C9.02311 7.14103 9.07777 7.25 9.07777 7.25C9.07777 7.25 9.02311 7.35897 8.91379 7.46795Z" fill="black"/>
</svg>
