<svg width="24" height="24" viewBox="0 0 24 24" fill="none" xmlns="http://www.w3.org/2000/svg">
<path d="M11 4.99994C10.2121 4.99994 9.43185 5.15514 8.7039 5.45667C7.97595 5.75819 7.31451 6.20015 6.75736 6.7573C6.20021 7.31446 5.75825 7.97589 5.45672 8.70384C5.15519 9.4318 5 10.212 5 10.9999C5 11.7879 5.15519 12.5681 5.45672 13.296C5.75825 14.024 6.20021 14.6854 6.75736 15.2426C7.31451 15.7997 7.97595 16.2417 8.7039 16.5432C9.43185 16.8447 10.2121 16.9999 11 16.9999C12.5913 16.9999 14.1174 16.3678 15.2426 15.2426C16.3679 14.1174 17 12.5912 17 10.9999C17 9.40865 16.3679 7.88252 15.2426 6.7573C14.1174 5.63209 12.5913 4.99994 11 4.99994ZM3 10.9999C3.00005 9.72409 3.30525 8.46676 3.89012 7.33287C4.475 6.19897 5.3226 5.22141 6.36217 4.48177C7.40175 3.74212 8.60315 3.26184 9.86612 3.08101C11.1291 2.90018 12.417 3.02404 13.6224 3.44225C14.8277 3.86047 15.9156 4.56091 16.7951 5.48513C17.6747 6.40934 18.3204 7.53052 18.6785 8.75509C19.0366 9.97967 19.0965 11.2721 18.8534 12.5246C18.6103 13.7771 18.0712 14.9532 17.281 15.9549L21.7 20.2849C21.7939 20.3769 21.8688 20.4864 21.9203 20.6072C21.9719 20.7281 21.9992 20.8579 22.0006 20.9893C22.0019 21.1207 21.9774 21.2511 21.9285 21.373C21.8795 21.495 21.8069 21.6061 21.715 21.6999C21.6231 21.7938 21.5136 21.8687 21.3927 21.9203C21.2718 21.9718 21.142 21.9991 21.0106 22.0005C20.8792 22.0019 20.7488 21.9774 20.6269 21.9284C20.505 21.8794 20.3939 21.8069 20.3 21.7149L15.856 17.3579C14.6705 18.2634 13.2555 18.8194 11.7708 18.9631C10.286 19.1068 8.79067 18.8326 7.45356 18.1713C6.11645 17.51 4.99086 16.4881 4.20389 15.2209C3.41692 13.9536 2.99993 12.4916 3 10.9999Z" fill="black" fill-opacity="0.8"/>
</svg>
