<svg width="25" height="25" viewBox="0 0 25 25" fill="none" xmlns="http://www.w3.org/2000/svg">
<path fill-rule="evenodd" clip-rule="evenodd" d="M2.75 14C2.75 11.812 3.61919 9.71354 5.16637 8.16637C6.71354 6.61919 8.81196 5.75 11 5.75C11.1989 5.75 11.3897 5.82902 11.5303 5.96967C11.671 6.11032 11.75 6.30109 11.75 6.5V13.25H18.5C18.6989 13.25 18.8897 13.329 19.0303 13.4697C19.171 13.6103 19.25 13.8011 19.25 14C19.25 16.188 18.3808 18.2865 16.8336 19.8336C15.2865 21.3808 13.188 22.25 11 22.25C8.81196 22.25 6.71354 21.3808 5.16637 19.8336C3.61919 18.2865 2.75 16.188 2.75 14Z" fill="white"/>
<path fill-rule="evenodd" clip-rule="evenodd" d="M13.25 3.5C13.25 3.30109 13.329 3.11032 13.4697 2.96967C13.6103 2.82902 13.8011 2.75 14 2.75C16.188 2.75 18.2865 3.61919 19.8336 5.16637C21.3808 6.71354 22.25 8.81196 22.25 11C22.25 11.1989 22.171 11.3897 22.0303 11.5303C21.8897 11.671 21.6989 11.75 21.5 11.75H14C13.8011 11.75 13.6103 11.671 13.4697 11.5303C13.329 11.3897 13.25 11.1989 13.25 11V3.5Z" fill="white"/>
</svg>
