<svg width="19" height="22" viewBox="0 0 19 22" fill="none" xmlns="http://www.w3.org/2000/svg">
<path fill-rule="evenodd" clip-rule="evenodd" d="M5.05857 4.71429V5.5H3.09743C2.14992 5.5 1.35639 6.25848 1.2567 7.25895L0.0101389 19.8304C-0.0169733 20.1042 0.0104375 20.381 0.0905935 20.6428C0.17075 20.9046 0.30186 21.1456 0.475422 21.3502C0.648985 21.5548 0.861121 21.7183 1.09807 21.8303C1.33503 21.9422 1.5915 22 1.85087 22H17.1491C17.4085 22 17.665 21.9422 17.9019 21.8303C18.1389 21.7183 18.351 21.5548 18.5246 21.3502C18.6981 21.1456 18.8293 20.9046 18.9094 20.6428C18.9896 20.381 19.017 20.1042 18.9899 19.8304L17.7433 7.25895C17.6955 6.77615 17.4809 6.32925 17.141 6.00444C16.8011 5.67963 16.3599 5.49993 15.9026 5.5H13.9414V4.71429C13.9414 3.46398 13.4735 2.26488 12.6406 1.38078C11.8076 0.496682 10.6779 0 9.5 0C8.32206 0 7.19236 0.496682 6.35943 1.38078C5.5265 2.26488 5.05857 3.46398 5.05857 4.71429ZM9.5 1.57143C8.71471 1.57143 7.96158 1.90255 7.40629 2.49195C6.851 3.08135 6.53904 3.88075 6.53904 4.71429V5.5H12.461V4.71429C12.461 3.88075 12.149 3.08135 11.5937 2.49195C11.0384 1.90255 10.2853 1.57143 9.5 1.57143ZM6.53904 10.2143C6.53904 11.0478 6.851 11.8472 7.40629 12.4366C7.96158 13.026 8.71471 13.3571 9.5 13.3571C10.2853 13.3571 11.0384 13.026 11.5937 12.4366C12.149 11.8472 12.461 11.0478 12.461 10.2143V9.42857C12.461 9.22019 12.5389 9.02034 12.6778 8.87299C12.8166 8.72564 13.0049 8.64286 13.2012 8.64286C13.3975 8.64286 13.5858 8.72564 13.7246 8.87299C13.8634 9.02034 13.9414 9.22019 13.9414 9.42857V10.2143C13.9414 11.4646 13.4735 12.6637 12.6406 13.5478C11.8076 14.4319 10.6779 14.9286 9.5 14.9286C8.32206 14.9286 7.19236 14.4319 6.35943 13.5478C5.5265 12.6637 5.05857 11.4646 5.05857 10.2143V9.42857C5.05857 9.22019 5.13656 9.02034 5.27538 8.87299C5.4142 8.72564 5.60248 8.64286 5.79881 8.64286C5.99513 8.64286 6.18341 8.72564 6.32223 8.87299C6.46106 9.02034 6.53904 9.22019 6.53904 9.42857V10.2143Z" fill="white"/>
</svg>
