<svg width="18" height="15" viewBox="0 0 18 15" fill="none" xmlns="http://www.w3.org/2000/svg">
<path fill-rule="evenodd" clip-rule="evenodd" d="M1.26935 6.52545C6.0944 4.53317 9.3197 3.24547 10.9195 2.61377C15.5123 0.815851 16.467 0.5 17.0862 0.5C17.2152 0.5 17.5249 0.524296 17.7313 0.670074C17.8861 0.791554 17.9377 0.961627 17.9635 1.08311C17.9893 1.20459 18.0151 1.47185 17.9893 1.69051C17.7313 4.14443 16.6734 10.1456 16.1057 12.8911C15.8735 14.0573 15.4091 14.446 14.9704 14.4946C14.0157 14.5675 13.2675 13.8872 12.3386 13.3284C10.8936 12.4294 10.068 11.8706 8.64884 10.996C7.02329 9.97551 8.08119 9.4167 9.01007 8.51774C9.24229 8.27478 13.4997 4.65465 13.5771 4.3145C13.5771 4.26591 13.6029 4.12013 13.4997 4.04724C13.3965 3.97435 13.2675 3.99865 13.1643 4.02295C13.0094 4.04724 10.6872 5.50501 6.17181 8.37196C5.50095 8.8093 4.90749 9.00367 4.36564 9.00367C3.77218 9.00367 2.63688 8.68782 1.7854 8.42056C0.753302 8.10471 -0.0723748 7.93463 0.00503243 7.40012C0.0824397 7.10856 0.495278 6.81701 1.26935 6.52545Z" fill="#111318"/>
</svg>
