<svg width="19" height="19" viewBox="0 0 19 19" fill="none" xmlns="http://www.w3.org/2000/svg">
<path d="M3.81506 18.9994C3.56064 18.9994 3.34926 18.8006 3.3347 18.5456L2.46131 3.1366H0.480997C0.215816 3.1366 0 2.92016 0 2.65561C0 2.39043 0.215816 2.17398 0.480997 2.17398H2.75307L2.85117 2.1898L2.91762 2.17461H6.1903V0.480997C6.1903 0.215816 6.40548 0 6.6713 0H12.3287C12.5939 0 12.8097 0.215816 12.8097 0.480997V2.17461H16.0843L16.195 2.19233L16.2697 2.17461H18.519C18.7842 2.17461 19 2.39106 19 2.65624C19 2.92079 18.7842 3.13724 18.519 3.13724H16.5393L15.6786 18.5456C15.664 18.8 15.4533 19 15.1982 19H3.81506V18.9994ZM4.26885 18.0374H14.7425L15.5754 3.1366H3.42394L4.26885 18.0374ZM7.15166 2.17461H11.8477V0.961994H7.15166V2.17461Z" fill="#818181"/>
<path d="M5.89315 4.56299C5.73556 4.57058 5.61784 4.62754 5.5324 4.72248C5.44696 4.81868 5.40392 4.94272 5.41089 5.0712L6.04251 16.2151C6.0577 16.4689 6.26845 16.6683 6.52287 16.6683V16.7885L6.55135 16.6683C6.81527 16.6531 7.01779 16.4246 7.00387 16.1594L6.37161 5.01677C6.35642 4.76235 6.1463 4.56299 5.89315 4.56299Z" fill="#818181"/>
<path d="M13.1125 4.56494C12.8309 4.56494 12.6214 4.76367 12.6062 5.01809L11.9733 16.1608C11.9594 16.4259 12.1619 16.6538 12.4271 16.6696L12.455 16.7898V16.6696C12.7094 16.6696 12.9201 16.4709 12.9341 16.2165L13.5676 5.07252C13.5745 4.94404 13.5309 4.82063 13.4461 4.7238C13.36 4.62886 13.2429 4.5719 13.1151 4.56494C13.1138 4.56494 13.1125 4.56494 13.1125 4.56494Z" fill="#818181"/>
<path d="M9.49955 4.56299C9.23437 4.56299 9.01855 4.7788 9.01855 5.04399V16.1873C9.01855 16.4525 9.23437 16.6683 9.49955 16.6683C9.76473 16.6683 9.98055 16.4525 9.98055 16.1873V5.04399C9.98055 4.7788 9.76473 4.56299 9.49955 4.56299Z" fill="#818181"/>
</svg>
