<svg width="21" height="21" viewBox="0 0 21 21" fill="none" xmlns="http://www.w3.org/2000/svg">
<path d="M20.6666 10.3333C20.6666 4.63966 16.027 0 10.3333 0C4.63966 0 0 4.63966 0 10.3333C0 13.33 1.29166 16.027 3.33766 17.918C3.33766 17.9283 3.33766 17.9283 3.32733 17.9386C3.43066 18.042 3.55466 18.1246 3.65799 18.2176C3.71999 18.2693 3.77166 18.321 3.83366 18.3623C4.01966 18.5173 4.22633 18.662 4.42266 18.8066C4.49499 18.8583 4.55699 18.8996 4.62932 18.9513C4.82566 19.0856 5.03232 19.2096 5.24932 19.3233C5.32166 19.3646 5.40432 19.4163 5.47666 19.4576C5.68332 19.5713 5.90032 19.6746 6.12765 19.7676C6.21032 19.809 6.29299 19.8503 6.37565 19.8813C6.60299 19.9743 6.83032 20.057 7.05765 20.1293C7.14032 20.1603 7.22299 20.1913 7.30565 20.212C7.55365 20.2843 7.80165 20.3463 8.04965 20.4083C8.12198 20.429 8.19432 20.4496 8.27698 20.46C8.56632 20.522 8.85565 20.5633 9.15531 20.5943C9.19665 20.5943 9.23798 20.6046 9.27931 20.615C9.63065 20.646 9.98198 20.6666 10.3333 20.6666C10.6846 20.6666 11.036 20.646 11.377 20.615C11.4183 20.615 11.4596 20.6046 11.501 20.5943C11.8006 20.5633 12.09 20.522 12.3793 20.46C12.4516 20.4496 12.524 20.4186 12.6066 20.4083C12.8546 20.3463 13.113 20.2946 13.3506 20.212C13.4333 20.181 13.516 20.15 13.5986 20.1293C13.826 20.0466 14.0636 19.9743 14.2806 19.8813C14.3633 19.8503 14.446 19.809 14.5286 19.7676C14.7456 19.6746 14.9626 19.5713 15.1796 19.4576C15.2623 19.4163 15.3346 19.3646 15.407 19.3233C15.6136 19.1993 15.8203 19.0856 16.027 18.9513C16.0993 18.91 16.1613 18.8583 16.2336 18.8066C16.4403 18.662 16.6366 18.5173 16.8226 18.3623C16.8846 18.3106 16.9363 18.259 16.9983 18.2176C17.112 18.1246 17.2256 18.0316 17.329 17.9386C17.329 17.9283 17.329 17.9283 17.3186 17.918C19.375 16.027 20.6666 13.33 20.6666 10.3333ZM15.438 15.469C12.6376 13.5883 8.04965 13.5883 5.22866 15.469C4.77399 15.7686 4.40199 16.12 4.09199 16.5023C2.52133 14.911 1.55 12.7306 1.55 10.3333C1.55 5.48699 5.48699 1.55 10.3333 1.55C15.1796 1.55 19.1166 5.48699 19.1166 10.3333C19.1166 12.7306 18.1453 14.911 16.5746 16.5023C16.275 16.12 15.8926 15.7686 15.438 15.469Z" fill="black"/>
<path d="M10.332 5.09375C8.19303 5.09375 6.45703 6.82975 6.45703 8.96875C6.45703 11.0664 8.10003 12.7714 10.2804 12.8334C10.3114 12.8334 10.3527 12.8334 10.3734 12.8334C10.394 12.8334 10.425 12.8334 10.4457 12.8334C10.456 12.8334 10.4664 12.8334 10.4664 12.8334C12.5537 12.7611 14.1967 11.0664 14.207 8.96875C14.207 6.82975 12.471 5.09375 10.332 5.09375Z" fill="black"/>
</svg>
