<svg width="51" height="18" viewBox="0 0 51 18" fill="none" xmlns="http://www.w3.org/2000/svg">
<path d="M33.2287 0.5C29.6123 0.5 26.3652 2.44 26.3652 6C26.3652 10.1 32.101 10.38 32.101 12.42C32.101 13.28 31.1289 14.06 29.4956 14.06C27.1624 14.06 25.4125 12.98 25.4125 12.98L24.6737 16.58C24.6737 16.58 26.6763 17.5 29.3595 17.5C33.326 17.5 36.4369 15.48 36.4369 11.84C36.4369 7.52 30.6817 7.24 30.6817 5.34C30.6817 4.66 31.4788 3.92 33.1121 3.92C34.9592 3.92 36.4758 4.7 36.4758 4.7L37.2146 1.22C37.1952 1.22 35.5425 0.5 33.2287 0.5ZM0.0972169 0.76L0 1.28C0 1.28 1.51658 1.56 2.89706 2.14C4.66641 2.8 4.78307 3.18 5.09417 4.36L8.34121 17.22H12.6965L19.3656 0.76H15.0297L10.7327 11.96L8.98285 2.46C8.8273 1.38 8.01068 0.76 6.99962 0.76H0.0972169ZM21.1155 0.76L17.7129 17.22H21.8544L25.2375 0.76H21.1155ZM44.1754 0.76C43.1838 0.76 42.6588 1.3 42.2699 2.26L36.2036 17.22H40.5395L41.3755 14.72H46.6641L47.1697 17.22H51L47.6752 0.76H44.1754ZM44.7392 5.22L46.0225 11.4H42.581L44.7392 5.22Z" fill="#CECECE" fill-opacity="0.862745"/>
</svg>
