<svg width="20" height="13" viewBox="0 0 20 13" fill="none" xmlns="http://www.w3.org/2000/svg">
<path fill-rule="evenodd" clip-rule="evenodd" d="M2.93819 0.5H0.750187C0.125038 0.5 0 0.797348 0 1.12514C0 1.71067 0.741787 4.61461 3.45387 8.4553C5.26193 11.0782 7.80931 12.5 10.1274 12.5C11.5182 12.5 11.6902 12.1842 11.6902 11.6403V9.65789C11.6902 9.02632 11.822 8.90025 12.2624 8.90025C12.5869 8.90025 13.1432 9.06421 14.4414 10.3288C15.9249 11.8276 16.1695 12.5 17.0039 12.5H19.1919C19.8171 12.5 20.1297 12.1842 19.9494 11.561C19.7521 10.9399 19.0437 10.0387 18.1039 8.97055C17.5939 8.36164 16.8289 7.70594 16.5971 7.37802C16.2726 6.9565 16.3653 6.76911 16.5971 6.39446C16.5971 6.39446 19.2629 2.60057 19.541 1.31259C19.6801 0.844147 19.5411 0.5 18.8794 0.5H16.6914C16.1351 0.5 15.8786 0.797348 15.7394 1.12514C15.7394 1.12514 14.6268 3.86518 13.0506 5.64503C12.5406 6.16021 12.3087 6.32417 12.0306 6.32417C11.8915 6.32417 11.6902 6.16021 11.6902 5.6919V1.31259C11.6902 0.750484 11.5287 0.5 11.0651 0.5H7.62675C7.27912 0.5 7.07 0.760842 7.07 1.0081C7.07 1.5409 7.85812 1.66381 7.93937 3.16261V6.41789C7.93937 7.13158 7.81175 7.26099 7.53362 7.26099C6.79187 7.26099 4.98756 4.5087 3.91744 1.35939C3.70775 0.747264 3.49737 0.5 2.93819 0.5Z" fill="#111318"/>
</svg>
